<?xml version="1.0" standalone="no"?>
<!DOCTYPE svg PUBLIC "-//W3C//DTD SVG 20010904//EN"
 "http://www.w3.org/TR/2001/REC-SVG-20010904/DTD/svg10.dtd">
<svg version="1.0" xmlns="http://www.w3.org/2000/svg"
 width="500.000000pt" height="500.000000pt" viewBox="0 0 500.000000 500.000000"
 preserveAspectRatio="xMidYMid meet">

<g transform="translate(0.000000,500.000000) scale(0.100000,-0.100000)"
fill="#000000" stroke="none">
<path d="M2442 4083 l2 -88 3 73 c3 63 6 72 18 62 8 -7 15 -18 15 -25 0 -7 6
-18 14 -24 8 -7 22 -27 31 -46 26 -56 35 -42 33 53 l-2 87 -5 -73 -6 -73 -44
71 c-24 38 -48 70 -53 70 -4 0 -7 -39 -6 -87z"/>
<path d="M2490 3714 c0 -61 -3 -125 -6 -142 -6 -29 -9 -31 -68 -37 -145 -16
-286 -58 -401 -121 -27 -15 -61 -33 -75 -40 -14 -8 -59 -42 -100 -76 -74 -63
-188 -190 -214 -238 -7 -14 -25 -47 -40 -75 -63 -115 -105 -257 -122 -401 -6
-59 -8 -62 -36 -68 -17 -3 -78 -6 -136 -6 -67 0 -103 -3 -96 -10 5 -5 66 -10
135 -11 l127 -1 7 -67 c16 -149 58 -290 121 -406 15 -27 32 -59 38 -70 35 -64
142 -182 226 -249 96 -76 140 -101 282 -165 49 -21 191 -54 290 -66 68 -9 68
-8 68 -162 0 -69 4 -113 10 -113 6 0 10 48 10 123 0 67 4 127 8 134 4 6 30 14
57 18 166 22 298 60 407 119 195 104 356 269 444 456 66 139 82 193 105 360 6
41 16 78 22 82 7 4 65 8 129 8 67 0 119 4 123 10 4 6 -34 10 -107 10 -155 0
-154 0 -163 68 -31 253 -114 445 -266 615 -49 56 -171 159 -214 183 -148 82
-219 110 -329 134 -45 10 -111 21 -148 25 l-68 7 0 127 c0 69 -5 133 -10 141
-7 10 -10 -21 -10 -96z m-11 -471 c-1 -148 -5 -362 -8 -476 l-6 -209 -141 139
c-126 123 -354 340 -372 353 -7 6 65 -74 150 -165 31 -33 120 -125 197 -205
l141 -145 -202 -6 c-112 -3 -326 -7 -477 -8 l-274 -1 6 83 c9 136 81 339 161
457 142 206 335 346 571 413 120 34 121 35 193 36 l62 1 -1 -267z m302 229
c125 -38 287 -118 329 -162 3 -3 33 -30 68 -59 77 -67 177 -198 227 -298 53
-105 95 -252 102 -350 l6 -83 -279 1 c-153 1 -368 4 -477 8 l-197 6 117 121
c111 114 208 216 327 343 55 59 15 29 -60 -44 -22 -22 -112 -107 -198 -190
-87 -82 -170 -163 -185 -178 l-28 -29 -6 234 c-4 128 -7 343 -7 477 l0 244 83
-6 c47 -3 123 -18 178 -35z m-559 -999 l218 -6 -44 -46 c-178 -184 -244 -252
-336 -351 -102 -108 -118 -127 -103 -114 18 14 276 259 386 366 66 65 122 117
123 115 2 -2 7 -216 10 -477 l7 -473 -84 6 c-73 5 -213 38 -274 66 -184 82
-290 161 -410 301 -118 139 -210 362 -222 538 l-6 82 259 0 c142 0 357 -3 476
-7z m1285 -75 c-20 -268 -181 -546 -417 -719 -137 -101 -330 -174 -487 -186
l-83 -6 1 299 c1 164 4 379 8 477 l6 179 121 -119 c194 -188 326 -315 364
-348 l35 -30 -25 30 c-25 30 -137 147 -353 369 l-118 121 153 5 c84 3 299 7
477 8 l324 2 -6 -82z"/>
<path d="M830 2569 c0 -29 40 -159 49 -159 9 0 26 54 36 112 10 51 20 41 35
-34 21 -101 32 -99 61 7 9 33 20 68 24 79 6 14 5 18 -6 14 -7 -2 -19 -33 -26
-68 -18 -88 -29 -94 -43 -24 -23 120 -28 121 -60 17 -17 -58 -25 -71 -28 -53
-5 37 -33 130 -38 130 -2 0 -4 -9 -4 -21z"/>
<path d="M4000 2500 l0 -90 50 0 c28 0 50 5 50 10 0 6 -18 10 -41 10 -39 0
-40 1 -37 33 3 28 7 32 38 36 l35 4 -35 6 c-29 5 -36 11 -38 34 -3 25 -1 27
32 27 20 0 36 5 36 10 0 6 -20 10 -45 10 l-45 0 0 -90z"/>
<path d="M2470 992 c-31 -25 -19 -58 26 -77 30 -12 35 -19 32 -42 -3 -25 -7
-28 -41 -28 -20 0 -37 -3 -37 -7 0 -14 77 -8 90 6 21 26 8 60 -32 79 -40 20
-49 45 -23 67 8 6 24 9 37 5 18 -5 20 -4 8 4 -21 15 -35 14 -60 -7z"/>
</g>
</svg>
