<svg width="50" height="51" viewBox="0 0 50 51" fill="none" xmlns="http://www.w3.org/2000/svg">
<path d="M24.8044 1.87388C24.8044 3.0424 24.7469 4.26838 24.6894 4.59403C24.5745 5.14956 24.517 5.18787 23.3868 5.3028C20.6092 5.6093 17.9082 6.41385 15.7053 7.62068C15.1881 7.90802 14.5367 8.25283 14.2686 8.38692C14.0004 8.54017 13.1384 9.19147 12.353 9.84278C10.9354 11.0496 8.75164 13.4824 8.25358 14.4019C8.11949 14.6701 7.77468 15.3022 7.48734 15.8386C6.28051 18.0415 5.47596 20.7617 5.15031 23.5202C5.03537 24.6504 4.99706 24.7078 4.46069 24.8228C4.13504 24.8802 2.96652 24.9377 1.85547 24.9377C0.572022 24.9377 -0.117594 24.9952 0.0164978 25.1293C0.112278 25.225 1.28079 25.3208 2.60256 25.34L5.03537 25.3591L5.16946 26.6426C5.47596 29.4968 6.28051 32.1978 7.48734 34.4199C7.77468 34.9371 8.10033 35.5501 8.21527 35.7609C8.88573 36.9868 10.9354 39.2472 12.5445 40.5307C14.3835 41.9866 15.2264 42.4655 17.9465 43.6914C18.8852 44.0937 21.6053 44.7259 23.5018 44.9557C24.8044 45.1281 24.8044 45.109 24.8044 48.059C24.8044 49.3808 24.881 50.2236 24.9959 50.2236C25.1109 50.2236 25.1875 49.3041 25.1875 47.8674C25.1875 46.584 25.2641 45.4346 25.3407 45.3005C25.4174 45.1856 25.9154 45.0324 26.4326 44.9557C29.6125 44.5343 32.1411 43.8064 34.2291 42.6762C37.9645 40.6839 41.0487 37.5232 42.7344 33.941C43.9987 31.2783 44.3052 30.2439 44.7458 27.0449C44.8607 26.2595 45.0523 25.5507 45.1672 25.4741C45.3013 25.3975 46.4123 25.3208 47.6383 25.3208C48.9218 25.3208 49.9179 25.2442 49.9945 25.1293C50.0711 25.0143 49.3432 24.9377 47.9448 24.9377C44.9756 24.9377 44.9948 24.9377 44.8224 23.6351C44.2286 18.7886 42.6386 15.1107 39.7269 11.8542C38.7883 10.7814 36.4512 8.80835 35.6275 8.34861C32.7924 6.77782 31.4323 6.24145 29.3252 5.7817C28.4632 5.59014 27.1989 5.37943 26.4901 5.3028L25.1875 5.16871V2.7359C25.1875 1.41414 25.0917 0.188152 24.9959 0.034904C24.8618 -0.156656 24.8044 0.43718 24.8044 1.87388ZM24.5936 10.8964C24.5745 13.7314 24.4979 17.8308 24.4404 20.0146L24.3255 24.0182L21.6245 21.3555C19.2108 18.9993 14.8432 14.8425 14.4984 14.5935C14.3643 14.4785 15.7436 16.011 17.3718 17.7542C17.9657 18.3864 19.6706 20.1487 21.1456 21.6812L23.8466 24.4588L19.9771 24.5737C17.8316 24.6312 13.7322 24.7078 10.8396 24.727L5.59089 24.7461L5.70583 23.1562C5.87823 20.551 7.25747 16.6623 8.78995 14.4019C11.5101 10.4558 15.2072 7.77393 19.728 6.49048C22.0267 5.83917 22.0459 5.82002 23.4251 5.80086L24.6128 5.7817L24.5936 10.8964ZM30.3788 6.50963C32.7733 7.23756 35.8765 8.77004 36.6811 9.61291C36.7386 9.67037 37.3132 10.1876 37.9837 10.7431C39.4587 12.0266 41.3743 14.536 42.3321 16.4516C43.3474 18.463 44.1519 21.2789 44.286 23.1562L44.401 24.7461L39.0564 24.727C36.1256 24.7078 32.007 24.6504 29.919 24.5737L26.1453 24.4588L28.3865 22.1409C30.5129 19.9571 32.371 18.0032 34.6506 15.5704C35.7041 14.4402 34.9379 15.0149 33.5012 16.4133C33.0798 16.8347 31.3557 18.463 29.7083 20.0529C28.0417 21.6237 26.4518 23.1754 26.1644 23.4627L25.6281 24.0182L25.5131 19.5357C25.4365 17.0837 25.379 12.9652 25.379 10.3983V5.72424L26.969 5.83917C27.8693 5.89664 29.3252 6.18398 30.3788 6.50963ZM19.6706 25.6465L23.8466 25.7614L23.0037 26.6426C19.5939 30.1673 18.3296 31.4699 16.5673 33.3663C14.6134 35.4352 14.3069 35.7992 14.5942 35.5501C14.939 35.282 19.8813 30.5887 21.9884 28.539C23.2527 27.2939 24.3255 26.2978 24.3446 26.3361C24.3829 26.3744 24.4787 30.4738 24.5362 35.4735L24.6703 44.5343L23.0612 44.4194C21.6628 44.3236 18.9809 43.6914 17.8124 43.1551C14.2877 41.5843 12.2572 40.071 9.95846 37.3891C7.69805 34.7264 5.9357 30.4546 5.70583 27.0832L5.59089 25.5124H10.5523C13.2725 25.5124 17.391 25.5699 19.6706 25.6465ZM44.286 27.0832C43.9029 32.217 40.8188 37.5424 36.298 40.8563C33.6736 42.7911 29.9765 44.1895 26.969 44.4194L25.379 44.5343L25.3982 38.8067C25.4174 35.6651 25.4748 31.5465 25.5514 29.6692L25.6664 26.2403L27.9843 28.5199C31.7005 32.1212 34.2291 34.554 34.957 35.1862L35.6275 35.7609L35.1486 35.1862C34.6697 34.6115 32.5242 32.3702 28.3865 28.1176L26.1261 25.7997L29.057 25.7039C30.6661 25.6465 34.7846 25.5699 38.1944 25.5507L44.401 25.5124L44.286 27.0832Z" fill="#376CF6"/>
</svg>
