<svg width="27" height="28" viewBox="0 0 27 28" fill="none" xmlns="http://www.w3.org/2000/svg">
<mask id="path-1-outside-1" maskUnits="userSpaceOnUse" x="0" y="-0.217041" width="28" height="28" fill="black">
<rect fill="white" y="-0.217041" width="28" height="28"/>
<path d="M13.4022 2.60808C13.4022 3.19234 13.3734 3.80533 13.3447 3.96816C13.2872 4.24592 13.2585 4.26508 12.6934 4.32255C11.3046 4.47579 9.9541 4.87807 8.85263 5.48148C8.59403 5.62515 8.26837 5.79756 8.13428 5.8646C8.00019 5.94123 7.56918 6.26688 7.17648 6.59253C6.46771 7.19595 5.37582 8.41235 5.12679 8.8721C5.05974 9.00619 4.88734 9.32226 4.74367 9.59045C4.14026 10.6919 3.73798 12.052 3.57515 13.4312C3.51769 13.9963 3.49853 14.0251 3.23035 14.0825C3.06752 14.1113 2.48326 14.14 1.92774 14.14C1.28601 14.14 0.941203 14.1687 1.00825 14.2358C1.05614 14.2837 1.6404 14.3316 2.30128 14.3411L3.51769 14.3507L3.58473 14.9924C3.73798 16.4196 4.14026 17.7701 4.74367 18.8811C4.88734 19.1397 5.05017 19.4462 5.10763 19.5516C5.44286 20.1646 6.46771 21.2948 7.27226 21.9365C8.19175 22.6644 8.61318 22.9039 9.97326 23.5169C10.4426 23.718 11.8027 24.0341 12.7509 24.149C13.4022 24.2352 13.4022 24.2256 13.4022 25.7006C13.4022 26.3615 13.4405 26.783 13.498 26.783C13.5554 26.783 13.5937 26.3232 13.5937 25.6049C13.5937 24.9631 13.6321 24.3885 13.6704 24.3214C13.7087 24.2639 13.9577 24.1873 14.2163 24.149C15.8063 23.9383 17.0706 23.5743 18.1146 23.0092C19.9823 22.0131 21.5243 20.4327 22.3672 18.6417C22.9993 17.3103 23.1526 16.7931 23.3729 15.1936C23.4304 14.8009 23.5261 14.4465 23.5836 14.4082C23.6506 14.3699 24.2062 14.3316 24.8192 14.3316C25.4609 14.3316 25.9589 14.2932 25.9973 14.2358C26.0356 14.1783 25.6716 14.14 24.9724 14.14C23.4878 14.14 23.4974 14.14 23.4112 13.4887C23.1143 11.0655 22.3193 9.22648 20.8634 7.59822C20.3941 7.06185 19.2256 6.07532 18.8138 5.84545C17.3962 5.06005 16.7162 4.79187 15.6626 4.562C15.2316 4.46622 14.5994 4.36086 14.245 4.32255L13.5937 4.2555V3.03909C13.5937 2.37821 13.5459 1.76522 13.498 1.68859C13.4309 1.59281 13.4022 1.88973 13.4022 2.60808ZM13.2968 7.11932C13.2872 8.53687 13.2489 10.5866 13.2202 11.6785L13.1627 13.6803L11.8122 12.3489C10.6054 11.1708 8.42162 9.09239 8.24922 8.96788C8.18217 8.91041 8.87179 9.67665 9.68592 10.5482C9.98284 10.8643 10.8353 11.7455 11.5728 12.5117L12.9233 13.9005L10.9885 13.958C9.91579 13.9867 7.8661 14.0251 6.41982 14.0346L3.79545 14.0442L3.85292 13.2492C3.93912 11.9466 4.62873 10.0023 5.39497 8.8721C6.75505 6.89903 8.6036 5.55811 10.864 4.91638C12.0134 4.59073 12.023 4.58115 12.7126 4.57157L13.3064 4.562L13.2968 7.11932ZM16.1894 4.92596C17.3866 5.28992 18.9383 6.05616 19.3405 6.4776C19.3693 6.50633 19.6566 6.76494 19.9918 7.0427C20.7294 7.68442 21.6872 8.93914 22.1661 9.89694C22.6737 10.9026 23.076 12.3106 23.143 13.2492L23.2005 14.0442L20.5282 14.0346C19.0628 14.0251 17.0035 13.9963 15.9595 13.958L14.0726 13.9005L15.1933 12.7416C16.2564 11.6497 17.1855 10.6728 18.3253 9.45635C18.8521 8.89125 18.4689 9.17859 17.7506 9.87779C17.5399 10.0885 16.6779 10.9026 15.8542 11.6976C15.0209 12.483 14.2259 13.2588 14.0822 13.4025L13.814 13.6803L13.7566 11.439C13.7183 10.213 13.6895 8.15375 13.6895 6.87029V4.53326L14.4845 4.59073C14.9347 4.61946 15.6626 4.76313 16.1894 4.92596ZM10.8353 14.4944L12.9233 14.5519L12.5019 14.9924C10.797 16.7548 10.1648 17.4061 9.28364 18.3543C8.30669 19.3887 8.15344 19.5707 8.29711 19.4462C8.46951 19.3121 10.9406 16.9655 11.9942 15.9407C12.6264 15.3181 13.1627 14.82 13.1723 14.8392C13.1915 14.8583 13.2394 16.908 13.2681 19.4079L13.3351 23.9383L12.5306 23.8808C11.8314 23.8329 10.4905 23.5169 9.90621 23.2487C8.14386 22.4633 7.12859 21.7066 5.97923 20.3657C4.84903 19.0344 3.96785 16.8985 3.85292 15.2127L3.79545 14.4273H6.27615C7.63623 14.4273 9.6955 14.4561 10.8353 14.4944ZM23.143 15.2127C22.9515 17.7796 21.4094 20.4423 19.149 22.0993C17.8368 23.0667 15.9882 23.7659 14.4845 23.8808L13.6895 23.9383L13.6991 21.0745C13.7087 19.5037 13.7374 17.4444 13.7757 16.5058L13.8332 14.7913L14.9921 15.9311C16.8503 17.7317 18.1146 18.9482 18.4785 19.2642L18.8138 19.5516L18.5743 19.2642C18.3349 18.9769 17.2621 17.8563 15.1933 15.7299L14.0631 14.571L15.5285 14.5231C16.3331 14.4944 18.3923 14.4561 20.0972 14.4465L23.2005 14.4273L23.143 15.2127Z"/>
</mask>
<path d="M13.4022 2.60808C13.4022 3.19234 13.3734 3.80533 13.3447 3.96816C13.2872 4.24592 13.2585 4.26508 12.6934 4.32255C11.3046 4.47579 9.9541 4.87807 8.85263 5.48148C8.59403 5.62515 8.26837 5.79756 8.13428 5.8646C8.00019 5.94123 7.56918 6.26688 7.17648 6.59253C6.46771 7.19595 5.37582 8.41235 5.12679 8.8721C5.05974 9.00619 4.88734 9.32226 4.74367 9.59045C4.14026 10.6919 3.73798 12.052 3.57515 13.4312C3.51769 13.9963 3.49853 14.0251 3.23035 14.0825C3.06752 14.1113 2.48326 14.14 1.92774 14.14C1.28601 14.14 0.941203 14.1687 1.00825 14.2358C1.05614 14.2837 1.6404 14.3316 2.30128 14.3411L3.51769 14.3507L3.58473 14.9924C3.73798 16.4196 4.14026 17.7701 4.74367 18.8811C4.88734 19.1397 5.05017 19.4462 5.10763 19.5516C5.44286 20.1646 6.46771 21.2948 7.27226 21.9365C8.19175 22.6644 8.61318 22.9039 9.97326 23.5169C10.4426 23.718 11.8027 24.0341 12.7509 24.149C13.4022 24.2352 13.4022 24.2256 13.4022 25.7006C13.4022 26.3615 13.4405 26.783 13.498 26.783C13.5554 26.783 13.5937 26.3232 13.5937 25.6049C13.5937 24.9631 13.6321 24.3885 13.6704 24.3214C13.7087 24.2639 13.9577 24.1873 14.2163 24.149C15.8063 23.9383 17.0706 23.5743 18.1146 23.0092C19.9823 22.0131 21.5243 20.4327 22.3672 18.6417C22.9993 17.3103 23.1526 16.7931 23.3729 15.1936C23.4304 14.8009 23.5261 14.4465 23.5836 14.4082C23.6506 14.3699 24.2062 14.3316 24.8192 14.3316C25.4609 14.3316 25.9589 14.2932 25.9973 14.2358C26.0356 14.1783 25.6716 14.14 24.9724 14.14C23.4878 14.14 23.4974 14.14 23.4112 13.4887C23.1143 11.0655 22.3193 9.22648 20.8634 7.59822C20.3941 7.06185 19.2256 6.07532 18.8138 5.84545C17.3962 5.06005 16.7162 4.79187 15.6626 4.562C15.2316 4.46622 14.5994 4.36086 14.245 4.32255L13.5937 4.2555V3.03909C13.5937 2.37821 13.5459 1.76522 13.498 1.68859C13.4309 1.59281 13.4022 1.88973 13.4022 2.60808ZM13.2968 7.11932C13.2872 8.53687 13.2489 10.5866 13.2202 11.6785L13.1627 13.6803L11.8122 12.3489C10.6054 11.1708 8.42162 9.09239 8.24922 8.96788C8.18217 8.91041 8.87179 9.67665 9.68592 10.5482C9.98284 10.8643 10.8353 11.7455 11.5728 12.5117L12.9233 13.9005L10.9885 13.958C9.91579 13.9867 7.8661 14.0251 6.41982 14.0346L3.79545 14.0442L3.85292 13.2492C3.93912 11.9466 4.62873 10.0023 5.39497 8.8721C6.75505 6.89903 8.6036 5.55811 10.864 4.91638C12.0134 4.59073 12.023 4.58115 12.7126 4.57157L13.3064 4.562L13.2968 7.11932ZM16.1894 4.92596C17.3866 5.28992 18.9383 6.05616 19.3405 6.4776C19.3693 6.50633 19.6566 6.76494 19.9918 7.0427C20.7294 7.68442 21.6872 8.93914 22.1661 9.89694C22.6737 10.9026 23.076 12.3106 23.143 13.2492L23.2005 14.0442L20.5282 14.0346C19.0628 14.0251 17.0035 13.9963 15.9595 13.958L14.0726 13.9005L15.1933 12.7416C16.2564 11.6497 17.1855 10.6728 18.3253 9.45635C18.8521 8.89125 18.4689 9.17859 17.7506 9.87779C17.5399 10.0885 16.6779 10.9026 15.8542 11.6976C15.0209 12.483 14.2259 13.2588 14.0822 13.4025L13.814 13.6803L13.7566 11.439C13.7183 10.213 13.6895 8.15375 13.6895 6.87029V4.53326L14.4845 4.59073C14.9347 4.61946 15.6626 4.76313 16.1894 4.92596ZM10.8353 14.4944L12.9233 14.5519L12.5019 14.9924C10.797 16.7548 10.1648 17.4061 9.28364 18.3543C8.30669 19.3887 8.15344 19.5707 8.29711 19.4462C8.46951 19.3121 10.9406 16.9655 11.9942 15.9407C12.6264 15.3181 13.1627 14.82 13.1723 14.8392C13.1915 14.8583 13.2394 16.908 13.2681 19.4079L13.3351 23.9383L12.5306 23.8808C11.8314 23.8329 10.4905 23.5169 9.90621 23.2487C8.14386 22.4633 7.12859 21.7066 5.97923 20.3657C4.84903 19.0344 3.96785 16.8985 3.85292 15.2127L3.79545 14.4273H6.27615C7.63623 14.4273 9.6955 14.4561 10.8353 14.4944ZM23.143 15.2127C22.9515 17.7796 21.4094 20.4423 19.149 22.0993C17.8368 23.0667 15.9882 23.7659 14.4845 23.8808L13.6895 23.9383L13.6991 21.0745C13.7087 19.5037 13.7374 17.4444 13.7757 16.5058L13.8332 14.7913L14.9921 15.9311C16.8503 17.7317 18.1146 18.9482 18.4785 19.2642L18.8138 19.5516L18.5743 19.2642C18.3349 18.9769 17.2621 17.8563 15.1933 15.7299L14.0631 14.571L15.5285 14.5231C16.3331 14.4944 18.3923 14.4561 20.0972 14.4465L23.2005 14.4273L23.143 15.2127Z" fill="#376CF6"/>
<path d="M13.4022 2.60808C13.4022 3.19234 13.3734 3.80533 13.3447 3.96816C13.2872 4.24592 13.2585 4.26508 12.6934 4.32255C11.3046 4.47579 9.9541 4.87807 8.85263 5.48148C8.59403 5.62515 8.26837 5.79756 8.13428 5.8646C8.00019 5.94123 7.56918 6.26688 7.17648 6.59253C6.46771 7.19595 5.37582 8.41235 5.12679 8.8721C5.05974 9.00619 4.88734 9.32226 4.74367 9.59045C4.14026 10.6919 3.73798 12.052 3.57515 13.4312C3.51769 13.9963 3.49853 14.0251 3.23035 14.0825C3.06752 14.1113 2.48326 14.14 1.92774 14.14C1.28601 14.14 0.941203 14.1687 1.00825 14.2358C1.05614 14.2837 1.6404 14.3316 2.30128 14.3411L3.51769 14.3507L3.58473 14.9924C3.73798 16.4196 4.14026 17.7701 4.74367 18.8811C4.88734 19.1397 5.05017 19.4462 5.10763 19.5516C5.44286 20.1646 6.46771 21.2948 7.27226 21.9365C8.19175 22.6644 8.61318 22.9039 9.97326 23.5169C10.4426 23.718 11.8027 24.0341 12.7509 24.149C13.4022 24.2352 13.4022 24.2256 13.4022 25.7006C13.4022 26.3615 13.4405 26.783 13.498 26.783C13.5554 26.783 13.5937 26.3232 13.5937 25.6049C13.5937 24.9631 13.6321 24.3885 13.6704 24.3214C13.7087 24.2639 13.9577 24.1873 14.2163 24.149C15.8063 23.9383 17.0706 23.5743 18.1146 23.0092C19.9823 22.0131 21.5243 20.4327 22.3672 18.6417C22.9993 17.3103 23.1526 16.7931 23.3729 15.1936C23.4304 14.8009 23.5261 14.4465 23.5836 14.4082C23.6506 14.3699 24.2062 14.3316 24.8192 14.3316C25.4609 14.3316 25.9589 14.2932 25.9973 14.2358C26.0356 14.1783 25.6716 14.14 24.9724 14.14C23.4878 14.14 23.4974 14.14 23.4112 13.4887C23.1143 11.0655 22.3193 9.22648 20.8634 7.59822C20.3941 7.06185 19.2256 6.07532 18.8138 5.84545C17.3962 5.06005 16.7162 4.79187 15.6626 4.562C15.2316 4.46622 14.5994 4.36086 14.245 4.32255L13.5937 4.2555V3.03909C13.5937 2.37821 13.5459 1.76522 13.498 1.68859C13.4309 1.59281 13.4022 1.88973 13.4022 2.60808ZM13.2968 7.11932C13.2872 8.53687 13.2489 10.5866 13.2202 11.6785L13.1627 13.6803L11.8122 12.3489C10.6054 11.1708 8.42162 9.09239 8.24922 8.96788C8.18217 8.91041 8.87179 9.67665 9.68592 10.5482C9.98284 10.8643 10.8353 11.7455 11.5728 12.5117L12.9233 13.9005L10.9885 13.958C9.91579 13.9867 7.8661 14.0251 6.41982 14.0346L3.79545 14.0442L3.85292 13.2492C3.93912 11.9466 4.62873 10.0023 5.39497 8.8721C6.75505 6.89903 8.6036 5.55811 10.864 4.91638C12.0134 4.59073 12.023 4.58115 12.7126 4.57157L13.3064 4.562L13.2968 7.11932ZM16.1894 4.92596C17.3866 5.28992 18.9383 6.05616 19.3405 6.4776C19.3693 6.50633 19.6566 6.76494 19.9918 7.0427C20.7294 7.68442 21.6872 8.93914 22.1661 9.89694C22.6737 10.9026 23.076 12.3106 23.143 13.2492L23.2005 14.0442L20.5282 14.0346C19.0628 14.0251 17.0035 13.9963 15.9595 13.958L14.0726 13.9005L15.1933 12.7416C16.2564 11.6497 17.1855 10.6728 18.3253 9.45635C18.8521 8.89125 18.4689 9.17859 17.7506 9.87779C17.5399 10.0885 16.6779 10.9026 15.8542 11.6976C15.0209 12.483 14.2259 13.2588 14.0822 13.4025L13.814 13.6803L13.7566 11.439C13.7183 10.213 13.6895 8.15375 13.6895 6.87029V4.53326L14.4845 4.59073C14.9347 4.61946 15.6626 4.76313 16.1894 4.92596ZM10.8353 14.4944L12.9233 14.5519L12.5019 14.9924C10.797 16.7548 10.1648 17.4061 9.28364 18.3543C8.30669 19.3887 8.15344 19.5707 8.29711 19.4462C8.46951 19.3121 10.9406 16.9655 11.9942 15.9407C12.6264 15.3181 13.1627 14.82 13.1723 14.8392C13.1915 14.8583 13.2394 16.908 13.2681 19.4079L13.3351 23.9383L12.5306 23.8808C11.8314 23.8329 10.4905 23.5169 9.90621 23.2487C8.14386 22.4633 7.12859 21.7066 5.97923 20.3657C4.84903 19.0344 3.96785 16.8985 3.85292 15.2127L3.79545 14.4273H6.27615C7.63623 14.4273 9.6955 14.4561 10.8353 14.4944ZM23.143 15.2127C22.9515 17.7796 21.4094 20.4423 19.149 22.0993C17.8368 23.0667 15.9882 23.7659 14.4845 23.8808L13.6895 23.9383L13.6991 21.0745C13.7087 19.5037 13.7374 17.4444 13.7757 16.5058L13.8332 14.7913L14.9921 15.9311C16.8503 17.7317 18.1146 18.9482 18.4785 19.2642L18.8138 19.5516L18.5743 19.2642C18.3349 18.9769 17.2621 17.8563 15.1933 15.7299L14.0631 14.571L15.5285 14.5231C16.3331 14.4944 18.3923 14.4561 20.0972 14.4465L23.2005 14.4273L23.143 15.2127Z" stroke="#376CF6" stroke-width="2" mask="url(#path-1-outside-1)"/>
</svg>
