<svg width="48" height="48" viewBox="0 0 48 48" fill="none" xmlns="http://www.w3.org/2000/svg">
<path d="M47.4324 23.2663L46.2332 22.9553C45.9783 17.4024 43.6953 12.2183 39.7387 8.2615C36.6764 5.19918 32.8273 3.11074 28.6076 2.22197C28.198 2.13565 27.796 2.39774 27.7096 2.80751C27.6232 3.21717 27.8854 3.61925 28.2951 3.70557C32.2264 4.53359 35.8127 6.47972 38.6665 9.33362C42.2416 12.9087 44.3499 17.5591 44.6915 22.5555L41.9555 21.8458C41.6284 19.1048 40.6666 16.4497 39.1579 14.136C38.9293 13.7852 38.4597 13.6862 38.1088 13.9149C37.7581 14.1437 37.6592 14.6133 37.8879 14.964C39.1607 16.9162 40.0078 19.1339 40.3676 21.4339L33.6676 19.6961L37.5717 11.4377C37.7086 11.1483 37.6488 10.8039 37.4222 10.5776C37.1959 10.3512 36.8515 10.2915 36.5621 10.4285L28.3049 14.3362L26.5662 7.6326C28.8336 7.98748 31.0231 8.81611 32.9541 10.0592C33.0811 10.1408 33.2232 10.1798 33.3638 10.1798C33.613 10.1798 33.857 10.057 34.0019 9.83193C34.2285 9.47988 34.1267 9.01078 33.7748 8.78417C31.4835 7.30936 28.8593 6.36743 26.1543 6.04449L24.7339 0.567748C24.6472 0.233487 24.3454 0 24.0001 0C23.6547 0 23.353 0.233487 23.2662 0.567748L21.8455 6.04519C18.0113 6.50054 14.5489 8.15365 11.839 10.6181L11.4376 10.4284C11.148 10.2915 10.8039 10.3514 10.5775 10.5778C10.3511 10.8043 10.2914 11.1486 10.4284 11.438L10.6179 11.8384C8.15133 14.5514 6.50004 18.0165 6.04519 21.8456L3.31875 22.5527C3.65291 17.7335 5.65746 13.0096 9.33352 9.33352C12.1569 6.51015 15.702 4.57291 19.5854 3.73104C19.9946 3.6424 20.2544 3.2387 20.1657 2.82964C20.0771 2.42048 19.6734 2.16041 19.2643 2.24936C15.0958 3.15299 11.2911 5.23193 8.2615 8.2615C4.30476 12.2181 2.02184 17.4024 1.76702 22.9552L0.567849 23.2662C0.233487 23.353 0 23.6547 0 24.0001C0 24.3454 0.233487 24.6471 0.567748 24.7339L1.76692 25.0449C2.02184 30.5977 4.30475 35.7819 8.2614 39.7386C12.2181 43.6954 17.4023 45.9783 22.9551 46.2331L23.2661 47.4323C23.3529 47.7666 23.6546 48 24 48C24.3453 48 24.647 47.7665 24.7338 47.4323L25.0448 46.2331C30.5977 45.9782 35.7819 43.6952 39.7386 39.7386C43.6952 35.7819 45.9782 30.5977 46.2331 25.0448L47.4323 24.7338C47.7666 24.647 48 24.3453 48 24C48 23.6546 47.7667 23.353 47.4324 23.2663ZM35.2948 35.2955L28.6915 32.1738L28.9533 31.1644L29.4084 29.41L29.4096 29.4097L35.2941 35.2942L35.2948 35.2955ZM20.0559 29.0163L24.0001 25.0722V44.2227L20.0559 29.0163ZM12.7046 35.2948L15.8263 28.6915L17.2093 29.0502L18.5901 29.4084L18.5904 29.4096L12.7059 35.2941L12.7046 35.2948ZM18.95 17.2094L18.5917 18.5902L18.5905 18.5905L12.7059 12.7059L12.7053 12.7046L19.3086 15.8263L18.95 17.2094ZM14.3325 28.3041L11.3183 34.68C9.41337 32.4177 8.10554 29.6341 7.63068 26.5658L14.3325 28.3041ZM19.6951 33.6639L21.4343 40.3694C18.3656 39.8945 15.5818 38.5864 13.3194 36.6812L19.6951 33.6639ZM28.3041 33.6676L34.6801 36.6818C32.4178 38.5868 29.6342 39.8946 26.5658 40.3694L28.3041 33.6676ZM33.664 28.305L40.3695 26.5658C39.8947 29.6345 38.5866 32.4183 36.6814 34.6808L33.664 28.305ZM29.0164 27.9442L25.0723 24.0001H44.2227L29.0164 27.9442ZM32.1739 19.3087L30.2926 18.8207L29.41 18.5917L29.4097 18.5905L35.2943 12.7059L35.2956 12.7053L32.1739 19.3087ZM27.9443 18.9839L24.0002 22.928V3.77754L27.9443 18.9839ZM21.4341 7.63159L19.6961 14.3325L13.3327 11.3242C15.5946 9.41863 18.3745 8.10706 21.4341 7.63159ZM11.3249 13.3321L14.3363 19.6952L7.63089 21.4343C8.10605 18.378 9.41752 15.5964 11.3249 13.3321ZM18.9839 20.0559L22.928 24.0001H3.77754L18.9839 20.0559ZM9.33352 38.6666C5.65746 34.9905 3.65291 30.2666 3.31875 25.4474L6.0454 26.1546C6.48912 29.8755 8.09321 33.3822 10.6181 36.1611L10.4284 36.5624C10.2915 36.8519 10.3513 37.1962 10.5778 37.4225C10.7231 37.5679 10.9171 37.6445 11.1139 37.6445C11.2237 37.6445 11.3343 37.6206 11.438 37.5716L11.8389 37.3819C14.6178 39.9069 18.1245 41.511 21.8455 41.9547L22.5527 44.6813C17.7336 44.3473 13.0096 42.3426 9.33352 38.6666ZM38.6666 38.6666C34.9905 42.3426 30.2666 44.3472 25.4475 44.6813L26.1547 41.9547C29.8756 41.511 33.3823 39.9069 36.1612 37.382L36.5626 37.5717C36.6661 37.6206 36.7766 37.6445 36.8863 37.6445C37.0832 37.6445 37.2773 37.5678 37.4227 37.4223C37.649 37.1958 37.7088 36.8515 37.5718 36.5621L37.3821 36.1611C39.9071 33.3822 41.5112 29.8755 41.9549 26.1546L44.6917 25.4447C44.35 30.4411 42.2417 35.0915 38.6666 38.6666Z" fill="#376CF6"/>
</svg>
