<svg width="358" height="358" viewBox="0 0 358 358" fill="none" xmlns="http://www.w3.org/2000/svg">
<path d="M329.874 173.792C333.024 175.611 334.6 176.521 335.128 177.708C335.589 178.743 335.589 179.926 335.128 180.962C334.6 182.149 333.024 183.058 329.874 184.877L306.741 198.233C303.59 200.052 302.015 200.962 300.723 200.826C299.595 200.707 298.571 200.116 297.905 199.199C297.141 198.147 297.141 196.329 297.141 192.691L297.141 165.979C297.141 162.341 297.141 160.522 297.905 159.471C298.571 158.554 299.595 157.962 300.723 157.844C302.015 157.708 303.59 158.617 306.741 160.436L329.874 173.792Z" fill="#545454"/>
<path d="M28.8774 184.877C25.727 183.058 24.1518 182.149 23.6232 180.962C23.1621 179.926 23.1621 178.743 23.6232 177.708C24.1518 176.52 25.727 175.611 28.8773 173.792L52.0107 160.436C55.1611 158.617 56.7363 157.708 58.0288 157.844C59.1563 157.962 60.1805 158.553 60.8468 159.471C61.6107 160.522 61.6107 162.341 61.6107 165.979L61.6107 192.691C61.6107 196.328 61.6107 198.147 60.8468 199.199C60.1804 200.116 59.1563 200.707 58.0288 200.826C56.7363 200.962 55.1611 200.052 52.0107 198.233L28.8774 184.877Z" fill="#545454"/>
<path d="M173.308 29.6613C175.126 26.5109 176.036 24.9357 177.223 24.4071C178.259 23.946 179.441 23.946 180.477 24.4071C181.664 24.9357 182.574 26.5109 184.393 29.6613L197.749 52.7946C199.568 55.945 200.477 57.5202 200.341 58.8128C200.223 59.9402 199.631 60.9644 198.714 61.6307C197.663 62.3947 195.844 62.3947 192.206 62.3947L165.494 62.3947C161.856 62.3946 160.038 62.3946 158.986 61.6307C158.069 60.9644 157.478 59.9402 157.359 58.8128C157.223 57.5202 158.133 55.945 159.952 52.7946L173.308 29.6613Z" fill="#545454"/>
<path d="M184.393 330.658C182.574 333.808 181.664 335.383 180.477 335.912C179.441 336.373 178.259 336.373 177.223 335.912C176.036 335.383 175.126 333.808 173.307 330.658L159.951 307.524C158.133 304.374 157.223 302.799 157.359 301.506C157.477 300.379 158.069 299.355 158.986 298.688C160.037 297.924 161.856 297.924 165.494 297.924L192.206 297.924C195.844 297.924 197.663 297.924 198.714 298.688C199.631 299.355 200.223 300.379 200.341 301.506C200.477 302.799 199.568 304.374 197.749 307.524L184.393 330.658Z" fill="#545454"/>
<path d="M277.561 73.8173C279.038 73.5791 279.777 73.4599 280.312 73.6908C280.781 73.893 281.154 74.2665 281.356 74.735C281.587 75.2702 281.468 76.0088 281.23 77.486L278.588 93.8642C278.456 94.6845 278.39 95.0947 278.196 95.4214C278.025 95.7098 277.784 95.9506 277.496 96.1216C277.169 96.3153 276.759 96.3815 275.939 96.5138L259.56 99.1554C258.083 99.3937 257.345 99.5128 256.809 99.2819C256.341 99.0798 255.967 98.7063 255.765 98.2377C255.534 97.7025 255.653 96.9639 255.892 95.4867L258.533 79.1086C258.666 78.2882 258.732 77.8781 258.925 77.5514C259.096 77.263 259.337 77.0221 259.626 76.8511C259.952 76.6574 260.363 76.5913 261.183 76.459L277.561 73.8173Z" fill="#FFB764"/>
<path d="M73.051 77.4861C72.8127 76.0089 72.6936 75.2703 72.9245 74.735C73.1266 74.2665 73.5001 73.893 73.9687 73.6908C74.5039 73.46 75.2425 73.5791 76.7197 73.8173L93.0978 76.459C93.9182 76.5913 94.3283 76.6575 94.655 76.8511C94.9434 77.0222 95.1843 77.263 95.3553 77.5514C95.549 77.8781 95.6151 78.2883 95.7474 79.1086L98.3891 95.4867C98.6273 96.9639 98.7465 97.7025 98.5156 98.2378C98.3135 98.7063 97.9399 99.0798 97.4714 99.2819C96.9362 99.5128 96.1976 99.3937 94.7204 99.1555L78.3422 96.5138C77.5219 96.3815 77.1117 96.3153 76.7851 96.1217C76.4966 95.9506 76.2558 95.7098 76.0848 95.4214C75.8911 95.0947 75.8249 94.6845 75.6926 93.8642L73.051 77.4861Z" fill="#FFB764"/>
<path d="M281.151 278.879C281.517 280.329 281.7 281.055 281.517 281.608C281.356 282.093 281.016 282.497 280.567 282.739C280.054 283.016 279.308 282.962 277.816 282.853L261.27 281.649C260.441 281.589 260.027 281.559 259.684 281.394C259.382 281.249 259.121 281.03 258.926 280.757C258.704 280.449 258.603 280.046 258.399 279.24L254.34 263.155C253.974 261.704 253.791 260.979 253.974 260.425C254.135 259.941 254.475 259.536 254.924 259.294C255.437 259.017 256.183 259.072 257.675 259.18L274.221 260.384C275.05 260.445 275.464 260.475 275.807 260.639C276.109 260.785 276.37 261.004 276.565 261.276C276.787 261.585 276.888 261.987 277.092 262.793L281.151 278.879Z" fill="#FFB764"/>
<path d="M76.9366 282.853C75.4443 282.962 74.6981 283.016 74.1851 282.74C73.7359 282.497 73.3964 282.093 73.2358 281.608C73.0525 281.055 73.2355 280.33 73.6016 278.879L77.6607 262.793C77.864 261.988 77.9656 261.585 78.187 261.276C78.3826 261.004 78.6434 260.785 78.9457 260.64C79.288 260.475 79.7024 260.445 80.5311 260.385L97.0772 259.18C98.5695 259.072 99.3157 259.018 99.8287 259.294C100.278 259.536 100.617 259.941 100.778 260.425C100.961 260.979 100.778 261.704 100.412 263.155L96.3532 279.241C96.1498 280.046 96.0482 280.449 95.8268 280.758C95.6313 281.03 95.3704 281.249 95.0681 281.394C94.7258 281.559 94.3114 281.589 93.4827 281.649L76.9366 282.853Z" fill="#FFB764"/>
<g filter="url(#filter0_d)">
<path d="M266.5 266.5C218.175 314.825 139.825 314.825 91.5 266.5C43.1751 218.175 43.1751 139.825 91.5 91.5C139.825 43.1751 218.175 43.1751 266.5 91.5C314.825 139.825 314.825 218.175 266.5 266.5ZM106.77 106.77C66.8785 146.662 66.8785 211.338 106.77 251.23C146.662 291.121 211.338 291.121 251.23 251.23C291.121 211.338 291.121 146.662 251.23 106.77C211.338 66.8785 146.662 66.8785 106.77 106.77Z" fill="#545454"/>
</g>
<g filter="url(#filter1_d)">
<path d="M177.636 62.5445C178.487 60.8439 181.888 60.8439 182.738 62.5445L239.713 174.793C241.414 179.045 240.563 183.297 239.713 184.997L182.738 295.545C181.038 298.096 179.337 298.096 177.636 295.545L119.811 184.997C118.113 180.746 118.113 179.045 119.811 174.793L177.636 62.5445Z" fill="url(#paint0_linear)"/>
</g>
<circle cx="179.764" cy="178.62" r="26.2117" fill="white" stroke="url(#paint1_linear)" stroke-width="2"/>
<defs>
<filter id="filter0_d" x="0" y="0" width="358" height="358" filterUnits="userSpaceOnUse" color-interpolation-filters="sRGB">
<feFlood flood-opacity="0" result="BackgroundImageFix"/>
<feColorMatrix in="SourceAlpha" type="matrix" values="0 0 0 0 0 0 0 0 0 0 0 0 0 0 0 0 0 0 127 0"/>
<feOffset/>
<feGaussianBlur stdDeviation="2"/>
<feColorMatrix type="matrix" values="0 0 0 0 0 0 0 0 0 0 0 0 0 0 0 0 0 0 0.25 0"/>
<feBlend mode="normal" in2="BackgroundImageFix" result="effect1_dropShadow"/>
<feBlend mode="normal" in="SourceGraphic" in2="effect1_dropShadow" result="shape"/>
</filter>
<filter id="filter1_d" x="113.538" y="56.269" width="132.157" height="246.189" filterUnits="userSpaceOnUse" color-interpolation-filters="sRGB">
<feFlood flood-opacity="0" result="BackgroundImageFix"/>
<feColorMatrix in="SourceAlpha" type="matrix" values="0 0 0 0 0 0 0 0 0 0 0 0 0 0 0 0 0 0 127 0"/>
<feOffset/>
<feGaussianBlur stdDeviation="2.5"/>
<feColorMatrix type="matrix" values="0 0 0 0 0 0 0 0 0 0 0 0 0 0 0 0 0 0 0.25 0"/>
<feBlend mode="normal" in2="BackgroundImageFix" result="effect1_dropShadow"/>
<feBlend mode="normal" in="SourceGraphic" in2="effect1_dropShadow" result="shape"/>
</filter>
<linearGradient id="paint0_linear" x1="143.155" y1="69.9899" x2="306.767" y2="226.843" gradientUnits="userSpaceOnUse">
<stop stop-color="#537AE0"/>
<stop offset="1" stop-color="#0AA7E9"/>
</linearGradient>
<linearGradient id="paint1_linear" x1="152.552" y1="178.62" x2="206.976" y2="178.62" gradientUnits="userSpaceOnUse">
<stop stop-color="#FFB764" stop-opacity="0"/>
<stop offset="0.481248" stop-color="#FFB764"/>
<stop offset="1" stop-color="#FFB764" stop-opacity="0"/>
</linearGradient>
</defs>
</svg>
