<svg width="43" height="38" viewBox="0 0 43 38" fill="none" xmlns="http://www.w3.org/2000/svg">
<path d="M2.98023e-08 25.16V3.88C2.98023e-08 3.69333 1.52 3.04 4.56 1.92C7.6 0.773331 9.34667 0.199998 9.8 0.199998C10.2533 0.199998 10.9333 0.746665 11.84 1.84C12.7733 2.93333 13.24 3.92 13.24 4.8V27.28C13.24 27.4933 12.16 28.0267 10 28.88C11.68 32.4533 13.5067 34.24 15.48 34.24V35.4C13.1067 37 11.5333 37.8 10.76 37.8C9.69333 37.8 8.09333 35.32 5.96 30.36C4.76 30.7867 3.97333 31 3.6 31C2.88 31 2.09333 30.4267 1.24 29.28C0.413333 28.1333 2.98023e-08 26.76 2.98023e-08 25.16ZM6.84 27.32C7.34667 27.32 7.86667 27.1067 8.4 26.68V6.88C8.4 4.90666 7.72 3.92 6.36 3.92C5.82667 3.92 5.30667 4.12 4.8 4.52V24.36C4.8 26.3333 5.48 27.32 6.84 27.32ZM19.2266 26.92V6.72C19.2266 5.84 19.0399 5.08 18.6666 4.44C18.2932 3.8 17.8266 3.48 17.2666 3.48V2.6C17.4532 2.57333 18.9066 1.76 21.6266 0.159999C21.8132 0.213332 22.0399 0.293331 22.3066 0.399998C22.5732 0.479999 22.9199 0.733332 23.3466 1.16C23.7999 1.58667 24.0266 2.08 24.0266 2.64C24.1866 2.56 24.6399 2.30667 25.3866 1.88C27.3599 0.759998 28.5732 0.199998 29.0266 0.199998C29.5066 0.199998 30.0266 0.439998 30.5866 0.919999C31.1732 1.4 31.6132 1.97333 31.9066 2.64C31.9599 2.61333 32.5066 2.33333 33.5466 1.8C35.6266 0.733332 36.8799 0.199998 37.3066 0.199998C38.1599 0.199998 38.9599 0.759998 39.7066 1.88C40.4532 3 40.8266 4.02667 40.8266 4.96V25.08C40.8266 26.5467 41.4799 27.4133 42.7866 27.68V28.56L38.4266 31C37.8399 30.76 37.2932 30.3733 36.7866 29.84C36.2799 29.28 36.0266 28.76 36.0266 28.28V8.68C36.0266 7.08 35.7599 5.97333 35.2266 5.36C34.7199 4.72 33.7866 4.37333 32.4266 4.32V25.08C32.4266 26.5467 33.0799 27.4133 34.3866 27.68V28.56L30.0266 31C29.4399 30.76 28.8932 30.3733 28.3866 29.84C27.8799 29.28 27.6266 28.76 27.6266 28.28V8.68C27.6266 7 27.3732 5.85333 26.8666 5.24C26.3866 4.62666 25.4399 4.32 24.0266 4.32V24.84C24.0266 25.8267 24.1332 26.5333 24.3466 26.96C24.5599 27.3867 24.9999 27.6 25.6666 27.6V28.84L17.4666 32.28L16.8266 31C17.4132 31 17.9732 30.6533 18.5066 29.96C18.9866 29.2933 19.2266 28.28 19.2266 26.92Z" fill="#376CF6"/>
</svg>
