<svg width="126" height="144" viewBox="0 0 126 144" fill="none" xmlns="http://www.w3.org/2000/svg">
<g filter="url(#filter0_ii)">
<path d="M57.1419 87.7194C56.7984 82.6507 59.0995 80.8799 62.2987 77.582C63.3303 83.0128 69.4269 85.6621 69.5182 88.8055C69.6515 93.3997 65.0489 94.9604 64.3614 99.3049C59.5484 96.4086 57.4363 92.064 57.1419 87.7194Z" fill="#FA8D0F"/>
</g>
<g filter="url(#filter1_ii)">
<path d="M66.4265 99.098C66.3406 100.365 66.9159 100.808 67.7157 101.632C67.9736 100.275 69.4977 99.6123 69.5205 98.8264C69.5539 97.6779 68.4032 97.2877 68.2313 96.2016C67.1938 98.5291 66.5001 98.0118 66.4265 99.098Z" fill="#FA8D0F"/>
</g>
<g filter="url(#filter2_ii)">
<path d="M52.4611 84.7714C52.3753 83.5042 52.9505 83.0615 53.7503 82.2371C54.0082 83.5947 55.5324 84.2571 55.5552 85.0429C55.5885 86.1915 54.4379 86.5816 54.266 87.6678C53.2285 85.3403 52.5347 85.8575 52.4611 84.7714Z" fill="#FA8D0F"/>
</g>
<path d="M93.8085 112.731C76.5389 130 48.5393 130 31.2696 112.731C14 95.461 14 67.4614 31.2696 50.1918C48.5393 32.9222 76.5389 32.9222 93.8085 50.1918C111.078 67.4614 111.078 95.461 93.8085 112.731ZM36.7266 55.6488C22.4708 69.9046 22.4708 93.0178 36.7266 107.274C50.9824 121.529 74.0957 121.529 88.3515 107.274C102.607 93.0178 102.607 69.9046 88.3515 55.6488C74.0957 41.3929 50.9824 41.3929 36.7266 55.6488Z" fill="#545454"/>
<path d="M76.1821 75.4923C75.5747 74.8845 75.5748 73.366 76.1821 72.1497C76.7895 70.9333 83.4755 57.8668 83.4755 57.8668C83.7794 57.2591 84.6911 57.2588 85.2989 57.8668C93.6117 64.685 95.4686 69.9999 92.5922 82.7858C92.2883 84.0012 90.465 83.3934 89.2494 82.7858C89.2494 82.7858 76.7896 76.1 76.1821 75.4923Z" fill="url(#paint0_linear)"/>
<path d="M49.957 75.4923C50.5645 74.8845 50.5644 73.366 49.957 72.1497C49.3497 70.9333 42.6637 57.8668 42.6637 57.8668C42.3598 57.2591 41.4481 57.2588 40.8403 57.8668C32.5275 64.685 30.6706 69.9999 33.5469 82.7858C33.8508 84.0012 35.6742 83.3934 36.8897 82.7858C36.8897 82.7858 49.3496 76.1 49.957 75.4923Z" fill="url(#paint1_linear)"/>
<path d="M61.1588 0.455794C61.4627 -0.151923 62.6783 -0.151939 62.9822 0.455794L83.3429 40.5694C83.9506 42.0889 83.6468 43.6083 83.3429 44.2161L62.9822 83.722C62.3744 84.6336 61.7666 84.6336 61.1588 83.722L40.4942 44.2161C39.8874 42.6967 39.8873 42.0889 40.4942 40.5694L61.1588 0.455794Z" fill="url(#paint2_linear)"/>
<circle cx="61.9193" cy="41.9372" r="9.22451" fill="white" stroke="url(#paint3_linear)"/>
<path d="M120.726 81.4609L105.597 90.1953L105.597 72.7265L120.726 81.4609Z" fill="#545454"/>
<path d="M4.35205 81.4607L19.4805 72.7263L19.4805 90.1952L4.35205 81.4607Z" fill="#545454"/>
<path d="M62.5394 139.647L53.8049 124.519H71.2738L62.5394 139.647Z" fill="#545454"/>
<defs>
<filter id="filter0_ii" x="56.6079" y="76.082" width="12.9131" height="24.2229" filterUnits="userSpaceOnUse" color-interpolation-filters="sRGB">
<feFlood flood-opacity="0" result="BackgroundImageFix"/>
<feBlend mode="normal" in="SourceGraphic" in2="BackgroundImageFix" result="shape"/>
<feColorMatrix in="SourceAlpha" type="matrix" values="0 0 0 0 0 0 0 0 0 0 0 0 0 0 0 0 0 0 127 0" result="hardAlpha"/>
<feOffset dy="1"/>
<feGaussianBlur stdDeviation="0.5"/>
<feComposite in2="hardAlpha" operator="arithmetic" k2="-1" k3="1"/>
<feColorMatrix type="matrix" values="0 0 0 0 1 0 0 0 0 0.747547 0 0 0 0 0.456525 0 0 0 1 0"/>
<feBlend mode="normal" in2="shape" result="effect1_innerShadow"/>
<feColorMatrix in="SourceAlpha" type="matrix" values="0 0 0 0 0 0 0 0 0 0 0 0 0 0 0 0 0 0 127 0" result="hardAlpha"/>
<feOffset dx="-0.5" dy="-2.75"/>
<feGaussianBlur stdDeviation="0.75"/>
<feComposite in2="hardAlpha" operator="arithmetic" k2="-1" k3="1"/>
<feColorMatrix type="matrix" values="0 0 0 0 0.972549 0 0 0 0 0.435294 0 0 0 0 0.105882 0 0 0 1 0"/>
<feBlend mode="normal" in2="effect1_innerShadow" result="effect2_innerShadow"/>
</filter>
<filter id="filter1_ii" x="66.068" y="95.7017" width="3.45327" height="6.43073" filterUnits="userSpaceOnUse" color-interpolation-filters="sRGB">
<feFlood flood-opacity="0" result="BackgroundImageFix"/>
<feBlend mode="normal" in="SourceGraphic" in2="BackgroundImageFix" result="shape"/>
<feColorMatrix in="SourceAlpha" type="matrix" values="0 0 0 0 0 0 0 0 0 0 0 0 0 0 0 0 0 0 127 0" result="hardAlpha"/>
<feOffset dy="0.5"/>
<feGaussianBlur stdDeviation="0.5"/>
<feComposite in2="hardAlpha" operator="arithmetic" k2="-1" k3="1"/>
<feColorMatrix type="matrix" values="0 0 0 0 1 0 0 0 0 0.747547 0 0 0 0 0.456525 0 0 0 1 0"/>
<feBlend mode="normal" in2="shape" result="effect1_innerShadow"/>
<feColorMatrix in="SourceAlpha" type="matrix" values="0 0 0 0 0 0 0 0 0 0 0 0 0 0 0 0 0 0 127 0" result="hardAlpha"/>
<feOffset dx="-0.35" dy="-0.5"/>
<feGaussianBlur stdDeviation="0.25"/>
<feComposite in2="hardAlpha" operator="arithmetic" k2="-1" k3="1"/>
<feColorMatrix type="matrix" values="0 0 0 0 0.972549 0 0 0 0 0.435294 0 0 0 0 0.105882 0 0 0 1 0"/>
<feBlend mode="normal" in2="effect1_innerShadow" result="effect2_innerShadow"/>
</filter>
<filter id="filter2_ii" x="52.1026" y="81.7371" width="3.45327" height="6.43073" filterUnits="userSpaceOnUse" color-interpolation-filters="sRGB">
<feFlood flood-opacity="0" result="BackgroundImageFix"/>
<feBlend mode="normal" in="SourceGraphic" in2="BackgroundImageFix" result="shape"/>
<feColorMatrix in="SourceAlpha" type="matrix" values="0 0 0 0 0 0 0 0 0 0 0 0 0 0 0 0 0 0 127 0" result="hardAlpha"/>
<feOffset dy="0.5"/>
<feGaussianBlur stdDeviation="0.5"/>
<feComposite in2="hardAlpha" operator="arithmetic" k2="-1" k3="1"/>
<feColorMatrix type="matrix" values="0 0 0 0 1 0 0 0 0 0.747547 0 0 0 0 0.456525 0 0 0 1 0"/>
<feBlend mode="normal" in2="shape" result="effect1_innerShadow"/>
<feColorMatrix in="SourceAlpha" type="matrix" values="0 0 0 0 0 0 0 0 0 0 0 0 0 0 0 0 0 0 127 0" result="hardAlpha"/>
<feOffset dx="-0.35" dy="-0.5"/>
<feGaussianBlur stdDeviation="0.25"/>
<feComposite in2="hardAlpha" operator="arithmetic" k2="-1" k3="1"/>
<feColorMatrix type="matrix" values="0 0 0 0 0.972549 0 0 0 0 0.435294 0 0 0 0 0.105882 0 0 0 1 0"/>
<feBlend mode="normal" in2="effect1_innerShadow" result="effect2_innerShadow"/>
</filter>
<linearGradient id="paint0_linear" x1="79.3805" y1="58.3737" x2="96.8934" y2="80.9456" gradientUnits="userSpaceOnUse">
<stop stop-color="#537AE0"/>
<stop offset="1" stop-color="#0AA7E9"/>
</linearGradient>
<linearGradient id="paint1_linear" x1="46.7586" y1="58.3737" x2="29.2458" y2="80.9456" gradientUnits="userSpaceOnUse">
<stop stop-color="#537AE0"/>
<stop offset="1" stop-color="#0AA7E9"/>
</linearGradient>
<linearGradient id="paint2_linear" x1="48.8364" y1="3.11652" x2="107.306" y2="59.1704" gradientUnits="userSpaceOnUse">
<stop stop-color="#537AE0"/>
<stop offset="1" stop-color="#0AA7E9"/>
</linearGradient>
<linearGradient id="paint3_linear" x1="52.1948" y1="41.9372" x2="71.6439" y2="41.9372" gradientUnits="userSpaceOnUse">
<stop stop-color="#FFB764" stop-opacity="0"/>
<stop offset="0.481248" stop-color="#FFB764"/>
<stop offset="1" stop-color="#FFB764" stop-opacity="0"/>
</linearGradient>
</defs>
</svg>
