<svg width="134" height="152" viewBox="0 0 134 152" fill="none" xmlns="http://www.w3.org/2000/svg">
<g filter="url(#filter0_d)">
<g filter="url(#filter1_ii)">
<path d="M61.1419 87.7194C60.7984 82.6507 63.0995 80.8799 66.2987 77.582C67.3303 83.0128 73.4269 85.6621 73.5182 88.8055C73.6515 93.3997 69.0489 94.9604 68.3614 99.3049C63.5484 96.4086 61.4363 92.064 61.1419 87.7194Z" fill="#FA8D0F"/>
</g>
<g filter="url(#filter2_ii)">
<path d="M70.4265 99.098C70.3406 100.365 70.9159 100.808 71.7157 101.632C71.9736 100.275 73.4977 99.6123 73.5205 98.8264C73.5539 97.6779 72.4032 97.2877 72.2313 96.2016C71.1938 98.5291 70.5001 98.0118 70.4265 99.098Z" fill="#FA8D0F"/>
</g>
<g filter="url(#filter3_ii)">
<path d="M56.4611 84.7714C56.3753 83.5042 56.9505 83.0615 57.7503 82.2371C58.0082 83.5947 59.5324 84.2571 59.5552 85.0429C59.5885 86.1915 58.4379 86.5816 58.266 87.6678C57.2285 85.3403 56.5347 85.8575 56.4611 84.7714Z" fill="#FA8D0F"/>
</g>
<path d="M97.8085 112.731C80.5389 130 52.5393 130 35.2696 112.731C18 95.461 18 67.4614 35.2696 50.1918C52.5393 32.9222 80.5389 32.9222 97.8085 50.1918C115.078 67.4614 115.078 95.461 97.8085 112.731ZM40.7266 55.6488C26.4708 69.9046 26.4708 93.0178 40.7266 107.274C54.9824 121.529 78.0957 121.529 92.3515 107.274C106.607 93.0178 106.607 69.9046 92.3515 55.6488C78.0957 41.3929 54.9824 41.3929 40.7266 55.6488Z" fill="#545454"/>
<path d="M80.1821 75.4923C79.5747 74.8845 79.5748 73.366 80.1821 72.1497C80.7895 70.9333 87.4755 57.8668 87.4755 57.8668C87.7794 57.2591 88.6911 57.2588 89.2989 57.8668C97.6117 64.685 99.4686 69.9999 96.5922 82.7858C96.2883 84.0012 94.465 83.3934 93.2494 82.7858C93.2494 82.7858 80.7896 76.1 80.1821 75.4923Z" fill="url(#paint0_linear)"/>
<path d="M53.957 75.4923C54.5645 74.8845 54.5644 73.366 53.957 72.1497C53.3497 70.9333 46.6637 57.8668 46.6637 57.8668C46.3598 57.2591 45.4481 57.2588 44.8403 57.8668C36.5275 64.685 34.6706 69.9999 37.5469 82.7858C37.8508 84.0012 39.6742 83.3934 40.8897 82.7858C40.8897 82.7858 53.3496 76.1 53.957 75.4923Z" fill="url(#paint1_linear)"/>
<path d="M65.1588 0.455794C65.4627 -0.151923 66.6783 -0.151939 66.9822 0.455794L87.3429 40.5694C87.9506 42.0889 87.6468 43.6083 87.3429 44.2161L66.9822 83.722C66.3744 84.6336 65.7666 84.6336 65.1588 83.722L44.4942 44.2161C43.8874 42.6967 43.8873 42.0889 44.4942 40.5694L65.1588 0.455794Z" fill="url(#paint2_linear)"/>
<circle cx="65.9193" cy="41.9372" r="9.22451" fill="white" stroke="url(#paint3_linear)"/>
<path d="M124.726 81.4609L109.597 90.1953L109.597 72.7265L124.726 81.4609Z" fill="#545454"/>
<path d="M8.35205 81.4607L23.4805 72.7263L23.4805 90.1952L8.35205 81.4607Z" fill="#545454"/>
<path d="M66.5394 139.647L57.8049 124.519H75.2738L66.5394 139.647Z" fill="#545454"/>
</g>
<defs>
<filter id="filter0_d" x="0" y="0" width="133.078" height="152" filterUnits="userSpaceOnUse" color-interpolation-filters="sRGB">
<feFlood flood-opacity="0" result="BackgroundImageFix"/>
<feColorMatrix in="SourceAlpha" type="matrix" values="0 0 0 0 0 0 0 0 0 0 0 0 0 0 0 0 0 0 127 0"/>
<feOffset dy="4"/>
<feGaussianBlur stdDeviation="2"/>
<feColorMatrix type="matrix" values="0 0 0 0 0 0 0 0 0 0 0 0 0 0 0 0 0 0 0.25 0"/>
<feBlend mode="normal" in2="BackgroundImageFix" result="effect1_dropShadow"/>
<feBlend mode="normal" in="SourceGraphic" in2="effect1_dropShadow" result="shape"/>
</filter>
<filter id="filter1_ii" x="60.6079" y="76.082" width="12.9131" height="24.2229" filterUnits="userSpaceOnUse" color-interpolation-filters="sRGB">
<feFlood flood-opacity="0" result="BackgroundImageFix"/>
<feBlend mode="normal" in="SourceGraphic" in2="BackgroundImageFix" result="shape"/>
<feColorMatrix in="SourceAlpha" type="matrix" values="0 0 0 0 0 0 0 0 0 0 0 0 0 0 0 0 0 0 127 0" result="hardAlpha"/>
<feOffset dy="1"/>
<feGaussianBlur stdDeviation="0.5"/>
<feComposite in2="hardAlpha" operator="arithmetic" k2="-1" k3="1"/>
<feColorMatrix type="matrix" values="0 0 0 0 1 0 0 0 0 0.747547 0 0 0 0 0.456525 0 0 0 1 0"/>
<feBlend mode="normal" in2="shape" result="effect1_innerShadow"/>
<feColorMatrix in="SourceAlpha" type="matrix" values="0 0 0 0 0 0 0 0 0 0 0 0 0 0 0 0 0 0 127 0" result="hardAlpha"/>
<feOffset dx="-0.5" dy="-2.75"/>
<feGaussianBlur stdDeviation="0.75"/>
<feComposite in2="hardAlpha" operator="arithmetic" k2="-1" k3="1"/>
<feColorMatrix type="matrix" values="0 0 0 0 0.972549 0 0 0 0 0.435294 0 0 0 0 0.105882 0 0 0 1 0"/>
<feBlend mode="normal" in2="effect1_innerShadow" result="effect2_innerShadow"/>
</filter>
<filter id="filter2_ii" x="70.068" y="95.7017" width="3.45327" height="6.43073" filterUnits="userSpaceOnUse" color-interpolation-filters="sRGB">
<feFlood flood-opacity="0" result="BackgroundImageFix"/>
<feBlend mode="normal" in="SourceGraphic" in2="BackgroundImageFix" result="shape"/>
<feColorMatrix in="SourceAlpha" type="matrix" values="0 0 0 0 0 0 0 0 0 0 0 0 0 0 0 0 0 0 127 0" result="hardAlpha"/>
<feOffset dy="0.5"/>
<feGaussianBlur stdDeviation="0.5"/>
<feComposite in2="hardAlpha" operator="arithmetic" k2="-1" k3="1"/>
<feColorMatrix type="matrix" values="0 0 0 0 1 0 0 0 0 0.747547 0 0 0 0 0.456525 0 0 0 1 0"/>
<feBlend mode="normal" in2="shape" result="effect1_innerShadow"/>
<feColorMatrix in="SourceAlpha" type="matrix" values="0 0 0 0 0 0 0 0 0 0 0 0 0 0 0 0 0 0 127 0" result="hardAlpha"/>
<feOffset dx="-0.35" dy="-0.5"/>
<feGaussianBlur stdDeviation="0.25"/>
<feComposite in2="hardAlpha" operator="arithmetic" k2="-1" k3="1"/>
<feColorMatrix type="matrix" values="0 0 0 0 0.972549 0 0 0 0 0.435294 0 0 0 0 0.105882 0 0 0 1 0"/>
<feBlend mode="normal" in2="effect1_innerShadow" result="effect2_innerShadow"/>
</filter>
<filter id="filter3_ii" x="56.1026" y="81.7371" width="3.45327" height="6.43073" filterUnits="userSpaceOnUse" color-interpolation-filters="sRGB">
<feFlood flood-opacity="0" result="BackgroundImageFix"/>
<feBlend mode="normal" in="SourceGraphic" in2="BackgroundImageFix" result="shape"/>
<feColorMatrix in="SourceAlpha" type="matrix" values="0 0 0 0 0 0 0 0 0 0 0 0 0 0 0 0 0 0 127 0" result="hardAlpha"/>
<feOffset dy="0.5"/>
<feGaussianBlur stdDeviation="0.5"/>
<feComposite in2="hardAlpha" operator="arithmetic" k2="-1" k3="1"/>
<feColorMatrix type="matrix" values="0 0 0 0 1 0 0 0 0 0.747547 0 0 0 0 0.456525 0 0 0 1 0"/>
<feBlend mode="normal" in2="shape" result="effect1_innerShadow"/>
<feColorMatrix in="SourceAlpha" type="matrix" values="0 0 0 0 0 0 0 0 0 0 0 0 0 0 0 0 0 0 127 0" result="hardAlpha"/>
<feOffset dx="-0.35" dy="-0.5"/>
<feGaussianBlur stdDeviation="0.25"/>
<feComposite in2="hardAlpha" operator="arithmetic" k2="-1" k3="1"/>
<feColorMatrix type="matrix" values="0 0 0 0 0.972549 0 0 0 0 0.435294 0 0 0 0 0.105882 0 0 0 1 0"/>
<feBlend mode="normal" in2="effect1_innerShadow" result="effect2_innerShadow"/>
</filter>
<linearGradient id="paint0_linear" x1="83.3805" y1="58.3737" x2="100.893" y2="80.9456" gradientUnits="userSpaceOnUse">
<stop stop-color="#537AE0"/>
<stop offset="1" stop-color="#0AA7E9"/>
</linearGradient>
<linearGradient id="paint1_linear" x1="50.7586" y1="58.3737" x2="33.2458" y2="80.9456" gradientUnits="userSpaceOnUse">
<stop stop-color="#537AE0"/>
<stop offset="1" stop-color="#0AA7E9"/>
</linearGradient>
<linearGradient id="paint2_linear" x1="52.8364" y1="3.11652" x2="111.306" y2="59.1704" gradientUnits="userSpaceOnUse">
<stop stop-color="#537AE0"/>
<stop offset="1" stop-color="#0AA7E9"/>
</linearGradient>
<linearGradient id="paint3_linear" x1="56.1948" y1="41.9372" x2="75.6439" y2="41.9372" gradientUnits="userSpaceOnUse">
<stop stop-color="#FFB764" stop-opacity="0"/>
<stop offset="0.481248" stop-color="#FFB764"/>
<stop offset="1" stop-color="#FFB764" stop-opacity="0"/>
</linearGradient>
</defs>
</svg>
