<svg width="255" height="78" viewBox="0 0 255 78" fill="none" xmlns="http://www.w3.org/2000/svg">
<path d="M26.08 64.08C25.76 63.344 25.2693 62.768 24.608 62.352C23.9573 61.9253 23.1893 61.712 22.304 61.712C21.472 61.712 20.7253 61.904 20.064 62.288C19.4027 62.672 18.88 63.2213 18.496 63.936C18.112 64.64 17.92 65.4613 17.92 66.4C17.92 67.3387 18.112 68.1653 18.496 68.88C18.88 69.5947 19.4027 70.144 20.064 70.528C20.7253 70.912 21.472 71.104 22.304 71.104C23.0827 71.104 23.7813 70.9387 24.4 70.608C25.0293 70.2667 25.5307 69.7867 25.904 69.168C26.288 68.5387 26.5067 67.808 26.56 66.976H21.856V66.064H27.744V66.88C27.6907 67.8613 27.424 68.752 26.944 69.552C26.464 70.3413 25.8187 70.9653 25.008 71.424C24.208 71.8827 23.3067 72.112 22.304 72.112C21.2693 72.112 20.3307 71.872 19.488 71.392C18.6453 70.9013 17.9787 70.224 17.488 69.36C17.008 68.4853 16.768 67.4987 16.768 66.4C16.768 65.3013 17.008 64.32 17.488 63.456C17.9787 62.5813 18.6453 61.904 19.488 61.424C20.3307 60.9333 21.2693 60.688 22.304 60.688C23.4987 60.688 24.544 60.9867 25.44 61.584C26.336 62.1813 26.9867 63.0133 27.392 64.08H26.08ZM37.8436 63.264V72H36.7236V70.464C36.4676 71.008 36.073 71.424 35.5396 71.712C35.0063 72 34.409 72.144 33.7476 72.144C32.7023 72.144 31.849 71.824 31.1876 71.184C30.5263 70.5333 30.1956 69.5947 30.1956 68.368V63.264H31.2996V68.24C31.2996 69.1893 31.5343 69.9147 32.0036 70.416C32.4836 70.9173 33.1343 71.168 33.9556 71.168C34.7983 71.168 35.4703 70.9013 35.9716 70.368C36.473 69.8347 36.7236 69.0507 36.7236 68.016V63.264H37.8436ZM41.4406 61.616C41.2166 61.616 41.0246 61.536 40.8646 61.376C40.7046 61.216 40.6246 61.0187 40.6246 60.784C40.6246 60.5493 40.7046 60.3573 40.8646 60.208C41.0246 60.048 41.2166 59.968 41.4406 59.968C41.6646 59.968 41.8566 60.048 42.0166 60.208C42.1766 60.3573 42.2566 60.5493 42.2566 60.784C42.2566 61.0187 42.1766 61.216 42.0166 61.376C41.8566 61.536 41.6646 61.616 41.4406 61.616ZM42.0006 63.264V72H40.8806V63.264H42.0006ZM44.5049 67.616C44.5049 66.72 44.6862 65.936 45.0489 65.264C45.4115 64.5813 45.9075 64.0587 46.5369 63.696C47.1769 63.3227 47.8969 63.136 48.6969 63.136C49.4649 63.136 50.1582 63.3227 50.7769 63.696C51.3955 64.0693 51.8489 64.5547 52.1369 65.152V60.16H53.2569V72H52.1369V70.048C51.8702 70.656 51.4329 71.1573 50.8249 71.552C50.2169 71.936 49.5022 72.128 48.6809 72.128C47.8809 72.128 47.1609 71.9413 46.5209 71.568C45.8915 71.1947 45.3955 70.6667 45.0329 69.984C44.6809 69.3013 44.5049 68.512 44.5049 67.616ZM52.1369 67.632C52.1369 66.928 51.9929 66.3093 51.7049 65.776C51.4169 65.2427 51.0222 64.832 50.5209 64.544C50.0302 64.256 49.4862 64.112 48.8889 64.112C48.2702 64.112 47.7155 64.2507 47.2249 64.528C46.7342 64.8053 46.3449 65.2107 46.0569 65.744C45.7795 66.2667 45.6409 66.8907 45.6409 67.616C45.6409 68.3307 45.7795 68.96 46.0569 69.504C46.3449 70.0373 46.7342 70.448 47.2249 70.736C47.7155 71.0133 48.2702 71.152 48.8889 71.152C49.4862 71.152 50.0302 71.008 50.5209 70.72C51.0222 70.432 51.4169 70.0213 51.7049 69.488C51.9929 68.9547 52.1369 68.336 52.1369 67.632ZM56.8537 61.616C56.6297 61.616 56.4377 61.536 56.2777 61.376C56.1177 61.216 56.0377 61.0187 56.0377 60.784C56.0377 60.5493 56.1177 60.3573 56.2777 60.208C56.4377 60.048 56.6297 59.968 56.8537 59.968C57.0777 59.968 57.2697 60.048 57.4297 60.208C57.5897 60.3573 57.6697 60.5493 57.6697 60.784C57.6697 61.0187 57.5897 61.216 57.4297 61.376C57.2697 61.536 57.0777 61.616 56.8537 61.616ZM57.4137 63.264V72H56.2937V63.264H57.4137ZM64.526 63.104C65.5713 63.104 66.4247 63.4293 67.086 64.08C67.7473 64.72 68.078 65.6533 68.078 66.88V72H66.974V67.008C66.974 66.0587 66.734 65.3333 66.254 64.832C65.7847 64.3307 65.1393 64.08 64.318 64.08C63.4753 64.08 62.8033 64.3467 62.302 64.88C61.8007 65.4133 61.55 66.1973 61.55 67.232V72H60.43V63.264H61.55V64.752C61.8273 64.2187 62.2273 63.8133 62.75 63.536C63.2727 63.248 63.8647 63.104 64.526 63.104ZM74.699 63.136C75.5203 63.136 76.235 63.328 76.843 63.712C77.451 64.096 77.8883 64.5813 78.155 65.168V63.264H79.275V72.224C79.275 73.024 79.099 73.7333 78.747 74.352C78.4057 74.9707 77.9257 75.4453 77.307 75.776C76.6883 76.1173 75.9843 76.288 75.195 76.288C74.075 76.288 73.1417 76.0213 72.395 75.488C71.659 74.9547 71.2003 74.2293 71.019 73.312H72.123C72.315 73.92 72.6777 74.4053 73.211 74.768C73.755 75.1307 74.4163 75.312 75.195 75.312C75.7603 75.312 76.267 75.1893 76.715 74.944C77.163 74.7093 77.515 74.3573 77.771 73.888C78.027 73.4187 78.155 72.864 78.155 72.224V70.064C77.8777 70.6613 77.435 71.1573 76.827 71.552C76.2297 71.936 75.5203 72.128 74.699 72.128C73.899 72.128 73.179 71.9413 72.539 71.568C71.9097 71.1947 71.4137 70.6667 71.051 69.984C70.699 69.3013 70.523 68.512 70.523 67.616C70.523 66.72 70.699 65.936 71.051 65.264C71.4137 64.5813 71.9097 64.0587 72.539 63.696C73.179 63.3227 73.899 63.136 74.699 63.136ZM78.155 67.632C78.155 66.928 78.011 66.3093 77.723 65.776C77.435 65.2427 77.0403 64.832 76.539 64.544C76.0483 64.256 75.5043 64.112 74.907 64.112C74.2883 64.112 73.7337 64.2507 73.243 64.528C72.7523 64.8053 72.363 65.2107 72.075 65.744C71.7977 66.2667 71.659 66.8907 71.659 67.616C71.659 68.3307 71.7977 68.96 72.075 69.504C72.363 70.0373 72.7523 70.448 73.243 70.736C73.7337 71.0133 74.2883 71.152 74.907 71.152C75.5043 71.152 76.0483 71.008 76.539 70.72C77.0403 70.432 77.435 70.0213 77.723 69.488C78.011 68.9547 78.155 68.336 78.155 67.632ZM94.3825 63.264L89.1985 76.112H88.0305L89.7265 71.952L86.1425 63.264H87.3745L90.3505 70.72L93.2305 63.264H94.3825ZM100.205 72.128C99.3839 72.128 98.6426 71.9467 97.9812 71.584C97.3306 71.2107 96.8132 70.688 96.4292 70.016C96.0559 69.3333 95.8692 68.5387 95.8692 67.632C95.8692 66.7253 96.0612 65.936 96.4452 65.264C96.8292 64.5813 97.3519 64.0587 98.0132 63.696C98.6746 63.3227 99.4159 63.136 100.237 63.136C101.059 63.136 101.8 63.3227 102.461 63.696C103.133 64.0587 103.656 64.5813 104.029 65.264C104.413 65.936 104.605 66.7253 104.605 67.632C104.605 68.528 104.413 69.3173 104.029 70C103.645 70.6827 103.117 71.2107 102.445 71.584C101.773 71.9467 101.027 72.128 100.205 72.128ZM100.205 71.152C100.781 71.152 101.315 71.024 101.805 70.768C102.296 70.5013 102.691 70.1067 102.989 69.584C103.299 69.0507 103.453 68.4 103.453 67.632C103.453 66.864 103.304 66.2187 103.005 65.696C102.707 65.1627 102.312 64.768 101.821 64.512C101.331 64.2453 100.797 64.112 100.221 64.112C99.6452 64.112 99.1119 64.2453 98.6212 64.512C98.1306 64.768 97.7359 65.1627 97.4372 65.696C97.1492 66.2187 97.0052 66.864 97.0052 67.632C97.0052 68.4 97.1492 69.0507 97.4372 69.584C97.7359 70.1067 98.1252 70.5013 98.6052 70.768C99.0959 71.024 99.6292 71.152 100.205 71.152ZM114.695 63.264V72H113.575V70.464C113.319 71.008 112.924 71.424 112.391 71.712C111.858 72 111.26 72.144 110.599 72.144C109.554 72.144 108.7 71.824 108.039 71.184C107.378 70.5333 107.047 69.5947 107.047 68.368V63.264H108.151V68.24C108.151 69.1893 108.386 69.9147 108.855 70.416C109.335 70.9173 109.986 71.168 110.807 71.168C111.65 71.168 112.322 70.9013 112.823 70.368C113.324 69.8347 113.575 69.0507 113.575 68.016V63.264H114.695ZM123.163 61.616C122.939 61.616 122.747 61.536 122.587 61.376C122.427 61.216 122.347 61.0187 122.347 60.784C122.347 60.5493 122.427 60.3573 122.587 60.208C122.747 60.048 122.939 59.968 123.163 59.968C123.387 59.968 123.579 60.048 123.739 60.208C123.899 60.3573 123.979 60.5493 123.979 60.784C123.979 61.0187 123.899 61.216 123.739 61.376C123.579 61.536 123.387 61.616 123.163 61.616ZM123.723 63.264V72H122.603V63.264H123.723ZM130.835 63.104C131.88 63.104 132.733 63.4293 133.395 64.08C134.056 64.72 134.387 65.6533 134.387 66.88V72H133.283V67.008C133.283 66.0587 133.043 65.3333 132.563 64.832C132.093 64.3307 131.448 64.08 130.627 64.08C129.784 64.08 129.112 64.3467 128.611 64.88C128.109 65.4133 127.859 66.1973 127.859 67.232V72H126.739V63.264H127.859V64.752C128.136 64.2187 128.536 63.8133 129.059 63.536C129.581 63.248 130.173 63.104 130.835 63.104ZM138.8 64.208V69.632C138.8 70.1653 138.901 70.5333 139.104 70.736C139.306 70.9387 139.664 71.04 140.176 71.04H141.2V72H140C139.21 72 138.624 71.8187 138.24 71.456C137.856 71.0827 137.664 70.4747 137.664 69.632V64.208H136.448V63.264H137.664V61.072H138.8V63.264H141.2V64.208H138.8ZM147.351 72.128C146.53 72.128 145.788 71.9467 145.127 71.584C144.476 71.2107 143.959 70.688 143.575 70.016C143.202 69.3333 143.015 68.5387 143.015 67.632C143.015 66.7253 143.207 65.936 143.591 65.264C143.975 64.5813 144.498 64.0587 145.159 63.696C145.82 63.3227 146.562 63.136 147.383 63.136C148.204 63.136 148.946 63.3227 149.607 63.696C150.279 64.0587 150.802 64.5813 151.175 65.264C151.559 65.936 151.751 66.7253 151.751 67.632C151.751 68.528 151.559 69.3173 151.175 70C150.791 70.6827 150.263 71.2107 149.591 71.584C148.919 71.9467 148.172 72.128 147.351 72.128ZM147.351 71.152C147.927 71.152 148.46 71.024 148.951 70.768C149.442 70.5013 149.836 70.1067 150.135 69.584C150.444 69.0507 150.599 68.4 150.599 67.632C150.599 66.864 150.45 66.2187 150.151 65.696C149.852 65.1627 149.458 64.768 148.967 64.512C148.476 64.2453 147.943 64.112 147.367 64.112C146.791 64.112 146.258 64.2453 145.767 64.512C145.276 64.768 144.882 65.1627 144.583 65.696C144.295 66.2187 144.151 66.864 144.151 67.632C144.151 68.4 144.295 69.0507 144.583 69.584C144.882 70.1067 145.271 70.5013 145.751 70.768C146.242 71.024 146.775 71.152 147.351 71.152ZM160.599 64.208V69.632C160.599 70.1653 160.7 70.5333 160.903 70.736C161.106 70.9387 161.463 71.04 161.975 71.04H162.999V72H161.799C161.01 72 160.423 71.8187 160.039 71.456C159.655 71.0827 159.463 70.4747 159.463 69.632V64.208H158.247V63.264H159.463V61.072H160.599V63.264H162.999V64.208H160.599ZM169.486 63.104C170.148 63.104 170.74 63.2427 171.262 63.52C171.796 63.7973 172.212 64.224 172.51 64.8C172.82 65.3653 172.974 66.0587 172.974 66.88V72H171.87V67.008C171.87 66.0587 171.63 65.3333 171.15 64.832C170.681 64.3307 170.036 64.08 169.214 64.08C168.372 64.08 167.7 64.3467 167.198 64.88C166.697 65.4133 166.446 66.1973 166.446 67.232V72H165.326V60.16H166.446V64.752C166.724 64.2293 167.129 63.824 167.662 63.536C168.206 63.248 168.814 63.104 169.486 63.104ZM183.835 67.184C183.835 67.568 183.825 67.8613 183.803 68.064H176.555C176.587 68.7253 176.747 69.2907 177.035 69.76C177.323 70.2293 177.702 70.5867 178.171 70.832C178.641 71.0667 179.153 71.184 179.707 71.184C180.433 71.184 181.041 71.008 181.531 70.656C182.033 70.304 182.363 69.8293 182.523 69.232H183.707C183.494 70.0853 183.035 70.784 182.331 71.328C181.638 71.8613 180.763 72.128 179.707 72.128C178.886 72.128 178.15 71.9467 177.499 71.584C176.849 71.2107 176.337 70.688 175.963 70.016C175.601 69.3333 175.419 68.5387 175.419 67.632C175.419 66.7253 175.601 65.9307 175.963 65.248C176.326 64.5653 176.833 64.0427 177.483 63.68C178.134 63.3173 178.875 63.136 179.707 63.136C180.539 63.136 181.265 63.3173 181.883 63.68C182.513 64.0427 182.993 64.5333 183.323 65.152C183.665 65.76 183.835 66.4373 183.835 67.184ZM182.699 67.152C182.71 66.5013 182.577 65.9467 182.299 65.488C182.033 65.0293 181.665 64.6827 181.195 64.448C180.726 64.2133 180.214 64.096 179.659 64.096C178.827 64.096 178.118 64.3627 177.531 64.896C176.945 65.4293 176.619 66.1813 176.555 67.152H182.699ZM194.675 64.208H192.643V72H191.523V64.208H190.307V63.264H191.523V62.656C191.523 61.7067 191.763 61.008 192.243 60.56C192.734 60.112 193.523 59.888 194.611 59.888V60.848C193.886 60.848 193.374 60.9867 193.075 61.264C192.787 61.5413 192.643 62.0053 192.643 62.656V63.264H194.675V64.208ZM204.486 63.264V72H203.366V70.464C203.11 71.008 202.715 71.424 202.182 71.712C201.649 72 201.051 72.144 200.39 72.144C199.345 72.144 198.491 71.824 197.83 71.184C197.169 70.5333 196.838 69.5947 196.838 68.368V63.264H197.942V68.24C197.942 69.1893 198.177 69.9147 198.646 70.416C199.126 70.9173 199.777 71.168 200.598 71.168C201.441 71.168 202.113 70.9013 202.614 70.368C203.115 69.8347 203.366 69.0507 203.366 68.016V63.264H204.486ZM208.979 64.208V69.632C208.979 70.1653 209.08 70.5333 209.283 70.736C209.486 70.9387 209.843 71.04 210.355 71.04H211.379V72H210.179C209.39 72 208.803 71.8187 208.419 71.456C208.035 71.0827 207.843 70.4747 207.843 69.632V64.208H206.627V63.264H207.843V61.072H208.979V63.264H211.379V64.208H208.979ZM221.274 63.264V72H220.154V70.464C219.898 71.008 219.504 71.424 218.97 71.712C218.437 72 217.84 72.144 217.178 72.144C216.133 72.144 215.28 71.824 214.618 71.184C213.957 70.5333 213.626 69.5947 213.626 68.368V63.264H214.73V68.24C214.73 69.1893 214.965 69.9147 215.434 70.416C215.914 70.9173 216.565 71.168 217.386 71.168C218.229 71.168 218.901 70.9013 219.402 70.368C219.904 69.8347 220.154 69.0507 220.154 68.016V63.264H221.274ZM225.431 64.816C225.677 64.272 226.05 63.8507 226.551 63.552C227.063 63.2533 227.687 63.104 228.423 63.104V64.272H228.119C227.309 64.272 226.658 64.4907 226.167 64.928C225.677 65.3653 225.431 66.096 225.431 67.12V72H224.311V63.264H225.431V64.816ZM238.492 67.184C238.492 67.568 238.481 67.8613 238.46 68.064H231.212C231.244 68.7253 231.404 69.2907 231.692 69.76C231.98 70.2293 232.359 70.5867 232.828 70.832C233.297 71.0667 233.809 71.184 234.364 71.184C235.089 71.184 235.697 71.008 236.188 70.656C236.689 70.304 237.02 69.8293 237.18 69.232H238.364C238.151 70.0853 237.692 70.784 236.988 71.328C236.295 71.8613 235.42 72.128 234.364 72.128C233.543 72.128 232.807 71.9467 232.156 71.584C231.505 71.2107 230.993 70.688 230.62 70.016C230.257 69.3333 230.076 68.5387 230.076 67.632C230.076 66.7253 230.257 65.9307 230.62 65.248C230.983 64.5653 231.489 64.0427 232.14 63.68C232.791 63.3173 233.532 63.136 234.364 63.136C235.196 63.136 235.921 63.3173 236.54 63.68C237.169 64.0427 237.649 64.5333 237.98 65.152C238.321 65.76 238.492 66.4373 238.492 67.184ZM237.356 67.152C237.367 66.5013 237.233 65.9467 236.956 65.488C236.689 65.0293 236.321 64.6827 235.852 64.448C235.383 64.2133 234.871 64.096 234.316 64.096C233.484 64.096 232.775 64.3627 232.188 64.896C231.601 65.4293 231.276 66.1813 231.212 67.152H237.356Z" fill="#ACAAAA"/>
<path d="M51 34.16V12.88C51 12.6933 52.52 12.04 55.56 10.92C58.6 9.77333 60.3467 9.2 60.8 9.2C61.2533 9.2 61.9333 9.74667 62.84 10.84C63.7733 11.9333 64.24 12.92 64.24 13.8V36.28C64.24 36.4933 63.16 37.0267 61 37.88C62.68 41.4533 64.5067 43.24 66.48 43.24V44.4C64.1067 46 62.5333 46.8 61.76 46.8C60.6933 46.8 59.0933 44.32 56.96 39.36C55.76 39.7867 54.9733 40 54.6 40C53.88 40 53.0933 39.4267 52.24 38.28C51.4133 37.1333 51 35.76 51 34.16ZM57.84 36.32C58.3467 36.32 58.8667 36.1067 59.4 35.68V15.88C59.4 13.9067 58.72 12.92 57.36 12.92C56.8267 12.92 56.3067 13.12 55.8 13.52V33.36C55.8 35.3333 56.48 36.32 57.84 36.32ZM75.0266 33.76C75.0266 34.4533 75.2266 35.0267 75.6266 35.48C76.0532 35.9067 76.5199 36.12 77.0266 36.12C77.5332 36.12 78.0666 35.92 78.6266 35.52V23.08C78.6266 21.4533 78.0799 20.5333 76.9866 20.32V19.44L81.0266 17.16C81.6132 17.4 82.1599 17.8 82.6666 18.36C83.1732 18.8933 83.4266 19.4 83.4266 19.88V33.44C83.4266 34.32 83.6132 35.08 83.9866 35.72C84.3599 36.36 84.8266 36.68 85.3866 36.68V37.56C85.1999 37.5867 83.7466 38.4 81.0266 40C80.4132 39.7333 79.8532 39.3467 79.3466 38.84C78.8666 38.3067 78.6266 37.8 78.6266 37.32L73.6266 40C73.5466 39.9467 73.4266 39.88 73.2666 39.8C73.1066 39.6933 72.8266 39.4933 72.4266 39.2C72.0532 38.88 71.7199 38.5467 71.4266 38.2C70.6266 37.32 70.2266 36.32 70.2266 35.2V23.08C70.2266 21.6133 69.5732 20.7467 68.2666 20.48V19.6L72.6266 17.16C73.2132 17.4 73.7599 17.8 74.2666 18.36C74.7732 18.8933 75.0266 19.4 75.0266 19.88V33.76ZM99.2141 17.2C99.3474 17.2 99.6807 17.4133 100.214 17.84C100.747 18.24 101.281 18.8133 101.814 19.56C102.347 20.28 102.614 20.9867 102.614 21.68V28.4C102.614 28.88 101.907 29.4667 100.494 30.16C99.0807 30.8533 97.7074 31.4267 96.3741 31.88C95.0674 32.3067 94.3607 32.52 94.2541 32.52C94.2541 34.5733 95.1474 35.84 96.9341 36.32C97.8141 36.5333 98.8674 36.64 100.094 36.64V37.8C95.7207 39.2667 93.3874 40 93.0941 40C92.2941 40 91.4807 39.44 90.6541 38.32C89.8274 37.1733 89.4141 35.84 89.4141 34.32V20.88C89.4141 20.6933 90.9341 20.04 93.9741 18.92C97.0141 17.7733 98.7607 17.2 99.2141 17.2ZM97.8141 23.56C97.8141 22.8133 97.6407 22.1867 97.2941 21.68C96.9474 21.1467 96.5074 20.88 95.9741 20.88C95.4407 20.88 94.8541 21.08 94.2141 21.48V30.72C96.6141 30.0533 97.8141 28.6133 97.8141 26.4V23.56ZM110.246 31.24C109.58 31.24 109.006 30.7333 108.526 29.72C108.046 28.7067 107.806 27.4667 107.806 26V21.68C107.806 21.1733 109.206 20.3067 112.006 19.08C114.806 17.8267 116.42 17.2 116.846 17.2C117.086 17.2 117.3 17.3467 117.486 17.64C117.673 17.9067 117.82 18.1333 117.926 18.32C118.033 18.48 118.193 18.7733 118.406 19.2C118.646 19.6 118.846 19.9333 119.006 20.2C119.353 20.84 119.793 21.16 120.326 21.16V21.96C119.9 22.1467 119.34 22.4267 118.646 22.8C116.94 23.7333 116.02 24.2 115.886 24.2C115.486 24.2 115.046 23.5467 114.566 22.24C114.113 20.9333 113.7 20.28 113.326 20.28C112.846 20.28 112.606 20.68 112.606 21.48V26.4C112.606 27.4667 112.846 28 113.326 28C113.433 28 114.26 27.6533 115.806 26.96C117.353 26.2667 118.286 25.92 118.606 25.92C119.246 25.92 119.806 26.44 120.286 27.48C120.793 28.4933 121.046 29.8 121.046 31.4V35.92C121.046 36.4267 119.513 37.3067 116.446 38.56C113.406 39.7867 111.66 40.4 111.206 40.4C111.02 40.4 110.833 40.24 110.646 39.92C110.486 39.5733 110.246 39.0533 109.926 38.36C109.633 37.6667 109.34 37.08 109.046 36.6C108.7 35.96 108.26 35.64 107.726 35.64V34.84C108.153 34.6533 108.726 34.3733 109.446 34C111.126 33.0667 112.033 32.6 112.166 32.6C112.566 32.6 113.06 33.3867 113.646 34.96C114.26 36.5333 114.753 37.32 115.126 37.32C115.393 37.32 115.646 37.2133 115.886 37C116.126 36.7867 116.246 36.4933 116.246 36.12V31.12C116.246 29.92 115.913 29.32 115.246 29.32C115.033 29.32 114.193 29.64 112.726 30.28C111.26 30.92 110.433 31.24 110.246 31.24ZM131.417 13.04V17.8H133.457L133.057 19.76H131.417V34.08C131.417 35.7067 131.964 36.6267 133.057 36.84V37.72L129.017 40C128.431 39.76 127.884 39.3733 127.377 38.84C126.871 38.28 126.617 37.76 126.617 37.28V19.8H124.977L125.377 18.12C126.177 18.12 127.137 17.5867 128.257 16.52C129.404 15.4267 130.084 14.2667 130.297 13.04H131.417Z" fill="url(#paint0_linear)"/>
<path d="M147.023 35.92V15.72C147.023 14.84 146.837 14.08 146.463 13.44C146.09 12.8 145.623 12.48 145.063 12.48V11.6C145.25 11.5733 146.703 10.76 149.423 9.16C149.61 9.21333 149.837 9.29333 150.103 9.4C150.37 9.48 150.717 9.73333 151.143 10.16C151.597 10.5867 151.823 11.08 151.823 11.64C151.983 11.56 152.437 11.3067 153.183 10.88C155.157 9.76 156.37 9.2 156.823 9.2C157.303 9.2 157.823 9.44 158.383 9.92C158.97 10.4 159.41 10.9733 159.703 11.64C159.757 11.6133 160.303 11.3333 161.343 10.8C163.423 9.73333 164.677 9.2 165.103 9.2C165.957 9.2 166.757 9.76 167.503 10.88C168.25 12 168.623 13.0267 168.623 13.96V34.08C168.623 35.5467 169.277 36.4133 170.583 36.68V37.56L166.223 40C165.637 39.76 165.09 39.3733 164.583 38.84C164.077 38.28 163.823 37.76 163.823 37.28V17.68C163.823 16.08 163.557 14.9733 163.023 14.36C162.517 13.72 161.583 13.3733 160.223 13.32V34.08C160.223 35.5467 160.877 36.4133 162.183 36.68V37.56L157.823 40C157.237 39.76 156.69 39.3733 156.183 38.84C155.677 38.28 155.423 37.76 155.423 37.28V17.68C155.423 16 155.17 14.8533 154.663 14.24C154.183 13.6267 153.237 13.32 151.823 13.32V33.84C151.823 34.8267 151.93 35.5333 152.143 35.96C152.357 36.3867 152.797 36.6 153.463 36.6V37.84L145.263 41.28L144.623 40C145.21 40 145.77 39.6533 146.303 38.96C146.783 38.2933 147.023 37.28 147.023 35.92ZM187.009 22.48V33.8C187.009 34.7867 187.169 35.48 187.489 35.88C187.809 36.2533 188.303 36.52 188.969 36.68V37.56L184.609 40C184.023 39.76 183.476 39.3733 182.969 38.84C182.463 38.28 182.209 37.7733 182.209 37.32L177.209 40C177.129 39.9467 177.009 39.88 176.849 39.8C176.689 39.6933 176.409 39.4933 176.009 39.2C175.636 38.88 175.303 38.5467 175.009 38.2C174.209 37.32 173.809 36.32 173.809 35.2V28.64C173.809 28.2133 174.503 27.6667 175.889 27C177.276 26.3333 178.663 25.7867 180.049 25.36L182.169 24.68C182.169 23.16 181.769 22.1067 180.969 21.52C180.169 20.9067 178.623 20.6 176.329 20.6V19.4C180.463 17.9333 182.783 17.2 183.289 17.2C184.169 17.2 185.009 17.7733 185.809 18.92C186.609 20.0667 187.009 21.2533 187.009 22.48ZM178.609 33.76C178.609 34.4533 178.809 35.0267 179.209 35.48C179.636 35.9067 180.103 36.12 180.609 36.12C181.116 36.12 181.649 35.92 182.209 35.52V26.48C181.543 26.72 181.036 26.92 180.689 27.08C180.369 27.24 180.023 27.4933 179.649 27.84C178.956 28.48 178.609 29.5867 178.609 31.16V33.76ZM194.856 31.24C194.189 31.24 193.616 30.7333 193.136 29.72C192.656 28.7067 192.416 27.4667 192.416 26V21.68C192.416 21.1733 193.816 20.3067 196.616 19.08C199.416 17.8267 201.029 17.2 201.456 17.2C201.696 17.2 201.909 17.3467 202.096 17.64C202.282 17.9067 202.429 18.1333 202.536 18.32C202.642 18.48 202.802 18.7733 203.016 19.2C203.256 19.6 203.456 19.9333 203.616 20.2C203.962 20.84 204.402 21.16 204.936 21.16V21.96C204.509 22.1467 203.949 22.4267 203.256 22.8C201.549 23.7333 200.629 24.2 200.496 24.2C200.096 24.2 199.656 23.5467 199.176 22.24C198.722 20.9333 198.309 20.28 197.936 20.28C197.456 20.28 197.216 20.68 197.216 21.48V26.4C197.216 27.4667 197.456 28 197.936 28C198.042 28 198.869 27.6533 200.416 26.96C201.962 26.2667 202.896 25.92 203.216 25.92C203.856 25.92 204.416 26.44 204.896 27.48C205.402 28.4933 205.656 29.8 205.656 31.4V35.92C205.656 36.4267 204.122 37.3067 201.056 38.56C198.016 39.7867 196.269 40.4 195.816 40.4C195.629 40.4 195.442 40.24 195.256 39.92C195.096 39.5733 194.856 39.0533 194.536 38.36C194.242 37.6667 193.949 37.08 193.656 36.6C193.309 35.96 192.869 35.64 192.336 35.64V34.84C192.762 34.6533 193.336 34.3733 194.056 34C195.736 33.0667 196.642 32.6 196.776 32.6C197.176 32.6 197.669 33.3867 198.256 34.96C198.869 36.5333 199.362 37.32 199.736 37.32C200.002 37.32 200.256 37.2133 200.496 37C200.736 36.7867 200.856 36.4933 200.856 36.12V31.12C200.856 29.92 200.522 29.32 199.856 29.32C199.642 29.32 198.802 29.64 197.336 30.28C195.869 30.92 195.042 31.24 194.856 31.24ZM216.027 13.04V17.8H218.067L217.667 19.76H216.027V34.08C216.027 35.7067 216.573 36.6267 217.667 36.84V37.72L213.627 40C213.04 39.76 212.493 39.3733 211.987 38.84C211.48 38.28 211.227 37.76 211.227 37.28V19.8H209.587L209.987 18.12C210.787 18.12 211.747 17.5867 212.867 16.52C214.013 15.4267 214.693 14.2667 214.907 13.04H216.027ZM231.816 17.2C231.949 17.2 232.282 17.4133 232.816 17.84C233.349 18.24 233.882 18.8133 234.416 19.56C234.949 20.28 235.216 20.9867 235.216 21.68V28.4C235.216 28.88 234.509 29.4667 233.096 30.16C231.682 30.8533 230.309 31.4267 228.976 31.88C227.669 32.3067 226.962 32.52 226.856 32.52C226.856 34.5733 227.749 35.84 229.536 36.32C230.416 36.5333 231.469 36.64 232.696 36.64V37.8C228.322 39.2667 225.989 40 225.696 40C224.896 40 224.082 39.44 223.256 38.32C222.429 37.1733 222.016 35.84 222.016 34.32V20.88C222.016 20.6933 223.536 20.04 226.576 18.92C229.616 17.7733 231.362 17.2 231.816 17.2ZM230.416 23.56C230.416 22.8133 230.242 22.1867 229.896 21.68C229.549 21.1467 229.109 20.88 228.576 20.88C228.042 20.88 227.456 21.08 226.816 21.48V30.72C229.216 30.0533 230.416 28.6133 230.416 26.4V23.56ZM239.048 19.6L243.448 17.2C243.634 17.2533 243.848 17.3333 244.088 17.44C244.354 17.52 244.701 17.7733 245.128 18.2C245.581 18.6267 245.808 19.1067 245.808 19.64C245.941 19.5867 246.568 19.1733 247.688 18.4C248.834 17.6 249.568 17.2 249.888 17.2C250.741 17.2 251.541 17.76 252.288 18.88C253.034 20 253.408 21.0267 253.408 21.96V23.92L249.288 26.24L248.608 25.68C248.608 23.44 248.394 22.16 247.968 21.84C247.488 21.4933 246.768 21.32 245.808 21.32V34.08C245.808 35.7067 246.354 36.6267 247.448 36.84V37.72L243.408 40C242.821 39.76 242.274 39.3733 241.768 38.84C241.261 38.28 241.008 37.76 241.008 37.28V24C241.008 22.8267 240.794 21.9467 240.368 21.36C239.968 20.7733 239.528 20.48 239.048 20.48V19.6Z" fill="url(#paint1_linear)"/>
<path d="M44.8073 24.3532C45.2011 24.5806 45.398 24.6942 45.4641 24.8426C45.5217 24.9721 45.5217 25.1199 45.4641 25.2494C45.398 25.3978 45.2011 25.5115 44.8073 25.7388L41.4016 27.7051C41.0078 27.9325 40.8109 28.0462 40.6493 28.0292C40.5084 28.0144 40.3804 27.9405 40.2971 27.8258C40.2016 27.6944 40.2016 27.467 40.2016 27.0123L40.2016 23.0797C40.2016 22.625 40.2016 22.3976 40.2971 22.2662C40.3804 22.1516 40.5084 22.0777 40.6493 22.0628C40.8109 22.0459 41.0078 22.1595 41.4016 22.3869L44.8073 24.3532Z" fill="#545454"/>
<path d="M3.29473 25.7388C2.90093 25.5115 2.70403 25.3978 2.63795 25.2494C2.58032 25.1199 2.58032 24.9721 2.63795 24.8427C2.70403 24.6942 2.90093 24.5806 3.29473 24.3532L6.70045 22.3869C7.09424 22.1596 7.29114 22.0459 7.45271 22.0629C7.59364 22.0777 7.72166 22.1516 7.80495 22.2662C7.90045 22.3977 7.90045 22.625 7.90045 23.0797L7.90045 27.0123C7.90045 27.467 7.90045 27.6944 7.80495 27.8258C7.72166 27.9405 7.59364 28.0144 7.45271 28.0292C7.29114 28.0462 7.09424 27.9325 6.70045 27.7051L3.29473 25.7388Z" fill="#545454"/>
<path d="M23.2865 4.40264C23.5139 4.00884 23.6276 3.81194 23.776 3.74586C23.9055 3.68823 24.0533 3.68823 24.1827 3.74586C24.3311 3.81194 24.4448 4.00884 24.6722 4.40264L26.6385 7.80836C26.8658 8.20215 26.9795 8.39905 26.9625 8.56062C26.9477 8.70155 26.8738 8.82957 26.7592 8.91286C26.6277 9.00836 26.4004 9.00836 25.9457 9.00836L22.0131 9.00836C21.5584 9.00836 21.331 9.00836 21.1996 8.91286C21.0849 8.82957 21.011 8.70155 20.9962 8.56062C20.9792 8.39905 21.0929 8.20215 21.3203 7.80836L23.2865 4.40264Z" fill="#545454"/>
<path d="M24.6724 45.9155C24.4451 46.3093 24.3314 46.5062 24.183 46.5723C24.0535 46.6299 23.9057 46.6299 23.7763 46.5723C23.6278 46.5062 23.5142 46.3093 23.2868 45.9155L21.3205 42.5098C21.0931 42.116 20.9795 41.9191 20.9964 41.7575C21.0113 41.6166 21.0852 41.4885 21.1998 41.4053C21.3313 41.3098 21.5586 41.3098 22.0133 41.3098L25.9459 41.3098C26.4006 41.3098 26.628 41.3098 26.7594 41.4053C26.8741 41.4885 26.948 41.6166 26.9628 41.7575C26.9798 41.9191 26.8661 42.116 26.6387 42.5098L24.6724 45.9155Z" fill="#545454"/>
<path d="M37.4606 10.5839C37.6822 10.5481 37.7929 10.5303 37.8732 10.5649C37.9435 10.5952 37.9995 10.6512 38.0299 10.7215C38.0645 10.8018 38.0466 10.9126 38.0109 11.1342L37.6624 13.2947C37.6426 13.4178 37.6326 13.4793 37.6036 13.5283C37.5779 13.5716 37.5418 13.6077 37.4985 13.6334C37.4495 13.6624 37.388 13.6723 37.265 13.6922L35.1044 14.0407C34.8828 14.0764 34.772 14.0943 34.6917 14.0596C34.6215 14.0293 34.5654 13.9733 34.5351 13.903C34.5005 13.8227 34.5183 13.7119 34.5541 13.4904L34.9026 11.3298C34.9224 11.2067 34.9323 11.1452 34.9614 11.0962C34.987 11.0529 35.0232 11.0168 35.0664 10.9912C35.1154 10.9621 35.177 10.9522 35.3 10.9323L37.4606 10.5839Z" fill="#FFB764"/>
<path d="M9.47889 11.1341C9.44315 10.9126 9.42528 10.8018 9.45991 10.7215C9.49023 10.6512 9.54626 10.5952 9.61654 10.5649C9.69683 10.5302 9.80762 10.5481 10.0292 10.5838L12.1898 10.9323C12.3128 10.9522 12.3743 10.9621 12.4233 10.9911C12.4666 11.0168 12.5027 11.0529 12.5284 11.0962C12.5574 11.1452 12.5674 11.2067 12.5872 11.3298L12.9357 13.4903C12.9714 13.7119 12.9893 13.8227 12.9547 13.903C12.9243 13.9733 12.8683 14.0293 12.798 14.0596C12.7177 14.0942 12.607 14.0764 12.3854 14.0406L10.2248 13.6922C10.1018 13.6723 10.0402 13.6624 9.99123 13.6333C9.94797 13.6077 9.91184 13.5716 9.88619 13.5283C9.85714 13.4793 9.84721 13.4178 9.82737 13.2947L9.47889 11.1341Z" fill="#FFB764"/>
<path d="M37.9955 38.6423C38.0504 38.8599 38.0778 38.9687 38.0503 39.0517C38.0263 39.1244 37.9753 39.1851 37.908 39.2214C37.831 39.2629 37.7191 39.2547 37.4952 39.2385L35.3125 39.0796C35.1882 39.0706 35.126 39.066 35.0747 39.0414C35.0293 39.0196 34.9902 38.9867 34.9609 38.9459C34.9277 38.8996 34.9124 38.8392 34.8819 38.7183L34.3465 36.5963C34.2916 36.3787 34.2641 36.2699 34.2916 36.1869C34.3157 36.1143 34.3666 36.0536 34.434 36.0172C34.5109 35.9757 34.6229 35.9839 34.8467 36.0002L37.0294 36.159C37.1538 36.1681 37.2159 36.1726 37.2673 36.1973C37.3126 36.219 37.3517 36.2519 37.3811 36.2927C37.4143 36.339 37.4295 36.3995 37.46 36.5203L37.9955 38.6423Z" fill="#FFB764"/>
<path d="M10.0597 39.2385C9.83586 39.2548 9.72394 39.263 9.64698 39.2215C9.57961 39.1852 9.52867 39.1245 9.5046 39.0518C9.47709 38.9688 9.50455 38.86 9.55946 38.6424L10.0949 36.5204C10.1254 36.3995 10.1407 36.3391 10.1739 36.2928C10.2032 36.252 10.2423 36.2191 10.2877 36.1973C10.339 36.1727 10.4012 36.1682 10.5255 36.1591L12.7082 36.0003C12.9321 35.984 13.044 35.9758 13.1209 36.0173C13.1883 36.0536 13.2393 36.1144 13.2633 36.187C13.2908 36.27 13.2634 36.3788 13.2085 36.5964L12.673 38.7184C12.6425 38.8393 12.6273 38.8997 12.594 38.946C12.5647 38.9868 12.5256 39.0197 12.4802 39.0415C12.4289 39.0661 12.3667 39.0707 12.2424 39.0797L10.0597 39.2385Z" fill="#FFB764"/>
<path d="M36 37C29.3726 43.6274 18.6274 43.6274 12 37C5.37258 30.3726 5.37258 19.6274 12 13C18.6274 6.37258 29.3726 6.37258 36 13C42.6274 19.6274 42.6274 30.3726 36 37ZM14.0942 15.0942C8.62334 20.565 8.62334 29.435 14.0942 34.9058C19.565 40.3767 28.435 40.3767 33.9058 34.9058C39.3767 29.435 39.3767 20.565 33.9058 15.0942C28.435 9.62334 19.565 9.62334 14.0942 15.0942Z" fill="#545454"/>
<path d="M23.813 9.02892C23.9296 8.7957 24.3961 8.7957 24.5127 9.02892L32.3263 24.423C32.5596 25.0061 32.443 25.5892 32.3263 25.8224L24.5127 40.9833C24.2794 41.3331 24.0462 41.3331 23.813 40.9833L15.8827 25.8224C15.6498 25.2394 15.6498 25.0061 15.8827 24.423L23.813 9.02892Z" fill="url(#paint2_linear)"/>
<circle cx="24.1049" cy="24.9477" r="3.58189" fill="white" stroke="url(#paint3_linear)" stroke-width="0.3"/>
<defs>
<linearGradient id="paint0_linear" x1="152" y1="0" x2="152" y2="51" gradientUnits="userSpaceOnUse">
<stop stop-color="#376CF6"/>
<stop offset="1" stop-color="#0AA7E9"/>
</linearGradient>
<linearGradient id="paint1_linear" x1="152" y1="0" x2="152" y2="51" gradientUnits="userSpaceOnUse">
<stop stop-color="#EF912B"/>
<stop offset="1" stop-color="#FFB764"/>
</linearGradient>
<linearGradient id="paint2_linear" x1="19.0841" y1="10.05" x2="41.5223" y2="31.5613" gradientUnits="userSpaceOnUse">
<stop stop-color="#537AE0"/>
<stop offset="1" stop-color="#0AA7E9"/>
</linearGradient>
<linearGradient id="paint3_linear" x1="20.373" y1="24.9477" x2="27.8368" y2="24.9477" gradientUnits="userSpaceOnUse">
<stop stop-color="#FFB764" stop-opacity="0"/>
<stop offset="0.481248" stop-color="#FFB764"/>
<stop offset="1" stop-color="#FFB764" stop-opacity="0"/>
</linearGradient>
</defs>
</svg>
