<svg width="255" height="72" viewBox="0 0 255 72" fill="none" xmlns="http://www.w3.org/2000/svg">
<path d="M38.82 59.07C38.54 58.426 38.1107 57.922 37.532 57.558C36.9627 57.1847 36.2907 56.998 35.516 56.998C34.788 56.998 34.1347 57.166 33.556 57.502C32.9773 57.838 32.52 58.3187 32.184 58.944C31.848 59.56 31.68 60.2787 31.68 61.1C31.68 61.9213 31.848 62.6447 32.184 63.27C32.52 63.8953 32.9773 64.376 33.556 64.712C34.1347 65.048 34.788 65.216 35.516 65.216C36.1973 65.216 36.8087 65.0713 37.35 64.782C37.9007 64.4833 38.3393 64.0633 38.666 63.522C39.002 62.9713 39.1933 62.332 39.24 61.604H35.124V60.806H40.276V61.52C40.2293 62.3787 39.996 63.158 39.576 63.858C39.156 64.5487 38.5913 65.0947 37.882 65.496C37.182 65.8973 36.3933 66.098 35.516 66.098C34.6107 66.098 33.7893 65.888 33.052 65.468C32.3147 65.0387 31.7313 64.446 31.302 63.69C30.882 62.9247 30.672 62.0613 30.672 61.1C30.672 60.1387 30.882 59.28 31.302 58.524C31.7313 57.7587 32.3147 57.166 33.052 56.746C33.7893 56.3167 34.6107 56.102 35.516 56.102C36.5613 56.102 37.476 56.3633 38.26 56.886C39.044 57.4087 39.6133 58.1367 39.968 59.07H38.82ZM49.1132 58.356V66H48.1332V64.656C47.9092 65.132 47.5638 65.496 47.0972 65.748C46.6305 66 46.1078 66.126 45.5292 66.126C44.6145 66.126 43.8678 65.846 43.2892 65.286C42.7105 64.7167 42.4212 63.8953 42.4212 62.822V58.356H43.3872V62.71C43.3872 63.5407 43.5925 64.1753 44.0032 64.614C44.4232 65.0527 44.9925 65.272 45.7112 65.272C46.4485 65.272 47.0365 65.0387 47.4752 64.572C47.9138 64.1053 48.1332 63.4193 48.1332 62.514V58.356H49.1132ZM52.2605 56.914C52.0645 56.914 51.8965 56.844 51.7565 56.704C51.6165 56.564 51.5465 56.3913 51.5465 56.186C51.5465 55.9807 51.6165 55.8127 51.7565 55.682C51.8965 55.542 52.0645 55.472 52.2605 55.472C52.4565 55.472 52.6245 55.542 52.7645 55.682C52.9045 55.8127 52.9745 55.9807 52.9745 56.186C52.9745 56.3913 52.9045 56.564 52.7645 56.704C52.6245 56.844 52.4565 56.914 52.2605 56.914ZM52.7505 58.356V66H51.7705V58.356H52.7505ZM54.9418 62.164C54.9418 61.38 55.1004 60.694 55.4178 60.106C55.7351 59.5087 56.1691 59.0513 56.7198 58.734C57.2798 58.4073 57.9098 58.244 58.6098 58.244C59.2818 58.244 59.8884 58.4073 60.4298 58.734C60.9711 59.0607 61.3678 59.4853 61.6198 60.008V55.64H62.5998V66H61.6198V64.292C61.3864 64.824 61.0038 65.2627 60.4718 65.608C59.9398 65.944 59.3144 66.112 58.5958 66.112C57.8958 66.112 57.2658 65.9487 56.7058 65.622C56.1551 65.2953 55.7211 64.8333 55.4038 64.236C55.0958 63.6387 54.9418 62.948 54.9418 62.164ZM61.6198 62.178C61.6198 61.562 61.4938 61.0207 61.2418 60.554C60.9898 60.0873 60.6444 59.728 60.2058 59.476C59.7764 59.224 59.3004 59.098 58.7778 59.098C58.2364 59.098 57.7511 59.2193 57.3218 59.462C56.8924 59.7047 56.5518 60.0593 56.2998 60.526C56.0571 60.9833 55.9358 61.5293 55.9358 62.164C55.9358 62.7893 56.0571 63.34 56.2998 63.816C56.5518 64.2827 56.8924 64.642 57.3218 64.894C57.7511 65.1367 58.2364 65.258 58.7778 65.258C59.3004 65.258 59.7764 65.132 60.2058 64.88C60.6444 64.628 60.9898 64.2687 61.2418 63.802C61.4938 63.3353 61.6198 62.794 61.6198 62.178ZM65.747 56.914C65.551 56.914 65.383 56.844 65.243 56.704C65.103 56.564 65.033 56.3913 65.033 56.186C65.033 55.9807 65.103 55.8127 65.243 55.682C65.383 55.542 65.551 55.472 65.747 55.472C65.943 55.472 66.111 55.542 66.251 55.682C66.391 55.8127 66.461 55.9807 66.461 56.186C66.461 56.3913 66.391 56.564 66.251 56.704C66.111 56.844 65.943 56.914 65.747 56.914ZM66.237 58.356V66H65.257V58.356H66.237ZM72.4602 58.216C73.3749 58.216 74.1216 58.5007 74.7002 59.07C75.2789 59.63 75.5682 60.4467 75.5682 61.52V66H74.6022V61.632C74.6022 60.8013 74.3922 60.1667 73.9722 59.728C73.5616 59.2893 72.9969 59.07 72.2782 59.07C71.5409 59.07 70.9529 59.3033 70.5142 59.77C70.0756 60.2367 69.8562 60.9227 69.8562 61.828V66H68.8762V58.356H69.8562V59.658C70.0989 59.1913 70.4489 58.8367 70.9062 58.594C71.3636 58.342 71.8816 58.216 72.4602 58.216ZM81.3616 58.244C82.0803 58.244 82.7056 58.412 83.2376 58.748C83.7696 59.084 84.1523 59.5087 84.3856 60.022V58.356H85.3656V66.196C85.3656 66.896 85.2116 67.5167 84.9036 68.058C84.605 68.5993 84.185 69.0147 83.6436 69.304C83.1023 69.6027 82.4863 69.752 81.7956 69.752C80.8156 69.752 79.999 69.5187 79.3456 69.052C78.7016 68.5853 78.3003 67.9507 78.1416 67.148H79.1076C79.2756 67.68 79.593 68.1047 80.0596 68.422C80.5356 68.7393 81.1143 68.898 81.7956 68.898C82.2903 68.898 82.7336 68.7907 83.1256 68.576C83.5176 68.3707 83.8256 68.0627 84.0496 67.652C84.2736 67.2413 84.3856 66.756 84.3856 66.196V64.306C84.143 64.8287 83.7556 65.2627 83.2236 65.608C82.701 65.944 82.0803 66.112 81.3616 66.112C80.6616 66.112 80.0316 65.9487 79.4716 65.622C78.921 65.2953 78.487 64.8333 78.1696 64.236C77.8616 63.6387 77.7076 62.948 77.7076 62.164C77.7076 61.38 77.8616 60.694 78.1696 60.106C78.487 59.5087 78.921 59.0513 79.4716 58.734C80.0316 58.4073 80.6616 58.244 81.3616 58.244ZM84.3856 62.178C84.3856 61.562 84.2596 61.0207 84.0076 60.554C83.7556 60.0873 83.4103 59.728 82.9716 59.476C82.5423 59.224 82.0663 59.098 81.5436 59.098C81.0023 59.098 80.517 59.2193 80.0876 59.462C79.6583 59.7047 79.3176 60.0593 79.0656 60.526C78.823 60.9833 78.7016 61.5293 78.7016 62.164C78.7016 62.7893 78.823 63.34 79.0656 63.816C79.3176 64.2827 79.6583 64.642 80.0876 64.894C80.517 65.1367 81.0023 65.258 81.5436 65.258C82.0663 65.258 82.5423 65.132 82.9716 64.88C83.4103 64.628 83.7556 64.2687 84.0076 63.802C84.2596 63.3353 84.3856 62.794 84.3856 62.178ZM98.5847 58.356L94.0487 69.598H93.0267L94.5107 65.958L91.3747 58.356H92.4527L95.0567 64.88L97.5767 58.356H98.5847ZM103.68 66.112C102.961 66.112 102.312 65.9533 101.734 65.636C101.164 65.3093 100.712 64.852 100.376 64.264C100.049 63.6667 99.8856 62.9713 99.8856 62.178C99.8856 61.3847 100.054 60.694 100.39 60.106C100.726 59.5087 101.183 59.0513 101.762 58.734C102.34 58.4073 102.989 58.244 103.708 58.244C104.426 58.244 105.075 58.4073 105.654 58.734C106.242 59.0513 106.699 59.5087 107.026 60.106C107.362 60.694 107.53 61.3847 107.53 62.178C107.53 62.962 107.362 63.6527 107.026 64.25C106.69 64.8473 106.228 65.3093 105.64 65.636C105.052 65.9533 104.398 66.112 103.68 66.112ZM103.68 65.258C104.184 65.258 104.65 65.146 105.08 64.922C105.509 64.6887 105.854 64.3433 106.116 63.886C106.386 63.4193 106.522 62.85 106.522 62.178C106.522 61.506 106.391 60.9413 106.13 60.484C105.868 60.0173 105.523 59.672 105.094 59.448C104.664 59.2147 104.198 59.098 103.694 59.098C103.19 59.098 102.723 59.2147 102.294 59.448C101.864 59.672 101.519 60.0173 101.258 60.484C101.006 60.9413 100.88 61.506 100.88 62.178C100.88 62.85 101.006 63.4193 101.258 63.886C101.519 64.3433 101.86 64.6887 102.28 64.922C102.709 65.146 103.176 65.258 103.68 65.258ZM116.358 58.356V66H115.378V64.656C115.154 65.132 114.809 65.496 114.342 65.748C113.875 66 113.353 66.126 112.774 66.126C111.859 66.126 111.113 65.846 110.534 65.286C109.955 64.7167 109.666 63.8953 109.666 62.822V58.356H110.632V62.71C110.632 63.5407 110.837 64.1753 111.248 64.614C111.668 65.0527 112.237 65.272 112.956 65.272C113.693 65.272 114.281 65.0387 114.72 64.572C115.159 64.1053 115.378 63.4193 115.378 62.514V58.356H116.358ZM123.767 56.914C123.571 56.914 123.403 56.844 123.263 56.704C123.123 56.564 123.053 56.3913 123.053 56.186C123.053 55.9807 123.123 55.8127 123.263 55.682C123.403 55.542 123.571 55.472 123.767 55.472C123.963 55.472 124.131 55.542 124.271 55.682C124.411 55.8127 124.481 55.9807 124.481 56.186C124.481 56.3913 124.411 56.564 124.271 56.704C124.131 56.844 123.963 56.914 123.767 56.914ZM124.257 58.356V66H123.277V58.356H124.257ZM130.48 58.216C131.395 58.216 132.142 58.5007 132.72 59.07C133.299 59.63 133.588 60.4467 133.588 61.52V66H132.622V61.632C132.622 60.8013 132.412 60.1667 131.992 59.728C131.582 59.2893 131.017 59.07 130.298 59.07C129.561 59.07 128.973 59.3033 128.534 59.77C128.096 60.2367 127.876 60.9227 127.876 61.828V66H126.896V58.356H127.876V59.658C128.119 59.1913 128.469 58.8367 128.926 58.594C129.384 58.342 129.902 58.216 130.48 58.216ZM137.45 59.182V63.928C137.45 64.3947 137.538 64.7167 137.716 64.894C137.893 65.0713 138.206 65.16 138.654 65.16H139.55V66H138.5C137.809 66 137.296 65.8413 136.96 65.524C136.624 65.1973 136.456 64.6653 136.456 63.928V59.182H135.392V58.356H136.456V56.438H137.45V58.356H139.55V59.182H137.45ZM144.932 66.112C144.213 66.112 143.565 65.9533 142.986 65.636C142.417 65.3093 141.964 64.852 141.628 64.264C141.301 63.6667 141.138 62.9713 141.138 62.178C141.138 61.3847 141.306 60.694 141.642 60.106C141.978 59.5087 142.435 59.0513 143.014 58.734C143.593 58.4073 144.241 58.244 144.96 58.244C145.679 58.244 146.327 58.4073 146.906 58.734C147.494 59.0513 147.951 59.5087 148.278 60.106C148.614 60.694 148.782 61.3847 148.782 62.178C148.782 62.962 148.614 63.6527 148.278 64.25C147.942 64.8473 147.48 65.3093 146.892 65.636C146.304 65.9533 145.651 66.112 144.932 66.112ZM144.932 65.258C145.436 65.258 145.903 65.146 146.332 64.922C146.761 64.6887 147.107 64.3433 147.368 63.886C147.639 63.4193 147.774 62.85 147.774 62.178C147.774 61.506 147.643 60.9413 147.382 60.484C147.121 60.0173 146.775 59.672 146.346 59.448C145.917 59.2147 145.45 59.098 144.946 59.098C144.442 59.098 143.975 59.2147 143.546 59.448C143.117 59.672 142.771 60.0173 142.51 60.484C142.258 60.9413 142.132 61.506 142.132 62.178C142.132 62.85 142.258 63.4193 142.51 63.886C142.771 64.3433 143.112 64.6887 143.532 64.922C143.961 65.146 144.428 65.258 144.932 65.258ZM156.524 59.182V63.928C156.524 64.3947 156.613 64.7167 156.79 64.894C156.968 65.0713 157.28 65.16 157.728 65.16H158.624V66H157.574C156.884 66 156.37 65.8413 156.034 65.524C155.698 65.1973 155.53 64.6653 155.53 63.928V59.182H154.466V58.356H155.53V56.438H156.524V58.356H158.624V59.182H156.524ZM164.3 58.216C164.879 58.216 165.397 58.3373 165.854 58.58C166.321 58.8227 166.685 59.196 166.946 59.7C167.217 60.1947 167.352 60.8013 167.352 61.52V66H166.386V61.632C166.386 60.8013 166.176 60.1667 165.756 59.728C165.346 59.2893 164.781 59.07 164.062 59.07C163.325 59.07 162.737 59.3033 162.298 59.77C161.86 60.2367 161.64 60.9227 161.64 61.828V66H160.66V55.64H161.64V59.658C161.883 59.2007 162.238 58.846 162.704 58.594C163.18 58.342 163.712 58.216 164.3 58.216ZM176.856 61.786C176.856 62.122 176.847 62.3787 176.828 62.556H170.486C170.514 63.1347 170.654 63.6293 170.906 64.04C171.158 64.4507 171.489 64.7633 171.9 64.978C172.311 65.1833 172.759 65.286 173.244 65.286C173.879 65.286 174.411 65.132 174.84 64.824C175.279 64.516 175.568 64.1007 175.708 63.578H176.744C176.557 64.3247 176.156 64.936 175.54 65.412C174.933 65.8787 174.168 66.112 173.244 66.112C172.525 66.112 171.881 65.9533 171.312 65.636C170.743 65.3093 170.295 64.852 169.968 64.264C169.651 63.6667 169.492 62.9713 169.492 62.178C169.492 61.3847 169.651 60.6893 169.968 60.092C170.285 59.4947 170.729 59.0373 171.298 58.72C171.867 58.4027 172.516 58.244 173.244 58.244C173.972 58.244 174.607 58.4027 175.148 58.72C175.699 59.0373 176.119 59.4667 176.408 60.008C176.707 60.54 176.856 61.1327 176.856 61.786ZM175.862 61.758C175.871 61.1887 175.755 60.7033 175.512 60.302C175.279 59.9007 174.957 59.5973 174.546 59.392C174.135 59.1867 173.687 59.084 173.202 59.084C172.474 59.084 171.853 59.3173 171.34 59.784C170.827 60.2507 170.542 60.9087 170.486 61.758H175.862ZM186.341 59.182H184.563V66H183.583V59.182H182.519V58.356H183.583V57.824C183.583 56.9933 183.793 56.382 184.213 55.99C184.642 55.598 185.333 55.402 186.285 55.402V56.242C185.65 56.242 185.202 56.3633 184.941 56.606C184.689 56.8487 184.563 57.2547 184.563 57.824V58.356H186.341V59.182ZM194.925 58.356V66H193.945V64.656C193.721 65.132 193.376 65.496 192.909 65.748C192.443 66 191.92 66.126 191.341 66.126C190.427 66.126 189.68 65.846 189.101 65.286C188.523 64.7167 188.233 63.8953 188.233 62.822V58.356H189.199V62.71C189.199 63.5407 189.405 64.1753 189.815 64.614C190.235 65.0527 190.805 65.272 191.523 65.272C192.261 65.272 192.849 65.0387 193.287 64.572C193.726 64.1053 193.945 63.4193 193.945 62.514V58.356H194.925ZM198.857 59.182V63.928C198.857 64.3947 198.945 64.7167 199.123 64.894C199.3 65.0713 199.613 65.16 200.061 65.16H200.957V66H199.907C199.216 66 198.703 65.8413 198.367 65.524C198.031 65.1973 197.863 64.6653 197.863 63.928V59.182H196.799V58.356H197.863V56.438H198.857V58.356H200.957V59.182H198.857ZM209.615 58.356V66H208.635V64.656C208.411 65.132 208.066 65.496 207.599 65.748C207.132 66 206.61 66.126 206.031 66.126C205.116 66.126 204.37 65.846 203.791 65.286C203.212 64.7167 202.923 63.8953 202.923 62.822V58.356H203.889V62.71C203.889 63.5407 204.094 64.1753 204.505 64.614C204.925 65.0527 205.494 65.272 206.213 65.272C206.95 65.272 207.538 65.0387 207.977 64.572C208.416 64.1053 208.635 63.4193 208.635 62.514V58.356H209.615ZM213.252 59.714C213.467 59.238 213.794 58.8693 214.232 58.608C214.68 58.3467 215.226 58.216 215.87 58.216V59.238H215.604C214.895 59.238 214.326 59.4293 213.896 59.812C213.467 60.1947 213.252 60.834 213.252 61.73V66H212.272V58.356H213.252V59.714ZM224.681 61.786C224.681 62.122 224.671 62.3787 224.653 62.556H218.311C218.339 63.1347 218.479 63.6293 218.731 64.04C218.983 64.4507 219.314 64.7633 219.725 64.978C220.135 65.1833 220.583 65.286 221.069 65.286C221.703 65.286 222.235 65.132 222.665 64.824C223.103 64.516 223.393 64.1007 223.533 63.578H224.569C224.382 64.3247 223.981 64.936 223.365 65.412C222.758 65.8787 221.993 66.112 221.069 66.112C220.35 66.112 219.706 65.9533 219.137 65.636C218.567 65.3093 218.119 64.852 217.793 64.264C217.475 63.6667 217.317 62.9713 217.317 62.178C217.317 61.3847 217.475 60.6893 217.793 60.092C218.11 59.4947 218.553 59.0373 219.123 58.72C219.692 58.4027 220.341 58.244 221.069 58.244C221.797 58.244 222.431 58.4027 222.973 58.72C223.523 59.0373 223.943 59.4667 224.233 60.008C224.531 60.54 224.681 61.1327 224.681 61.786ZM223.687 61.758C223.696 61.1887 223.579 60.7033 223.337 60.302C223.103 59.9007 222.781 59.5973 222.371 59.392C221.96 59.1867 221.512 59.084 221.027 59.084C220.299 59.084 219.678 59.3173 219.165 59.784C218.651 60.2507 218.367 60.9087 218.311 61.758H223.687Z" fill="#ACAAAA"/>
<path d="M51 34.16V12.88C51 12.6933 52.52 12.04 55.56 10.92C58.6 9.77333 60.3467 9.2 60.8 9.2C61.2533 9.2 61.9333 9.74667 62.84 10.84C63.7733 11.9333 64.24 12.92 64.24 13.8V36.28C64.24 36.4933 63.16 37.0267 61 37.88C62.68 41.4533 64.5067 43.24 66.48 43.24V44.4C64.1067 46 62.5333 46.8 61.76 46.8C60.6933 46.8 59.0933 44.32 56.96 39.36C55.76 39.7867 54.9733 40 54.6 40C53.88 40 53.0933 39.4267 52.24 38.28C51.4133 37.1333 51 35.76 51 34.16ZM57.84 36.32C58.3467 36.32 58.8667 36.1067 59.4 35.68V15.88C59.4 13.9067 58.72 12.92 57.36 12.92C56.8267 12.92 56.3067 13.12 55.8 13.52V33.36C55.8 35.3333 56.48 36.32 57.84 36.32ZM75.0266 33.76C75.0266 34.4533 75.2266 35.0267 75.6266 35.48C76.0532 35.9067 76.5199 36.12 77.0266 36.12C77.5332 36.12 78.0666 35.92 78.6266 35.52V23.08C78.6266 21.4533 78.0799 20.5333 76.9866 20.32V19.44L81.0266 17.16C81.6132 17.4 82.1599 17.8 82.6666 18.36C83.1732 18.8933 83.4266 19.4 83.4266 19.88V33.44C83.4266 34.32 83.6132 35.08 83.9866 35.72C84.3599 36.36 84.8266 36.68 85.3866 36.68V37.56C85.1999 37.5867 83.7466 38.4 81.0266 40C80.4132 39.7333 79.8532 39.3467 79.3466 38.84C78.8666 38.3067 78.6266 37.8 78.6266 37.32L73.6266 40C73.5466 39.9467 73.4266 39.88 73.2666 39.8C73.1066 39.6933 72.8266 39.4933 72.4266 39.2C72.0532 38.88 71.7199 38.5467 71.4266 38.2C70.6266 37.32 70.2266 36.32 70.2266 35.2V23.08C70.2266 21.6133 69.5732 20.7467 68.2666 20.48V19.6L72.6266 17.16C73.2132 17.4 73.7599 17.8 74.2666 18.36C74.7732 18.8933 75.0266 19.4 75.0266 19.88V33.76ZM99.2141 17.2C99.3474 17.2 99.6807 17.4133 100.214 17.84C100.747 18.24 101.281 18.8133 101.814 19.56C102.347 20.28 102.614 20.9867 102.614 21.68V28.4C102.614 28.88 101.907 29.4667 100.494 30.16C99.0807 30.8533 97.7074 31.4267 96.3741 31.88C95.0674 32.3067 94.3607 32.52 94.2541 32.52C94.2541 34.5733 95.1474 35.84 96.9341 36.32C97.8141 36.5333 98.8674 36.64 100.094 36.64V37.8C95.7207 39.2667 93.3874 40 93.0941 40C92.2941 40 91.4807 39.44 90.6541 38.32C89.8274 37.1733 89.4141 35.84 89.4141 34.32V20.88C89.4141 20.6933 90.9341 20.04 93.9741 18.92C97.0141 17.7733 98.7607 17.2 99.2141 17.2ZM97.8141 23.56C97.8141 22.8133 97.6407 22.1867 97.2941 21.68C96.9474 21.1467 96.5074 20.88 95.9741 20.88C95.4407 20.88 94.8541 21.08 94.2141 21.48V30.72C96.6141 30.0533 97.8141 28.6133 97.8141 26.4V23.56ZM110.246 31.24C109.58 31.24 109.006 30.7333 108.526 29.72C108.046 28.7067 107.806 27.4667 107.806 26V21.68C107.806 21.1733 109.206 20.3067 112.006 19.08C114.806 17.8267 116.42 17.2 116.846 17.2C117.086 17.2 117.3 17.3467 117.486 17.64C117.673 17.9067 117.82 18.1333 117.926 18.32C118.033 18.48 118.193 18.7733 118.406 19.2C118.646 19.6 118.846 19.9333 119.006 20.2C119.353 20.84 119.793 21.16 120.326 21.16V21.96C119.9 22.1467 119.34 22.4267 118.646 22.8C116.94 23.7333 116.02 24.2 115.886 24.2C115.486 24.2 115.046 23.5467 114.566 22.24C114.113 20.9333 113.7 20.28 113.326 20.28C112.846 20.28 112.606 20.68 112.606 21.48V26.4C112.606 27.4667 112.846 28 113.326 28C113.433 28 114.26 27.6533 115.806 26.96C117.353 26.2667 118.286 25.92 118.606 25.92C119.246 25.92 119.806 26.44 120.286 27.48C120.793 28.4933 121.046 29.8 121.046 31.4V35.92C121.046 36.4267 119.513 37.3067 116.446 38.56C113.406 39.7867 111.66 40.4 111.206 40.4C111.02 40.4 110.833 40.24 110.646 39.92C110.486 39.5733 110.246 39.0533 109.926 38.36C109.633 37.6667 109.34 37.08 109.046 36.6C108.7 35.96 108.26 35.64 107.726 35.64V34.84C108.153 34.6533 108.726 34.3733 109.446 34C111.126 33.0667 112.033 32.6 112.166 32.6C112.566 32.6 113.06 33.3867 113.646 34.96C114.26 36.5333 114.753 37.32 115.126 37.32C115.393 37.32 115.646 37.2133 115.886 37C116.126 36.7867 116.246 36.4933 116.246 36.12V31.12C116.246 29.92 115.913 29.32 115.246 29.32C115.033 29.32 114.193 29.64 112.726 30.28C111.26 30.92 110.433 31.24 110.246 31.24ZM131.417 13.04V17.8H133.457L133.057 19.76H131.417V34.08C131.417 35.7067 131.964 36.6267 133.057 36.84V37.72L129.017 40C128.431 39.76 127.884 39.3733 127.377 38.84C126.871 38.28 126.617 37.76 126.617 37.28V19.8H124.977L125.377 18.12C126.177 18.12 127.137 17.5867 128.257 16.52C129.404 15.4267 130.084 14.2667 130.297 13.04H131.417Z" fill="url(#paint0_linear)"/>
<path d="M147.023 35.92V15.72C147.023 14.84 146.837 14.08 146.463 13.44C146.09 12.8 145.623 12.48 145.063 12.48V11.6C145.25 11.5733 146.703 10.76 149.423 9.16C149.61 9.21333 149.837 9.29333 150.103 9.4C150.37 9.48 150.717 9.73333 151.143 10.16C151.597 10.5867 151.823 11.08 151.823 11.64C151.983 11.56 152.437 11.3067 153.183 10.88C155.157 9.76 156.37 9.2 156.823 9.2C157.303 9.2 157.823 9.44 158.383 9.92C158.97 10.4 159.41 10.9733 159.703 11.64C159.757 11.6133 160.303 11.3333 161.343 10.8C163.423 9.73333 164.677 9.2 165.103 9.2C165.957 9.2 166.757 9.76 167.503 10.88C168.25 12 168.623 13.0267 168.623 13.96V34.08C168.623 35.5467 169.277 36.4133 170.583 36.68V37.56L166.223 40C165.637 39.76 165.09 39.3733 164.583 38.84C164.077 38.28 163.823 37.76 163.823 37.28V17.68C163.823 16.08 163.557 14.9733 163.023 14.36C162.517 13.72 161.583 13.3733 160.223 13.32V34.08C160.223 35.5467 160.877 36.4133 162.183 36.68V37.56L157.823 40C157.237 39.76 156.69 39.3733 156.183 38.84C155.677 38.28 155.423 37.76 155.423 37.28V17.68C155.423 16 155.17 14.8533 154.663 14.24C154.183 13.6267 153.237 13.32 151.823 13.32V33.84C151.823 34.8267 151.93 35.5333 152.143 35.96C152.357 36.3867 152.797 36.6 153.463 36.6V37.84L145.263 41.28L144.623 40C145.21 40 145.77 39.6533 146.303 38.96C146.783 38.2933 147.023 37.28 147.023 35.92ZM187.009 22.48V33.8C187.009 34.7867 187.169 35.48 187.489 35.88C187.809 36.2533 188.303 36.52 188.969 36.68V37.56L184.609 40C184.023 39.76 183.476 39.3733 182.969 38.84C182.463 38.28 182.209 37.7733 182.209 37.32L177.209 40C177.129 39.9467 177.009 39.88 176.849 39.8C176.689 39.6933 176.409 39.4933 176.009 39.2C175.636 38.88 175.303 38.5467 175.009 38.2C174.209 37.32 173.809 36.32 173.809 35.2V28.64C173.809 28.2133 174.503 27.6667 175.889 27C177.276 26.3333 178.663 25.7867 180.049 25.36L182.169 24.68C182.169 23.16 181.769 22.1067 180.969 21.52C180.169 20.9067 178.623 20.6 176.329 20.6V19.4C180.463 17.9333 182.783 17.2 183.289 17.2C184.169 17.2 185.009 17.7733 185.809 18.92C186.609 20.0667 187.009 21.2533 187.009 22.48ZM178.609 33.76C178.609 34.4533 178.809 35.0267 179.209 35.48C179.636 35.9067 180.103 36.12 180.609 36.12C181.116 36.12 181.649 35.92 182.209 35.52V26.48C181.543 26.72 181.036 26.92 180.689 27.08C180.369 27.24 180.023 27.4933 179.649 27.84C178.956 28.48 178.609 29.5867 178.609 31.16V33.76ZM194.856 31.24C194.189 31.24 193.616 30.7333 193.136 29.72C192.656 28.7067 192.416 27.4667 192.416 26V21.68C192.416 21.1733 193.816 20.3067 196.616 19.08C199.416 17.8267 201.029 17.2 201.456 17.2C201.696 17.2 201.909 17.3467 202.096 17.64C202.282 17.9067 202.429 18.1333 202.536 18.32C202.642 18.48 202.802 18.7733 203.016 19.2C203.256 19.6 203.456 19.9333 203.616 20.2C203.962 20.84 204.402 21.16 204.936 21.16V21.96C204.509 22.1467 203.949 22.4267 203.256 22.8C201.549 23.7333 200.629 24.2 200.496 24.2C200.096 24.2 199.656 23.5467 199.176 22.24C198.722 20.9333 198.309 20.28 197.936 20.28C197.456 20.28 197.216 20.68 197.216 21.48V26.4C197.216 27.4667 197.456 28 197.936 28C198.042 28 198.869 27.6533 200.416 26.96C201.962 26.2667 202.896 25.92 203.216 25.92C203.856 25.92 204.416 26.44 204.896 27.48C205.402 28.4933 205.656 29.8 205.656 31.4V35.92C205.656 36.4267 204.122 37.3067 201.056 38.56C198.016 39.7867 196.269 40.4 195.816 40.4C195.629 40.4 195.442 40.24 195.256 39.92C195.096 39.5733 194.856 39.0533 194.536 38.36C194.242 37.6667 193.949 37.08 193.656 36.6C193.309 35.96 192.869 35.64 192.336 35.64V34.84C192.762 34.6533 193.336 34.3733 194.056 34C195.736 33.0667 196.642 32.6 196.776 32.6C197.176 32.6 197.669 33.3867 198.256 34.96C198.869 36.5333 199.362 37.32 199.736 37.32C200.002 37.32 200.256 37.2133 200.496 37C200.736 36.7867 200.856 36.4933 200.856 36.12V31.12C200.856 29.92 200.522 29.32 199.856 29.32C199.642 29.32 198.802 29.64 197.336 30.28C195.869 30.92 195.042 31.24 194.856 31.24ZM216.027 13.04V17.8H218.067L217.667 19.76H216.027V34.08C216.027 35.7067 216.573 36.6267 217.667 36.84V37.72L213.627 40C213.04 39.76 212.493 39.3733 211.987 38.84C211.48 38.28 211.227 37.76 211.227 37.28V19.8H209.587L209.987 18.12C210.787 18.12 211.747 17.5867 212.867 16.52C214.013 15.4267 214.693 14.2667 214.907 13.04H216.027ZM231.816 17.2C231.949 17.2 232.282 17.4133 232.816 17.84C233.349 18.24 233.882 18.8133 234.416 19.56C234.949 20.28 235.216 20.9867 235.216 21.68V28.4C235.216 28.88 234.509 29.4667 233.096 30.16C231.682 30.8533 230.309 31.4267 228.976 31.88C227.669 32.3067 226.962 32.52 226.856 32.52C226.856 34.5733 227.749 35.84 229.536 36.32C230.416 36.5333 231.469 36.64 232.696 36.64V37.8C228.322 39.2667 225.989 40 225.696 40C224.896 40 224.082 39.44 223.256 38.32C222.429 37.1733 222.016 35.84 222.016 34.32V20.88C222.016 20.6933 223.536 20.04 226.576 18.92C229.616 17.7733 231.362 17.2 231.816 17.2ZM230.416 23.56C230.416 22.8133 230.242 22.1867 229.896 21.68C229.549 21.1467 229.109 20.88 228.576 20.88C228.042 20.88 227.456 21.08 226.816 21.48V30.72C229.216 30.0533 230.416 28.6133 230.416 26.4V23.56ZM239.048 19.6L243.448 17.2C243.634 17.2533 243.848 17.3333 244.088 17.44C244.354 17.52 244.701 17.7733 245.128 18.2C245.581 18.6267 245.808 19.1067 245.808 19.64C245.941 19.5867 246.568 19.1733 247.688 18.4C248.834 17.6 249.568 17.2 249.888 17.2C250.741 17.2 251.541 17.76 252.288 18.88C253.034 20 253.408 21.0267 253.408 21.96V23.92L249.288 26.24L248.608 25.68C248.608 23.44 248.394 22.16 247.968 21.84C247.488 21.4933 246.768 21.32 245.808 21.32V34.08C245.808 35.7067 246.354 36.6267 247.448 36.84V37.72L243.408 40C242.821 39.76 242.274 39.3733 241.768 38.84C241.261 38.28 241.008 37.76 241.008 37.28V24C241.008 22.8267 240.794 21.9467 240.368 21.36C239.968 20.7733 239.528 20.48 239.048 20.48V19.6Z" fill="url(#paint1_linear)"/>
<path d="M44.8073 24.3532C45.2011 24.5806 45.398 24.6942 45.4641 24.8426C45.5217 24.9721 45.5217 25.1199 45.4641 25.2494C45.398 25.3978 45.2011 25.5115 44.8073 25.7388L41.4016 27.7051C41.0078 27.9325 40.8109 28.0462 40.6493 28.0292C40.5084 28.0144 40.3804 27.9405 40.2971 27.8258C40.2016 27.6944 40.2016 27.467 40.2016 27.0123L40.2016 23.0797C40.2016 22.625 40.2016 22.3976 40.2971 22.2662C40.3804 22.1516 40.5084 22.0777 40.6493 22.0628C40.8109 22.0459 41.0078 22.1595 41.4016 22.3869L44.8073 24.3532Z" fill="#545454"/>
<path d="M3.29473 25.7388C2.90093 25.5115 2.70403 25.3978 2.63795 25.2494C2.58032 25.1199 2.58032 24.9721 2.63795 24.8427C2.70403 24.6942 2.90093 24.5806 3.29473 24.3532L6.70045 22.3869C7.09424 22.1596 7.29114 22.0459 7.45271 22.0629C7.59364 22.0777 7.72166 22.1516 7.80495 22.2662C7.90045 22.3977 7.90045 22.625 7.90045 23.0797L7.90045 27.0123C7.90045 27.467 7.90045 27.6944 7.80495 27.8258C7.72166 27.9405 7.59364 28.0144 7.45271 28.0292C7.29114 28.0462 7.09424 27.9325 6.70045 27.7051L3.29473 25.7388Z" fill="#545454"/>
<path d="M23.2865 4.40264C23.5139 4.00884 23.6276 3.81194 23.776 3.74586C23.9055 3.68823 24.0533 3.68823 24.1827 3.74586C24.3311 3.81194 24.4448 4.00884 24.6722 4.40264L26.6385 7.80836C26.8658 8.20215 26.9795 8.39905 26.9625 8.56062C26.9477 8.70155 26.8738 8.82957 26.7592 8.91286C26.6277 9.00836 26.4004 9.00836 25.9457 9.00836L22.0131 9.00836C21.5584 9.00836 21.331 9.00836 21.1996 8.91286C21.0849 8.82957 21.011 8.70155 20.9962 8.56062C20.9792 8.39905 21.0929 8.20215 21.3203 7.80836L23.2865 4.40264Z" fill="#545454"/>
<path d="M24.6724 45.9155C24.4451 46.3093 24.3314 46.5062 24.183 46.5723C24.0535 46.6299 23.9057 46.6299 23.7762 46.5723C23.6278 46.5062 23.5142 46.3093 23.2868 45.9155L21.3205 42.5098C21.0931 42.116 20.9795 41.9191 20.9964 41.7575C21.0113 41.6166 21.0852 41.4885 21.1998 41.4053C21.3313 41.3098 21.5586 41.3098 22.0133 41.3098L25.9459 41.3098C26.4006 41.3098 26.628 41.3098 26.7594 41.4053C26.8741 41.4885 26.948 41.6166 26.9628 41.7575C26.9798 41.9191 26.8661 42.116 26.6387 42.5098L24.6724 45.9155Z" fill="#545454"/>
<path d="M37.4606 10.5839C37.6822 10.5481 37.7929 10.5303 37.8732 10.5649C37.9435 10.5952 37.9995 10.6512 38.0299 10.7215C38.0645 10.8018 38.0466 10.9126 38.0109 11.1342L37.6624 13.2947C37.6426 13.4178 37.6326 13.4793 37.6036 13.5283C37.5779 13.5716 37.5418 13.6077 37.4985 13.6334C37.4495 13.6624 37.388 13.6723 37.265 13.6922L35.1044 14.0407C34.8828 14.0764 34.772 14.0943 34.6917 14.0596C34.6215 14.0293 34.5654 13.9733 34.5351 13.903C34.5005 13.8227 34.5183 13.7119 34.5541 13.4904L34.9026 11.3298C34.9224 11.2067 34.9323 11.1452 34.9614 11.0962C34.987 11.0529 35.0232 11.0168 35.0664 10.9912C35.1154 10.9621 35.177 10.9522 35.3 10.9323L37.4606 10.5839Z" fill="#FFB764"/>
<path d="M9.47889 11.1341C9.44315 10.9126 9.42528 10.8018 9.45991 10.7215C9.49023 10.6512 9.54626 10.5952 9.61654 10.5649C9.69683 10.5302 9.80762 10.5481 10.0292 10.5838L12.1898 10.9323C12.3128 10.9522 12.3743 10.9621 12.4233 10.9911C12.4666 11.0168 12.5027 11.0529 12.5284 11.0962C12.5574 11.1452 12.5674 11.2067 12.5872 11.3298L12.9357 13.4903C12.9714 13.7119 12.9893 13.8227 12.9547 13.903C12.9243 13.9733 12.8683 14.0293 12.798 14.0596C12.7177 14.0942 12.607 14.0764 12.3854 14.0406L10.2248 13.6922C10.1018 13.6723 10.0402 13.6624 9.99123 13.6333C9.94797 13.6077 9.91184 13.5716 9.88619 13.5283C9.85714 13.4793 9.84721 13.4178 9.82737 13.2947L9.47889 11.1341Z" fill="#FFB764"/>
<path d="M37.9955 38.6423C38.0504 38.8599 38.0778 38.9687 38.0503 39.0517C38.0263 39.1244 37.9753 39.1851 37.908 39.2214C37.831 39.2629 37.7191 39.2547 37.4952 39.2385L35.3125 39.0796C35.1882 39.0706 35.126 39.066 35.0747 39.0414C35.0293 39.0196 34.9902 38.9867 34.9609 38.9459C34.9277 38.8996 34.9124 38.8392 34.8819 38.7183L34.3465 36.5963C34.2916 36.3787 34.2641 36.2699 34.2916 36.1869C34.3157 36.1143 34.3666 36.0536 34.434 36.0172C34.5109 35.9757 34.6229 35.9839 34.8467 36.0002L37.0294 36.159C37.1538 36.1681 37.2159 36.1726 37.2673 36.1973C37.3126 36.219 37.3517 36.2519 37.3811 36.2927C37.4143 36.339 37.4295 36.3995 37.46 36.5203L37.9955 38.6423Z" fill="#FFB764"/>
<path d="M10.0597 39.2385C9.83586 39.2548 9.72394 39.263 9.64698 39.2215C9.57961 39.1852 9.52867 39.1245 9.5046 39.0518C9.47709 38.9688 9.50455 38.86 9.55946 38.6424L10.0949 36.5204C10.1254 36.3995 10.1407 36.3391 10.1739 36.2928C10.2032 36.252 10.2423 36.2191 10.2877 36.1973C10.339 36.1727 10.4012 36.1682 10.5255 36.1591L12.7082 36.0003C12.9321 35.984 13.044 35.9758 13.1209 36.0173C13.1883 36.0536 13.2393 36.1144 13.2633 36.187C13.2908 36.27 13.2634 36.3788 13.2085 36.5964L12.673 38.7184C12.6425 38.8393 12.6273 38.8997 12.594 38.946C12.5647 38.9868 12.5256 39.0197 12.4802 39.0415C12.4289 39.0661 12.3667 39.0707 12.2424 39.0797L10.0597 39.2385Z" fill="#FFB764"/>
<path d="M36 37C29.3726 43.6274 18.6274 43.6274 12 37C5.37258 30.3726 5.37258 19.6274 12 13C18.6274 6.37258 29.3726 6.37258 36 13C42.6274 19.6274 42.6274 30.3726 36 37ZM14.0942 15.0942C8.62334 20.565 8.62334 29.435 14.0942 34.9058C19.565 40.3767 28.435 40.3767 33.9058 34.9058C39.3767 29.435 39.3767 20.565 33.9058 15.0942C28.435 9.62334 19.565 9.62334 14.0942 15.0942Z" fill="#545454"/>
<path d="M34.8019 13.1385C35.0462 13.0473 35.3876 13.3652 35.3141 13.6153L30.5441 30.2068C30.3175 30.7925 29.8348 31.1399 29.5905 31.2311L13.5412 37.0039C13.1321 37.101 12.9614 36.9421 13.0291 36.5271L17.5548 20.0269C17.7817 19.4414 17.9405 19.2707 18.5083 19.0026L34.8019 13.1385Z" fill="url(#paint2_linear)"/>
<circle cx="24.1687" cy="24.9892" r="3.58189" transform="rotate(42.951 24.1687 24.9892)" fill="white" stroke="url(#paint3_linear)" stroke-width="0.3"/>
<defs>
<linearGradient id="paint0_linear" x1="152" y1="0" x2="152" y2="51" gradientUnits="userSpaceOnUse">
<stop stop-color="#376CF6"/>
<stop offset="1" stop-color="#0AA7E9"/>
</linearGradient>
<linearGradient id="paint1_linear" x1="152" y1="0" x2="152" y2="51" gradientUnits="userSpaceOnUse">
<stop stop-color="#EF912B"/>
<stop offset="1" stop-color="#FFB764"/>
</linearGradient>
<linearGradient id="paint2_linear" x1="30.6449" y1="10.6638" x2="32.4111" y2="41.6975" gradientUnits="userSpaceOnUse">
<stop stop-color="#537AE0"/>
<stop offset="1" stop-color="#0AA7E9"/>
</linearGradient>
<linearGradient id="paint3_linear" x1="20.4368" y1="24.9892" x2="27.9006" y2="24.9892" gradientUnits="userSpaceOnUse">
<stop stop-color="#FFB764" stop-opacity="0"/>
<stop offset="0.481248" stop-color="#FFB764"/>
<stop offset="1" stop-color="#FFB764" stop-opacity="0"/>
</linearGradient>
</defs>
</svg>
