<svg width="257" height="70" viewBox="0 0 257 70" fill="none" xmlns="http://www.w3.org/2000/svg">
<path d="M2 43.1986V21.9186C2 21.7319 3.52 21.0786 6.56 19.9586C9.6 18.8119 11.3467 18.2386 11.8 18.2386C12.2533 18.2386 12.9333 18.7852 13.84 19.8786C14.7733 20.9719 15.24 21.9586 15.24 22.8386V45.3186C15.24 45.5319 14.16 46.0652 12 46.9186C13.68 50.4919 15.5067 52.2786 17.48 52.2786V53.4386C15.1067 55.0386 13.5333 55.8386 12.76 55.8386C11.6933 55.8386 10.0933 53.3586 7.96 48.3986C6.76 48.8252 5.97333 49.0386 5.6 49.0386C4.88 49.0386 4.09333 48.4652 3.24 47.3186C2.41333 46.1719 2 44.7986 2 43.1986ZM8.84 45.3586C9.34667 45.3586 9.86667 45.1452 10.4 44.7186V24.9186C10.4 22.9452 9.72 21.9586 8.36 21.9586C7.82667 21.9586 7.30667 22.1586 6.8 22.5586V42.3986C6.8 44.3719 7.48 45.3586 8.84 45.3586ZM26.0266 42.7986C26.0266 43.4919 26.2266 44.0652 26.6266 44.5186C27.0532 44.9452 27.5199 45.1586 28.0266 45.1586C28.5332 45.1586 29.0666 44.9586 29.6266 44.5586V32.1186C29.6266 30.4919 29.0799 29.5719 27.9866 29.3586V28.4786L32.0266 26.1986C32.6132 26.4386 33.1599 26.8386 33.6666 27.3986C34.1732 27.9319 34.4266 28.4386 34.4266 28.9186V42.4786C34.4266 43.3586 34.6132 44.1186 34.9866 44.7586C35.3599 45.3986 35.8266 45.7186 36.3866 45.7186V46.5986C36.1999 46.6252 34.7466 47.4386 32.0266 49.0386C31.4132 48.7719 30.8532 48.3852 30.3466 47.8786C29.8666 47.3452 29.6266 46.8386 29.6266 46.3586L24.6266 49.0386C24.5466 48.9852 24.4266 48.9186 24.2666 48.8386C24.1066 48.7319 23.8266 48.5319 23.4266 48.2386C23.0532 47.9186 22.7199 47.5852 22.4266 47.2386C21.6266 46.3586 21.2266 45.3586 21.2266 44.2386V32.1186C21.2266 30.6519 20.5732 29.7852 19.2666 29.5186V28.6386L23.6266 26.1986C24.2132 26.4386 24.7599 26.8386 25.2666 27.3986C25.7732 27.9319 26.0266 28.4386 26.0266 28.9186V42.7986ZM50.2141 26.2386C50.3474 26.2386 50.6807 26.4519 51.2141 26.8786C51.7474 27.2786 52.2807 27.8519 52.8141 28.5986C53.3474 29.3186 53.6141 30.0252 53.6141 30.7186V37.4386C53.6141 37.9186 52.9074 38.5052 51.4941 39.1986C50.0807 39.8919 48.7074 40.4652 47.3741 40.9186C46.0674 41.3452 45.3607 41.5586 45.2541 41.5586C45.2541 43.6119 46.1474 44.8786 47.9341 45.3586C48.8141 45.5719 49.8674 45.6786 51.0941 45.6786V46.8386C46.7207 48.3052 44.3874 49.0386 44.0941 49.0386C43.2941 49.0386 42.4807 48.4786 41.6541 47.3586C40.8274 46.2119 40.4141 44.8786 40.4141 43.3586V29.9186C40.4141 29.7319 41.9341 29.0786 44.9741 27.9586C48.0141 26.8119 49.7607 26.2386 50.2141 26.2386ZM48.8141 32.5986C48.8141 31.8519 48.6407 31.2252 48.2941 30.7186C47.9474 30.1852 47.5074 29.9186 46.9741 29.9186C46.4407 29.9186 45.8541 30.1186 45.2141 30.5186V39.7586C47.6141 39.0919 48.8141 37.6519 48.8141 35.4386V32.5986ZM61.2463 40.2786C60.5796 40.2786 60.0063 39.7719 59.5263 38.7586C59.0463 37.7452 58.8063 36.5052 58.8063 35.0386V30.7186C58.8063 30.2119 60.2063 29.3452 63.0063 28.1186C65.8063 26.8652 67.4196 26.2386 67.8463 26.2386C68.0863 26.2386 68.2996 26.3852 68.4863 26.6786C68.6729 26.9452 68.8196 27.1719 68.9263 27.3586C69.0329 27.5186 69.1929 27.8119 69.4063 28.2386C69.6463 28.6386 69.8463 28.9719 70.0063 29.2386C70.3529 29.8786 70.7929 30.1986 71.3263 30.1986V30.9986C70.8996 31.1852 70.3396 31.4652 69.6463 31.8386C67.9396 32.7719 67.0196 33.2386 66.8863 33.2386C66.4863 33.2386 66.0463 32.5852 65.5663 31.2786C65.1129 29.9719 64.6996 29.3186 64.3263 29.3186C63.8463 29.3186 63.6063 29.7186 63.6063 30.5186V35.4386C63.6063 36.5052 63.8463 37.0386 64.3263 37.0386C64.4329 37.0386 65.2596 36.6919 66.8063 35.9986C68.3529 35.3052 69.2863 34.9586 69.6063 34.9586C70.2463 34.9586 70.8063 35.4786 71.2863 36.5186C71.7929 37.5319 72.0463 38.8386 72.0463 40.4386V44.9586C72.0463 45.4652 70.5129 46.3452 67.4463 47.5986C64.4063 48.8252 62.6596 49.4386 62.2063 49.4386C62.0196 49.4386 61.8329 49.2786 61.6463 48.9586C61.4863 48.6119 61.2463 48.0919 60.9263 47.3986C60.6329 46.7052 60.3396 46.1186 60.0462 45.6386C59.6996 44.9986 59.2596 44.6786 58.7262 44.6786V43.8786C59.1529 43.6919 59.7263 43.4119 60.4463 43.0386C62.1263 42.1052 63.0329 41.6386 63.1663 41.6386C63.5663 41.6386 64.0596 42.4252 64.6463 43.9986C65.2596 45.5719 65.7529 46.3586 66.1263 46.3586C66.3929 46.3586 66.6463 46.2519 66.8863 46.0386C67.1263 45.8252 67.2463 45.5319 67.2463 45.1586V40.1586C67.2463 38.9586 66.9129 38.3586 66.2463 38.3586C66.0329 38.3586 65.1929 38.6786 63.7263 39.3186C62.2596 39.9586 61.4329 40.2786 61.2463 40.2786ZM82.4172 22.0786V26.8386H84.4572L84.0572 28.7986H82.4172V43.1186C82.4172 44.7452 82.9639 45.6652 84.0572 45.8786V46.7586L80.0172 49.0386C79.4305 48.7986 78.8839 48.4119 78.3772 47.8786C77.8705 47.3186 77.6172 46.7986 77.6172 46.3186V28.8386H75.9772L76.3772 27.1586C77.1772 27.1586 78.1372 26.6252 79.2572 25.5586C80.4039 24.4652 81.0839 23.3052 81.2972 22.0786H82.4172Z" fill="url(#paint0_linear)"/>
<g filter="url(#filter0_ii)">
<path d="M114.411 42.0792C114.246 39.6478 115.35 38.7983 116.885 37.2163C117.379 39.8214 120.304 41.0923 120.348 42.6002C120.412 44.8041 118.204 45.5527 117.874 47.6368C115.565 46.2474 114.552 44.1633 114.411 42.0792Z" fill="#FA8D0F"/>
</g>
<g filter="url(#filter1_ii)">
<path d="M118.865 47.5374C118.824 48.1453 119.1 48.3577 119.483 48.7532C119.607 48.1019 120.338 47.7842 120.349 47.4072C120.365 46.8562 119.813 46.6691 119.731 46.148C119.233 47.2645 118.9 47.0164 118.865 47.5374Z" fill="#FA8D0F"/>
</g>
<g filter="url(#filter2_ii)">
<path d="M112.166 40.6649C112.124 40.0571 112.4 39.8447 112.784 39.4492C112.908 40.1005 113.639 40.4182 113.65 40.7952C113.666 41.3462 113.114 41.5333 113.031 42.0543C112.534 40.9379 112.201 41.186 112.166 40.6649Z" fill="#FA8D0F"/>
</g>
<path d="M132 54.0771C123.716 62.3614 110.284 62.3614 102 54.0771C93.7157 45.7929 93.7157 32.3614 102 24.0771C110.284 15.7929 123.716 15.7929 132 24.0771C140.284 32.3614 140.284 45.7929 132 54.0771ZM104.618 26.6949C97.7792 33.5334 97.7792 44.6209 104.618 51.4594C111.456 58.298 122.544 58.298 129.382 51.4594C136.221 44.6209 136.221 33.5334 129.382 26.6949C122.544 19.8563 111.456 19.8563 104.618 26.6949Z" fill="#545454"/>
<path d="M123.545 36.2137C123.253 35.9222 123.253 35.1937 123.545 34.6103C123.836 34.0268 127.043 27.7587 127.043 27.7587C127.189 27.4672 127.626 27.4671 127.918 27.7587C131.906 31.0295 132.796 33.579 131.417 39.7125C131.271 40.2955 130.396 40.0039 129.813 39.7125C129.813 39.7125 123.836 36.5053 123.545 36.2137Z" fill="url(#paint1_linear)"/>
<path d="M110.965 36.2137C111.256 35.9222 111.256 35.1937 110.965 34.6103C110.673 34.0268 107.466 27.7587 107.466 27.7587C107.32 27.4672 106.883 27.4671 106.591 27.7587C102.604 31.0295 101.713 33.579 103.093 39.7125C103.238 40.2955 104.113 40.0039 104.696 39.7125C104.696 39.7125 110.673 36.5053 110.965 36.2137Z" fill="url(#paint2_linear)"/>
<path d="M116.338 0.218645C116.484 -0.0728779 117.067 -0.0728856 117.213 0.218645L126.98 19.4612C127.271 20.1901 127.126 20.919 126.98 21.2105L117.213 40.1616C116.921 40.5989 116.63 40.5989 116.338 40.1616L106.425 21.2105C106.134 20.4817 106.134 20.1901 106.425 19.4612L116.338 0.218645Z" fill="url(#paint3_linear)"/>
<circle cx="116.703" cy="20.1173" r="4.16487" fill="white" stroke="url(#paint4_linear)"/>
<path d="M144.912 39.0769L137.655 43.2668L137.655 34.887L144.912 39.0769Z" fill="#545454"/>
<path d="M89.0879 39.0769L96.345 34.887L96.345 43.2669L89.0879 39.0769Z" fill="#545454"/>
<path d="M117 66.989L112.81 59.7319H121.19L117 66.989Z" fill="#545454"/>
<path d="M149 44.9586V24.7586C149 23.8786 148.813 23.1186 148.44 22.4786C148.067 21.8386 147.6 21.5186 147.04 21.5186V20.6386C147.227 20.6119 148.68 19.7986 151.4 18.1986C151.587 18.2519 151.813 18.3319 152.08 18.4386C152.347 18.5186 152.693 18.7719 153.12 19.1986C153.573 19.6252 153.8 20.1186 153.8 20.6786C153.96 20.5986 154.413 20.3452 155.16 19.9186C157.133 18.7986 158.347 18.2386 158.8 18.2386C159.28 18.2386 159.8 18.4786 160.36 18.9586C160.947 19.4386 161.387 20.0119 161.68 20.6786C161.733 20.6519 162.28 20.3719 163.32 19.8386C165.4 18.7719 166.653 18.2386 167.08 18.2386C167.933 18.2386 168.733 18.7986 169.48 19.9186C170.227 21.0386 170.6 22.0652 170.6 22.9986V43.1186C170.6 44.5852 171.253 45.4519 172.56 45.7186V46.5986L168.2 49.0386C167.613 48.7986 167.067 48.4119 166.56 47.8786C166.053 47.3186 165.8 46.7986 165.8 46.3186V26.7186C165.8 25.1186 165.533 24.0119 165 23.3986C164.493 22.7586 163.56 22.4119 162.2 22.3586V43.1186C162.2 44.5852 162.853 45.4519 164.16 45.7186V46.5986L159.8 49.0386C159.213 48.7986 158.667 48.4119 158.16 47.8786C157.653 47.3186 157.4 46.7986 157.4 46.3186V26.7186C157.4 25.0386 157.147 23.8919 156.64 23.2786C156.16 22.6652 155.213 22.3586 153.8 22.3586V42.8786C153.8 43.8652 153.907 44.5719 154.12 44.9986C154.333 45.4252 154.773 45.6386 155.44 45.6386V46.8786L147.24 50.3186L146.6 49.0386C147.187 49.0386 147.747 48.6919 148.28 47.9986C148.76 47.3319 149 46.3186 149 44.9586ZM188.986 31.5186V42.8386C188.986 43.8252 189.146 44.5186 189.466 44.9186C189.786 45.2919 190.279 45.5586 190.946 45.7186V46.5986L186.586 49.0386C185.999 48.7986 185.453 48.4119 184.946 47.8786C184.439 47.3186 184.186 46.8119 184.186 46.3586L179.186 49.0386C179.106 48.9852 178.986 48.9186 178.826 48.8386C178.666 48.7319 178.386 48.5319 177.986 48.2386C177.613 47.9186 177.279 47.5852 176.986 47.2386C176.186 46.3586 175.786 45.3586 175.786 44.2386V37.6786C175.786 37.2519 176.479 36.7052 177.866 36.0386C179.253 35.3719 180.639 34.8252 182.026 34.3986L184.146 33.7186C184.146 32.1986 183.746 31.1452 182.946 30.5586C182.146 29.9452 180.599 29.6386 178.306 29.6386V28.4386C182.439 26.9719 184.759 26.2386 185.266 26.2386C186.146 26.2386 186.986 26.8119 187.786 27.9586C188.586 29.1052 188.986 30.2919 188.986 31.5186ZM180.586 42.7986C180.586 43.4919 180.786 44.0652 181.186 44.5186C181.613 44.9452 182.079 45.1586 182.586 45.1586C183.093 45.1586 183.626 44.9586 184.186 44.5586V35.5186C183.519 35.7586 183.013 35.9586 182.666 36.1186C182.346 36.2786 181.999 36.5319 181.626 36.8786C180.933 37.5186 180.586 38.6252 180.586 40.1986V42.7986ZM196.832 40.2786C196.166 40.2786 195.592 39.7719 195.112 38.7586C194.632 37.7452 194.392 36.5052 194.392 35.0386V30.7186C194.392 30.2119 195.792 29.3452 198.592 28.1186C201.392 26.8652 203.006 26.2386 203.432 26.2386C203.672 26.2386 203.886 26.3852 204.072 26.6786C204.259 26.9452 204.406 27.1719 204.512 27.3586C204.619 27.5186 204.779 27.8119 204.992 28.2386C205.232 28.6386 205.432 28.9719 205.592 29.2386C205.939 29.8786 206.379 30.1986 206.912 30.1986V30.9986C206.486 31.1852 205.926 31.4652 205.232 31.8386C203.526 32.7719 202.606 33.2386 202.472 33.2386C202.072 33.2386 201.632 32.5852 201.152 31.2786C200.699 29.9719 200.286 29.3186 199.912 29.3186C199.432 29.3186 199.192 29.7186 199.192 30.5186V35.4386C199.192 36.5052 199.432 37.0386 199.912 37.0386C200.019 37.0386 200.846 36.6919 202.392 35.9986C203.939 35.3052 204.872 34.9586 205.192 34.9586C205.832 34.9586 206.392 35.4786 206.872 36.5186C207.379 37.5319 207.632 38.8386 207.632 40.4386V44.9586C207.632 45.4652 206.099 46.3452 203.032 47.5986C199.992 48.8252 198.246 49.4386 197.792 49.4386C197.606 49.4386 197.419 49.2786 197.232 48.9586C197.072 48.6119 196.832 48.0919 196.512 47.3986C196.219 46.7052 195.926 46.1186 195.632 45.6386C195.286 44.9986 194.846 44.6786 194.312 44.6786V43.8786C194.739 43.6919 195.312 43.4119 196.032 43.0386C197.712 42.1052 198.619 41.6386 198.752 41.6386C199.152 41.6386 199.646 42.4252 200.232 43.9986C200.846 45.5719 201.339 46.3586 201.712 46.3586C201.979 46.3586 202.232 46.2519 202.472 46.0386C202.712 45.8252 202.832 45.5319 202.832 45.1586V40.1586C202.832 38.9586 202.499 38.3586 201.832 38.3586C201.619 38.3586 200.779 38.6786 199.312 39.3186C197.846 39.9586 197.019 40.2786 196.832 40.2786ZM218.003 22.0786V26.8386H220.043L219.643 28.7986H218.003V43.1186C218.003 44.7452 218.55 45.6652 219.643 45.8786V46.7586L215.603 49.0386C215.016 48.7986 214.47 48.4119 213.963 47.8786C213.456 47.3186 213.203 46.7986 213.203 46.3186V28.8386H211.563L211.963 27.1586C212.763 27.1586 213.723 26.6252 214.843 25.5586C215.99 24.4652 216.67 23.3052 216.883 22.0786H218.003ZM233.792 26.2386C233.926 26.2386 234.259 26.4519 234.792 26.8786C235.326 27.2786 235.859 27.8519 236.392 28.5986C236.926 29.3186 237.192 30.0252 237.192 30.7186V37.4386C237.192 37.9186 236.486 38.5052 235.072 39.1986C233.659 39.8919 232.286 40.4652 230.952 40.9186C229.646 41.3452 228.939 41.5586 228.832 41.5586C228.832 43.6119 229.726 44.8786 231.512 45.3586C232.392 45.5719 233.446 45.6786 234.672 45.6786V46.8386C230.299 48.3052 227.966 49.0386 227.672 49.0386C226.872 49.0386 226.059 48.4786 225.232 47.3586C224.406 46.2119 223.992 44.8786 223.992 43.3586V29.9186C223.992 29.7319 225.512 29.0786 228.552 27.9586C231.592 26.8119 233.339 26.2386 233.792 26.2386ZM232.392 32.5986C232.392 31.8519 232.219 31.2252 231.872 30.7186C231.526 30.1852 231.086 29.9186 230.552 29.9186C230.019 29.9186 229.432 30.1186 228.792 30.5186V39.7586C231.192 39.0919 232.392 37.6519 232.392 35.4386V32.5986ZM241.024 28.6386L245.424 26.2386C245.611 26.2919 245.824 26.3719 246.064 26.4786C246.331 26.5586 246.678 26.8119 247.104 27.2386C247.558 27.6652 247.784 28.1452 247.784 28.6786C247.918 28.6252 248.544 28.2119 249.664 27.4386C250.811 26.6386 251.544 26.2386 251.864 26.2386C252.718 26.2386 253.518 26.7986 254.264 27.9186C255.011 29.0386 255.384 30.0652 255.384 30.9986V32.9586L251.264 35.2786L250.584 34.7186C250.584 32.4786 250.371 31.1986 249.944 30.8786C249.464 30.5319 248.744 30.3586 247.784 30.3586V43.1186C247.784 44.7452 248.331 45.6652 249.424 45.8786V46.7586L245.384 49.0386C244.798 48.7986 244.251 48.4119 243.744 47.8786C243.238 47.3186 242.984 46.7986 242.984 46.3186V33.0386C242.984 31.8652 242.771 30.9852 242.344 30.3986C241.944 29.8119 241.504 29.5186 241.024 29.5186V28.6386Z" fill="url(#paint5_linear)"/>
<defs>
<filter id="filter0_ii" x="113.895" y="35.7163" width="6.45459" height="12.9205" filterUnits="userSpaceOnUse" color-interpolation-filters="sRGB">
<feFlood flood-opacity="0" result="BackgroundImageFix"/>
<feBlend mode="normal" in="SourceGraphic" in2="BackgroundImageFix" result="shape"/>
<feColorMatrix in="SourceAlpha" type="matrix" values="0 0 0 0 0 0 0 0 0 0 0 0 0 0 0 0 0 0 127 0" result="hardAlpha"/>
<feOffset dy="1"/>
<feGaussianBlur stdDeviation="0.5"/>
<feComposite in2="hardAlpha" operator="arithmetic" k2="-1" k3="1"/>
<feColorMatrix type="matrix" values="0 0 0 0 1 0 0 0 0 0.747547 0 0 0 0 0.456525 0 0 0 1 0"/>
<feBlend mode="normal" in2="shape" result="effect1_innerShadow"/>
<feColorMatrix in="SourceAlpha" type="matrix" values="0 0 0 0 0 0 0 0 0 0 0 0 0 0 0 0 0 0 127 0" result="hardAlpha"/>
<feOffset dx="-0.5" dy="-2.75"/>
<feGaussianBlur stdDeviation="0.75"/>
<feComposite in2="hardAlpha" operator="arithmetic" k2="-1" k3="1"/>
<feColorMatrix type="matrix" values="0 0 0 0 0.972549 0 0 0 0 0.435294 0 0 0 0 0.105882 0 0 0 1 0"/>
<feBlend mode="normal" in2="effect1_innerShadow" result="effect2_innerShadow"/>
</filter>
<filter id="filter1_ii" x="118.511" y="45.6479" width="1.83865" height="3.60513" filterUnits="userSpaceOnUse" color-interpolation-filters="sRGB">
<feFlood flood-opacity="0" result="BackgroundImageFix"/>
<feBlend mode="normal" in="SourceGraphic" in2="BackgroundImageFix" result="shape"/>
<feColorMatrix in="SourceAlpha" type="matrix" values="0 0 0 0 0 0 0 0 0 0 0 0 0 0 0 0 0 0 127 0" result="hardAlpha"/>
<feOffset dy="0.5"/>
<feGaussianBlur stdDeviation="0.5"/>
<feComposite in2="hardAlpha" operator="arithmetic" k2="-1" k3="1"/>
<feColorMatrix type="matrix" values="0 0 0 0 1 0 0 0 0 0.747547 0 0 0 0 0.456525 0 0 0 1 0"/>
<feBlend mode="normal" in2="shape" result="effect1_innerShadow"/>
<feColorMatrix in="SourceAlpha" type="matrix" values="0 0 0 0 0 0 0 0 0 0 0 0 0 0 0 0 0 0 127 0" result="hardAlpha"/>
<feOffset dx="-0.35" dy="-0.5"/>
<feGaussianBlur stdDeviation="0.25"/>
<feComposite in2="hardAlpha" operator="arithmetic" k2="-1" k3="1"/>
<feColorMatrix type="matrix" values="0 0 0 0 0.972549 0 0 0 0 0.435294 0 0 0 0 0.105882 0 0 0 1 0"/>
<feBlend mode="normal" in2="effect1_innerShadow" result="effect2_innerShadow"/>
</filter>
<filter id="filter2_ii" x="111.812" y="38.9492" width="1.83865" height="3.60513" filterUnits="userSpaceOnUse" color-interpolation-filters="sRGB">
<feFlood flood-opacity="0" result="BackgroundImageFix"/>
<feBlend mode="normal" in="SourceGraphic" in2="BackgroundImageFix" result="shape"/>
<feColorMatrix in="SourceAlpha" type="matrix" values="0 0 0 0 0 0 0 0 0 0 0 0 0 0 0 0 0 0 127 0" result="hardAlpha"/>
<feOffset dy="0.5"/>
<feGaussianBlur stdDeviation="0.5"/>
<feComposite in2="hardAlpha" operator="arithmetic" k2="-1" k3="1"/>
<feColorMatrix type="matrix" values="0 0 0 0 1 0 0 0 0 0.747547 0 0 0 0 0.456525 0 0 0 1 0"/>
<feBlend mode="normal" in2="shape" result="effect1_innerShadow"/>
<feColorMatrix in="SourceAlpha" type="matrix" values="0 0 0 0 0 0 0 0 0 0 0 0 0 0 0 0 0 0 127 0" result="hardAlpha"/>
<feOffset dx="-0.35" dy="-0.5"/>
<feGaussianBlur stdDeviation="0.25"/>
<feComposite in2="hardAlpha" operator="arithmetic" k2="-1" k3="1"/>
<feColorMatrix type="matrix" values="0 0 0 0 0.972549 0 0 0 0 0.435294 0 0 0 0 0.105882 0 0 0 1 0"/>
<feBlend mode="normal" in2="effect1_innerShadow" result="effect2_innerShadow"/>
</filter>
<linearGradient id="paint0_linear" x1="43.5" y1="9.03857" x2="43.5" y2="60.0386" gradientUnits="userSpaceOnUse">
<stop stop-color="#376CF6"/>
<stop offset="1" stop-color="#0AA7E9"/>
</linearGradient>
<linearGradient id="paint1_linear" x1="125.079" y1="28.0019" x2="133.48" y2="38.8297" gradientUnits="userSpaceOnUse">
<stop stop-color="#537AE0"/>
<stop offset="1" stop-color="#0AA7E9"/>
</linearGradient>
<linearGradient id="paint2_linear" x1="109.43" y1="28.0019" x2="101.029" y2="38.8297" gradientUnits="userSpaceOnUse">
<stop stop-color="#537AE0"/>
<stop offset="1" stop-color="#0AA7E9"/>
</linearGradient>
<linearGradient id="paint3_linear" x1="110.427" y1="1.495" x2="138.475" y2="28.3842" gradientUnits="userSpaceOnUse">
<stop stop-color="#537AE0"/>
<stop offset="1" stop-color="#0AA7E9"/>
</linearGradient>
<linearGradient id="paint4_linear" x1="112.038" y1="20.1173" x2="121.368" y2="20.1173" gradientUnits="userSpaceOnUse">
<stop stop-color="#FFB764" stop-opacity="0"/>
<stop offset="0.481248" stop-color="#FFB764"/>
<stop offset="1" stop-color="#FFB764" stop-opacity="0"/>
</linearGradient>
<linearGradient id="paint5_linear" x1="202" y1="9.03857" x2="202" y2="60.0386" gradientUnits="userSpaceOnUse">
<stop stop-color="#EF912B"/>
<stop offset="1" stop-color="#FFB764"/>
</linearGradient>
</defs>
</svg>
