<svg width="259" height="75" viewBox="0 0 259 75" fill="none" xmlns="http://www.w3.org/2000/svg">
<path d="M47.4324 26.2663L46.2332 25.9553C45.9783 20.4024 43.6953 15.2183 39.7387 11.2615C36.6764 8.19918 32.8273 6.11074 28.6076 5.22197C28.198 5.13565 27.796 5.39774 27.7096 5.80751C27.6232 6.21717 27.8854 6.61925 28.2951 6.70557C32.2264 7.53359 35.8127 9.47972 38.6665 12.3336C42.2416 15.9087 44.3499 20.5591 44.6915 25.5555L41.9555 24.8458C41.6284 22.1048 40.6666 19.4497 39.1579 17.136C38.9293 16.7852 38.4597 16.6862 38.1088 16.9149C37.7581 17.1437 37.6592 17.6133 37.8879 17.964C39.1607 19.9162 40.0078 22.1339 40.3676 24.4339L33.6676 22.6961L37.5717 14.4377C37.7086 14.1483 37.6488 13.8039 37.4222 13.5776C37.1959 13.3512 36.8515 13.2915 36.5621 13.4285L28.3049 17.3362L26.5662 10.6326C28.8336 10.9875 31.0231 11.8161 32.9541 13.0592C33.0811 13.1408 33.2232 13.1798 33.3638 13.1798C33.613 13.1798 33.857 13.057 34.0019 12.8319C34.2285 12.4799 34.1267 12.0108 33.7748 11.7842C31.4835 10.3094 28.8593 9.36743 26.1543 9.04449L24.7339 3.56775C24.6472 3.23349 24.3454 3 24.0001 3C23.6547 3 23.353 3.23349 23.2662 3.56775L21.8455 9.04519C18.0113 9.50054 14.5489 11.1537 11.839 13.6181L11.4376 13.4284C11.148 13.2915 10.8039 13.3514 10.5775 13.5778C10.3511 13.8043 10.2914 14.1486 10.4284 14.438L10.6179 14.8384C8.15133 17.5514 6.50004 21.0165 6.04519 24.8456L3.31875 25.5527C3.65291 20.7335 5.65746 16.0096 9.33352 12.3335C12.1569 9.51015 15.702 7.57291 19.5854 6.73104C19.9946 6.6424 20.2544 6.2387 20.1657 5.82964C20.0771 5.42048 19.6734 5.16041 19.2643 5.24936C15.0958 6.15299 11.2911 8.23193 8.2615 11.2615C4.30476 15.2181 2.02184 20.4024 1.76702 25.9552L0.567849 26.2662C0.233487 26.353 0 26.6547 0 27.0001C0 27.3454 0.233487 27.6471 0.567748 27.7339L1.76692 28.0449C2.02184 33.5977 4.30475 38.7819 8.2614 42.7386C12.2181 46.6954 17.4023 48.9783 22.9551 49.2331L23.2661 50.4323C23.3529 50.7666 23.6546 51 24 51C24.3453 51 24.647 50.7665 24.7338 50.4323L25.0448 49.2331C30.5977 48.9782 35.7819 46.6953 39.7386 42.7386C43.6953 38.7819 45.9782 33.5977 46.2331 28.0448L47.4323 27.7338C47.7666 27.647 48 27.3453 48 27C48 26.6546 47.7667 26.353 47.4324 26.2663ZM35.2948 38.2955L28.6915 35.1738L28.9533 34.1644L29.4084 32.41L29.4096 32.4097L35.2941 38.2942L35.2948 38.2955ZM20.0559 32.0163L24.0001 28.0722V47.2227L20.0559 32.0163ZM12.7046 38.2948L15.8263 31.6915L17.2093 32.0502L18.5901 32.4084L18.5904 32.4096L12.7059 38.2941L12.7046 38.2948ZM18.95 20.2094L18.5917 21.5902L18.5905 21.5905L12.7059 15.7059L12.7053 15.7046L19.3086 18.8263L18.95 20.2094ZM14.3325 31.3041L11.3183 37.68C9.41337 35.4177 8.10554 32.6341 7.63068 29.5658L14.3325 31.3041ZM19.6951 36.6639L21.4343 43.3694C18.3656 42.8945 15.5818 41.5864 13.3194 39.6812L19.6951 36.6639ZM28.3041 36.6676L34.6801 39.6818C32.4178 41.5868 29.6342 42.8946 26.5658 43.3694L28.3041 36.6676ZM33.664 31.305L40.3695 29.5658C39.8947 32.6345 38.5866 35.4183 36.6814 37.6808L33.664 31.305ZM29.0164 30.9442L25.0723 27.0001H44.2227L29.0164 30.9442ZM32.1739 22.3087L30.2926 21.8207L29.41 21.5917L29.4097 21.5905L35.2943 15.7059L35.2956 15.7053L32.1739 22.3087ZM27.9443 21.9839L24.0002 25.928V6.77754L27.9443 21.9839ZM21.4341 10.6316L19.6961 17.3325L13.3327 14.3242C15.5946 12.4186 18.3745 11.1071 21.4341 10.6316ZM11.3249 16.3321L14.3363 22.6952L7.63089 24.4343C8.10605 21.378 9.41752 18.5964 11.3249 16.3321ZM18.9839 23.0559L22.928 27.0001H3.77754L18.9839 23.0559ZM9.33352 41.6666C5.65746 37.9905 3.65291 33.2666 3.31875 28.4474L6.0454 29.1546C6.48912 32.8755 8.09321 36.3822 10.6181 39.1611L10.4284 39.5624C10.2915 39.8518 10.3513 40.1962 10.5778 40.4225C10.7231 40.5679 10.9171 40.6445 11.1139 40.6445C11.2237 40.6445 11.3343 40.6206 11.438 40.5716L11.8389 40.3819C14.6178 42.9069 18.1245 44.511 21.8455 44.9547L22.5527 47.6813C17.7336 47.3473 13.0096 45.3426 9.33352 41.6666ZM38.6666 41.6666C34.9905 45.3426 30.2666 47.3472 25.4475 47.6813L26.1547 44.9547C29.8756 44.511 33.3823 42.9069 36.1612 40.382L36.5626 40.5717C36.6661 40.6206 36.7766 40.6445 36.8863 40.6445C37.0832 40.6445 37.2773 40.5678 37.4227 40.4223C37.649 40.1958 37.7088 39.8515 37.5718 39.5621L37.3821 39.1611C39.9071 36.3822 41.5112 32.8755 41.9549 29.1546L44.6917 28.4447C44.35 33.4411 42.2417 38.0915 38.6666 41.6666Z" fill="#545454"/>
<path d="M55 34.16V12.88C55 12.6933 56.52 12.04 59.56 10.92C62.6 9.77333 64.3467 9.2 64.8 9.2C65.2533 9.2 65.9333 9.74667 66.84 10.84C67.7733 11.9333 68.24 12.92 68.24 13.8V36.28C68.24 36.4933 67.16 37.0267 65 37.88C66.68 41.4533 68.5067 43.24 70.48 43.24V44.4C68.1067 46 66.5333 46.8 65.76 46.8C64.6933 46.8 63.0933 44.32 60.96 39.36C59.76 39.7867 58.9733 40 58.6 40C57.88 40 57.0933 39.4267 56.24 38.28C55.4133 37.1333 55 35.76 55 34.16ZM61.84 36.32C62.3467 36.32 62.8667 36.1067 63.4 35.68V15.88C63.4 13.9067 62.72 12.92 61.36 12.92C60.8267 12.92 60.3067 13.12 59.8 13.52V33.36C59.8 35.3333 60.48 36.32 61.84 36.32ZM79.0266 33.76C79.0266 34.4533 79.2266 35.0267 79.6266 35.48C80.0532 35.9067 80.5199 36.12 81.0266 36.12C81.5332 36.12 82.0666 35.92 82.6266 35.52V23.08C82.6266 21.4533 82.0799 20.5333 80.9866 20.32V19.44L85.0266 17.16C85.6132 17.4 86.1599 17.8 86.6666 18.36C87.1732 18.8933 87.4266 19.4 87.4266 19.88V33.44C87.4266 34.32 87.6132 35.08 87.9866 35.72C88.3599 36.36 88.8266 36.68 89.3866 36.68V37.56C89.1999 37.5867 87.7466 38.4 85.0266 40C84.4132 39.7333 83.8532 39.3467 83.3466 38.84C82.8666 38.3067 82.6266 37.8 82.6266 37.32L77.6266 40C77.5466 39.9467 77.4266 39.88 77.2666 39.8C77.1066 39.6933 76.8266 39.4933 76.4266 39.2C76.0532 38.88 75.7199 38.5467 75.4266 38.2C74.6266 37.32 74.2266 36.32 74.2266 35.2V23.08C74.2266 21.6133 73.5732 20.7467 72.2666 20.48V19.6L76.6266 17.16C77.2132 17.4 77.7599 17.8 78.2666 18.36C78.7732 18.8933 79.0266 19.4 79.0266 19.88V33.76ZM103.214 17.2C103.347 17.2 103.681 17.4133 104.214 17.84C104.747 18.24 105.281 18.8133 105.814 19.56C106.347 20.28 106.614 20.9867 106.614 21.68V28.4C106.614 28.88 105.907 29.4667 104.494 30.16C103.081 30.8533 101.707 31.4267 100.374 31.88C99.0674 32.3067 98.3607 32.52 98.2541 32.52C98.2541 34.5733 99.1474 35.84 100.934 36.32C101.814 36.5333 102.867 36.64 104.094 36.64V37.8C99.7207 39.2667 97.3874 40 97.0941 40C96.2941 40 95.4807 39.44 94.6541 38.32C93.8274 37.1733 93.4141 35.84 93.4141 34.32V20.88C93.4141 20.6933 94.9341 20.04 97.9741 18.92C101.014 17.7733 102.761 17.2 103.214 17.2ZM101.814 23.56C101.814 22.8133 101.641 22.1867 101.294 21.68C100.947 21.1467 100.507 20.88 99.9741 20.88C99.4407 20.88 98.8541 21.08 98.2141 21.48V30.72C100.614 30.0533 101.814 28.6133 101.814 26.4V23.56ZM114.246 31.24C113.58 31.24 113.006 30.7333 112.526 29.72C112.046 28.7067 111.806 27.4667 111.806 26V21.68C111.806 21.1733 113.206 20.3067 116.006 19.08C118.806 17.8267 120.42 17.2 120.846 17.2C121.086 17.2 121.3 17.3467 121.486 17.64C121.673 17.9067 121.82 18.1333 121.926 18.32C122.033 18.48 122.193 18.7733 122.406 19.2C122.646 19.6 122.846 19.9333 123.006 20.2C123.353 20.84 123.793 21.16 124.326 21.16V21.96C123.9 22.1467 123.34 22.4267 122.646 22.8C120.94 23.7333 120.02 24.2 119.886 24.2C119.486 24.2 119.046 23.5467 118.566 22.24C118.113 20.9333 117.7 20.28 117.326 20.28C116.846 20.28 116.606 20.68 116.606 21.48V26.4C116.606 27.4667 116.846 28 117.326 28C117.433 28 118.26 27.6533 119.806 26.96C121.353 26.2667 122.286 25.92 122.606 25.92C123.246 25.92 123.806 26.44 124.286 27.48C124.793 28.4933 125.046 29.8 125.046 31.4V35.92C125.046 36.4267 123.513 37.3067 120.446 38.56C117.406 39.7867 115.66 40.4 115.206 40.4C115.02 40.4 114.833 40.24 114.646 39.92C114.486 39.5733 114.246 39.0533 113.926 38.36C113.633 37.6667 113.34 37.08 113.046 36.6C112.7 35.96 112.26 35.64 111.726 35.64V34.84C112.153 34.6533 112.726 34.3733 113.446 34C115.126 33.0667 116.033 32.6 116.166 32.6C116.566 32.6 117.06 33.3867 117.646 34.96C118.26 36.5333 118.753 37.32 119.126 37.32C119.393 37.32 119.646 37.2133 119.886 37C120.126 36.7867 120.246 36.4933 120.246 36.12V31.12C120.246 29.92 119.913 29.32 119.246 29.32C119.033 29.32 118.193 29.64 116.726 30.28C115.26 30.92 114.433 31.24 114.246 31.24ZM135.417 13.04V17.8H137.457L137.057 19.76H135.417V34.08C135.417 35.7067 135.964 36.6267 137.057 36.84V37.72L133.017 40C132.431 39.76 131.884 39.3733 131.377 38.84C130.871 38.28 130.617 37.76 130.617 37.28V19.8H128.977L129.377 18.12C130.177 18.12 131.137 17.5867 132.257 16.52C133.404 15.4267 134.084 14.2667 134.297 13.04H135.417Z" fill="#376CF6"/>
<path d="M151.023 35.92V15.72C151.023 14.84 150.837 14.08 150.463 13.44C150.09 12.8 149.623 12.48 149.063 12.48V11.6C149.25 11.5733 150.703 10.76 153.423 9.16C153.61 9.21333 153.837 9.29333 154.103 9.4C154.37 9.48 154.717 9.73333 155.143 10.16C155.597 10.5867 155.823 11.08 155.823 11.64C155.983 11.56 156.437 11.3067 157.183 10.88C159.157 9.76 160.37 9.2 160.823 9.2C161.303 9.2 161.823 9.44 162.383 9.92C162.97 10.4 163.41 10.9733 163.703 11.64C163.757 11.6133 164.303 11.3333 165.343 10.8C167.423 9.73333 168.677 9.2 169.103 9.2C169.957 9.2 170.757 9.76 171.503 10.88C172.25 12 172.623 13.0267 172.623 13.96V34.08C172.623 35.5467 173.277 36.4133 174.583 36.68V37.56L170.223 40C169.637 39.76 169.09 39.3733 168.583 38.84C168.077 38.28 167.823 37.76 167.823 37.28V17.68C167.823 16.08 167.557 14.9733 167.023 14.36C166.517 13.72 165.583 13.3733 164.223 13.32V34.08C164.223 35.5467 164.877 36.4133 166.183 36.68V37.56L161.823 40C161.237 39.76 160.69 39.3733 160.183 38.84C159.677 38.28 159.423 37.76 159.423 37.28V17.68C159.423 16 159.17 14.8533 158.663 14.24C158.183 13.6267 157.237 13.32 155.823 13.32V33.84C155.823 34.8267 155.93 35.5333 156.143 35.96C156.357 36.3867 156.797 36.6 157.463 36.6V37.84L149.263 41.28L148.623 40C149.21 40 149.77 39.6533 150.303 38.96C150.783 38.2933 151.023 37.28 151.023 35.92ZM191.009 22.48V33.8C191.009 34.7867 191.169 35.48 191.489 35.88C191.809 36.2533 192.303 36.52 192.969 36.68V37.56L188.609 40C188.023 39.76 187.476 39.3733 186.969 38.84C186.463 38.28 186.209 37.7733 186.209 37.32L181.209 40C181.129 39.9467 181.009 39.88 180.849 39.8C180.689 39.6933 180.409 39.4933 180.009 39.2C179.636 38.88 179.303 38.5467 179.009 38.2C178.209 37.32 177.809 36.32 177.809 35.2V28.64C177.809 28.2133 178.503 27.6667 179.889 27C181.276 26.3333 182.663 25.7867 184.049 25.36L186.169 24.68C186.169 23.16 185.769 22.1067 184.969 21.52C184.169 20.9067 182.623 20.6 180.329 20.6V19.4C184.463 17.9333 186.783 17.2 187.289 17.2C188.169 17.2 189.009 17.7733 189.809 18.92C190.609 20.0667 191.009 21.2533 191.009 22.48ZM182.609 33.76C182.609 34.4533 182.809 35.0267 183.209 35.48C183.636 35.9067 184.103 36.12 184.609 36.12C185.116 36.12 185.649 35.92 186.209 35.52V26.48C185.543 26.72 185.036 26.92 184.689 27.08C184.369 27.24 184.023 27.4933 183.649 27.84C182.956 28.48 182.609 29.5867 182.609 31.16V33.76ZM198.856 31.24C198.189 31.24 197.616 30.7333 197.136 29.72C196.656 28.7067 196.416 27.4667 196.416 26V21.68C196.416 21.1733 197.816 20.3067 200.616 19.08C203.416 17.8267 205.029 17.2 205.456 17.2C205.696 17.2 205.909 17.3467 206.096 17.64C206.282 17.9067 206.429 18.1333 206.536 18.32C206.642 18.48 206.802 18.7733 207.016 19.2C207.256 19.6 207.456 19.9333 207.616 20.2C207.962 20.84 208.402 21.16 208.936 21.16V21.96C208.509 22.1467 207.949 22.4267 207.256 22.8C205.549 23.7333 204.629 24.2 204.496 24.2C204.096 24.2 203.656 23.5467 203.176 22.24C202.722 20.9333 202.309 20.28 201.936 20.28C201.456 20.28 201.216 20.68 201.216 21.48V26.4C201.216 27.4667 201.456 28 201.936 28C202.042 28 202.869 27.6533 204.416 26.96C205.962 26.2667 206.896 25.92 207.216 25.92C207.856 25.92 208.416 26.44 208.896 27.48C209.402 28.4933 209.656 29.8 209.656 31.4V35.92C209.656 36.4267 208.122 37.3067 205.056 38.56C202.016 39.7867 200.269 40.4 199.816 40.4C199.629 40.4 199.442 40.24 199.256 39.92C199.096 39.5733 198.856 39.0533 198.536 38.36C198.242 37.6667 197.949 37.08 197.656 36.6C197.309 35.96 196.869 35.64 196.336 35.64V34.84C196.762 34.6533 197.336 34.3733 198.056 34C199.736 33.0667 200.642 32.6 200.776 32.6C201.176 32.6 201.669 33.3867 202.256 34.96C202.869 36.5333 203.362 37.32 203.736 37.32C204.002 37.32 204.256 37.2133 204.496 37C204.736 36.7867 204.856 36.4933 204.856 36.12V31.12C204.856 29.92 204.522 29.32 203.856 29.32C203.642 29.32 202.802 29.64 201.336 30.28C199.869 30.92 199.042 31.24 198.856 31.24ZM220.027 13.04V17.8H222.067L221.667 19.76H220.027V34.08C220.027 35.7067 220.573 36.6267 221.667 36.84V37.72L217.627 40C217.04 39.76 216.493 39.3733 215.987 38.84C215.48 38.28 215.227 37.76 215.227 37.28V19.8H213.587L213.987 18.12C214.787 18.12 215.747 17.5867 216.867 16.52C218.013 15.4267 218.693 14.2667 218.907 13.04H220.027ZM235.816 17.2C235.949 17.2 236.282 17.4133 236.816 17.84C237.349 18.24 237.882 18.8133 238.416 19.56C238.949 20.28 239.216 20.9867 239.216 21.68V28.4C239.216 28.88 238.509 29.4667 237.096 30.16C235.682 30.8533 234.309 31.4267 232.976 31.88C231.669 32.3067 230.962 32.52 230.856 32.52C230.856 34.5733 231.749 35.84 233.536 36.32C234.416 36.5333 235.469 36.64 236.696 36.64V37.8C232.322 39.2667 229.989 40 229.696 40C228.896 40 228.082 39.44 227.256 38.32C226.429 37.1733 226.016 35.84 226.016 34.32V20.88C226.016 20.6933 227.536 20.04 230.576 18.92C233.616 17.7733 235.362 17.2 235.816 17.2ZM234.416 23.56C234.416 22.8133 234.242 22.1867 233.896 21.68C233.549 21.1467 233.109 20.88 232.576 20.88C232.042 20.88 231.456 21.08 230.816 21.48V30.72C233.216 30.0533 234.416 28.6133 234.416 26.4V23.56ZM243.048 19.6L247.448 17.2C247.634 17.2533 247.848 17.3333 248.088 17.44C248.354 17.52 248.701 17.7733 249.128 18.2C249.581 18.6267 249.808 19.1067 249.808 19.64C249.941 19.5867 250.568 19.1733 251.688 18.4C252.834 17.6 253.568 17.2 253.888 17.2C254.741 17.2 255.541 17.76 256.288 18.88C257.034 20 257.408 21.0267 257.408 21.96V23.92L253.288 26.24L252.608 25.68C252.608 23.44 252.394 22.16 251.968 21.84C251.488 21.4933 250.768 21.32 249.808 21.32V34.08C249.808 35.7067 250.354 36.6267 251.448 36.84V37.72L247.408 40C246.821 39.76 246.274 39.3733 245.768 38.84C245.261 38.28 245.008 37.76 245.008 37.28V24C245.008 22.8267 244.794 21.9467 244.368 21.36C243.968 20.7733 243.528 20.48 243.048 20.48V19.6Z" fill="#545454"/>
<path d="M24.08 61.08C23.76 60.344 23.2693 59.768 22.608 59.352C21.9573 58.9253 21.1893 58.712 20.304 58.712C19.472 58.712 18.7253 58.904 18.064 59.288C17.4027 59.672 16.88 60.2213 16.496 60.936C16.112 61.64 15.92 62.4613 15.92 63.4C15.92 64.3387 16.112 65.1653 16.496 65.88C16.88 66.5947 17.4027 67.144 18.064 67.528C18.7253 67.912 19.472 68.104 20.304 68.104C21.0827 68.104 21.7813 67.9387 22.4 67.608C23.0293 67.2667 23.5307 66.7867 23.904 66.168C24.288 65.5387 24.5067 64.808 24.56 63.976H19.856V63.064H25.744V63.88C25.6907 64.8613 25.424 65.752 24.944 66.552C24.464 67.3413 23.8187 67.9653 23.008 68.424C22.208 68.8827 21.3067 69.112 20.304 69.112C19.2693 69.112 18.3307 68.872 17.488 68.392C16.6453 67.9013 15.9787 67.224 15.488 66.36C15.008 65.4853 14.768 64.4987 14.768 63.4C14.768 62.3013 15.008 61.32 15.488 60.456C15.9787 59.5813 16.6453 58.904 17.488 58.424C18.3307 57.9333 19.2693 57.688 20.304 57.688C21.4987 57.688 22.544 57.9867 23.44 58.584C24.336 59.1813 24.9867 60.0133 25.392 61.08H24.08ZM36.1636 60.264V69H35.0436V67.464C34.7876 68.008 34.393 68.424 33.8596 68.712C33.3263 69 32.729 69.144 32.0676 69.144C31.0223 69.144 30.169 68.824 29.5076 68.184C28.8463 67.5333 28.5156 66.5947 28.5156 65.368V60.264H29.6196V65.24C29.6196 66.1893 29.8543 66.9147 30.3236 67.416C30.8036 67.9173 31.4543 68.168 32.2756 68.168C33.1183 68.168 33.7903 67.9013 34.2916 67.368C34.793 66.8347 35.0436 66.0507 35.0436 65.016V60.264H36.1636ZM40.0806 58.616C39.8566 58.616 39.6646 58.536 39.5046 58.376C39.3446 58.216 39.2646 58.0187 39.2646 57.784C39.2646 57.5493 39.3446 57.3573 39.5046 57.208C39.6646 57.048 39.8566 56.968 40.0806 56.968C40.3046 56.968 40.4966 57.048 40.6566 57.208C40.8166 57.3573 40.8966 57.5493 40.8966 57.784C40.8966 58.0187 40.8166 58.216 40.6566 58.376C40.4966 58.536 40.3046 58.616 40.0806 58.616ZM40.6406 60.264V69H39.5206V60.264H40.6406ZM43.4649 64.616C43.4649 63.72 43.6462 62.936 44.0089 62.264C44.3715 61.5813 44.8675 61.0587 45.4969 60.696C46.1369 60.3227 46.8569 60.136 47.6569 60.136C48.4249 60.136 49.1182 60.3227 49.7369 60.696C50.3555 61.0693 50.8089 61.5547 51.0969 62.152V57.16H52.2169V69H51.0969V67.048C50.8302 67.656 50.3929 68.1573 49.7849 68.552C49.1769 68.936 48.4622 69.128 47.6409 69.128C46.8409 69.128 46.1209 68.9413 45.4809 68.568C44.8515 68.1947 44.3555 67.6667 43.9929 66.984C43.6409 66.3013 43.4649 65.512 43.4649 64.616ZM51.0969 64.632C51.0969 63.928 50.9529 63.3093 50.6649 62.776C50.3769 62.2427 49.9822 61.832 49.4809 61.544C48.9902 61.256 48.4462 61.112 47.8489 61.112C47.2302 61.112 46.6755 61.2507 46.1849 61.528C45.6942 61.8053 45.3049 62.2107 45.0169 62.744C44.7395 63.2667 44.6009 63.8907 44.6009 64.616C44.6009 65.3307 44.7395 65.96 45.0169 66.504C45.3049 67.0373 45.6942 67.448 46.1849 67.736C46.6755 68.0133 47.2302 68.152 47.8489 68.152C48.4462 68.152 48.9902 68.008 49.4809 67.72C49.9822 67.432 50.3769 67.0213 50.6649 66.488C50.9529 65.9547 51.0969 65.336 51.0969 64.632ZM56.1338 58.616C55.9098 58.616 55.7178 58.536 55.5578 58.376C55.3978 58.216 55.3178 58.0187 55.3178 57.784C55.3178 57.5493 55.3978 57.3573 55.5578 57.208C55.7178 57.048 55.9098 56.968 56.1338 56.968C56.3578 56.968 56.5498 57.048 56.7098 57.208C56.8698 57.3573 56.9498 57.5493 56.9498 57.784C56.9498 58.0187 56.8698 58.216 56.7098 58.376C56.5498 58.536 56.3578 58.616 56.1338 58.616ZM56.6938 60.264V69H55.5738V60.264H56.6938ZM64.126 60.104C65.1713 60.104 66.0247 60.4293 66.686 61.08C67.3473 61.72 67.678 62.6533 67.678 63.88V69H66.574V64.008C66.574 63.0587 66.334 62.3333 65.854 61.832C65.3847 61.3307 64.7393 61.08 63.918 61.08C63.0753 61.08 62.4033 61.3467 61.902 61.88C61.4007 62.4133 61.15 63.1973 61.15 64.232V69H60.03V60.264H61.15V61.752C61.4273 61.2187 61.8273 60.8133 62.35 60.536C62.8727 60.248 63.4647 60.104 64.126 60.104ZM74.619 60.136C75.4403 60.136 76.155 60.328 76.763 60.712C77.371 61.096 77.8083 61.5813 78.075 62.168V60.264H79.195V69.224C79.195 70.024 79.019 70.7333 78.667 71.352C78.3257 71.9707 77.8457 72.4453 77.227 72.776C76.6083 73.1173 75.9043 73.288 75.115 73.288C73.995 73.288 73.0617 73.0213 72.315 72.488C71.579 71.9547 71.1203 71.2293 70.939 70.312H72.043C72.235 70.92 72.5977 71.4053 73.131 71.768C73.675 72.1307 74.3363 72.312 75.115 72.312C75.6803 72.312 76.187 72.1893 76.635 71.944C77.083 71.7093 77.435 71.3573 77.691 70.888C77.947 70.4187 78.075 69.864 78.075 69.224V67.064C77.7977 67.6613 77.355 68.1573 76.747 68.552C76.1497 68.936 75.4403 69.128 74.619 69.128C73.819 69.128 73.099 68.9413 72.459 68.568C71.8297 68.1947 71.3337 67.6667 70.971 66.984C70.619 66.3013 70.443 65.512 70.443 64.616C70.443 63.72 70.619 62.936 70.971 62.264C71.3337 61.5813 71.8297 61.0587 72.459 60.696C73.099 60.3227 73.819 60.136 74.619 60.136ZM78.075 64.632C78.075 63.928 77.931 63.3093 77.643 62.776C77.355 62.2427 76.9603 61.832 76.459 61.544C75.9683 61.256 75.4243 61.112 74.827 61.112C74.2083 61.112 73.6537 61.2507 73.163 61.528C72.6723 61.8053 72.283 62.2107 71.995 62.744C71.7177 63.2667 71.579 63.8907 71.579 64.616C71.579 65.3307 71.7177 65.96 71.995 66.504C72.283 67.0373 72.6723 67.448 73.163 67.736C73.6537 68.0133 74.2083 68.152 74.827 68.152C75.4243 68.152 75.9683 68.008 76.459 67.72C76.9603 67.432 77.355 67.0213 77.643 66.488C77.931 65.9547 78.075 65.336 78.075 64.632ZM94.9425 60.264L89.7585 73.112H88.5905L90.2865 68.952L86.7025 60.264H87.9345L90.9105 67.72L93.7905 60.264H94.9425ZM101.085 69.128C100.264 69.128 99.5226 68.9467 98.8612 68.584C98.2106 68.2107 97.6932 67.688 97.3092 67.016C96.9359 66.3333 96.7492 65.5387 96.7492 64.632C96.7492 63.7253 96.9412 62.936 97.3252 62.264C97.7092 61.5813 98.2319 61.0587 98.8932 60.696C99.5546 60.3227 100.296 60.136 101.117 60.136C101.939 60.136 102.68 60.3227 103.341 60.696C104.013 61.0587 104.536 61.5813 104.909 62.264C105.293 62.936 105.485 63.7253 105.485 64.632C105.485 65.528 105.293 66.3173 104.909 67C104.525 67.6827 103.997 68.2107 103.325 68.584C102.653 68.9467 101.907 69.128 101.085 69.128ZM101.085 68.152C101.661 68.152 102.195 68.024 102.685 67.768C103.176 67.5013 103.571 67.1067 103.869 66.584C104.179 66.0507 104.333 65.4 104.333 64.632C104.333 63.864 104.184 63.2187 103.885 62.696C103.587 62.1627 103.192 61.768 102.701 61.512C102.211 61.2453 101.677 61.112 101.101 61.112C100.525 61.112 99.9919 61.2453 99.5012 61.512C99.0106 61.768 98.6159 62.1627 98.3172 62.696C98.0292 63.2187 97.8852 63.864 97.8852 64.632C97.8852 65.4 98.0292 66.0507 98.3172 66.584C98.6159 67.1067 99.0052 67.5013 99.4852 67.768C99.9759 68.024 100.509 68.152 101.085 68.152ZM115.895 60.264V69H114.775V67.464C114.519 68.008 114.124 68.424 113.591 68.712C113.058 69 112.46 69.144 111.799 69.144C110.754 69.144 109.9 68.824 109.239 68.184C108.578 67.5333 108.247 66.5947 108.247 65.368V60.264H109.351V65.24C109.351 66.1893 109.586 66.9147 110.055 67.416C110.535 67.9173 111.186 68.168 112.007 68.168C112.85 68.168 113.522 67.9013 114.023 67.368C114.524 66.8347 114.775 66.0507 114.775 65.016V60.264H115.895ZM125.002 58.616C124.778 58.616 124.586 58.536 124.426 58.376C124.266 58.216 124.186 58.0187 124.186 57.784C124.186 57.5493 124.266 57.3573 124.426 57.208C124.586 57.048 124.778 56.968 125.002 56.968C125.226 56.968 125.418 57.048 125.578 57.208C125.738 57.3573 125.818 57.5493 125.818 57.784C125.818 58.0187 125.738 58.216 125.578 58.376C125.418 58.536 125.226 58.616 125.002 58.616ZM125.562 60.264V69H124.442V60.264H125.562ZM132.995 60.104C134.04 60.104 134.893 60.4293 135.555 61.08C136.216 61.72 136.547 62.6533 136.547 63.88V69H135.443V64.008C135.443 63.0587 135.203 62.3333 134.723 61.832C134.253 61.3307 133.608 61.08 132.787 61.08C131.944 61.08 131.272 61.3467 130.771 61.88C130.269 62.4133 130.019 63.1973 130.019 64.232V69H128.899V60.264H130.019V61.752C130.296 61.2187 130.696 60.8133 131.219 60.536C131.741 60.248 132.333 60.104 132.995 60.104ZM141.28 61.208V66.632C141.28 67.1653 141.381 67.5333 141.584 67.736C141.786 67.9387 142.144 68.04 142.656 68.04H143.68V69H142.48C141.69 69 141.104 68.8187 140.72 68.456C140.336 68.0827 140.144 67.4747 140.144 66.632V61.208H138.928V60.264H140.144V58.072H141.28V60.264H143.68V61.208H141.28ZM150.151 69.128C149.33 69.128 148.588 68.9467 147.927 68.584C147.276 68.2107 146.759 67.688 146.375 67.016C146.002 66.3333 145.815 65.5387 145.815 64.632C145.815 63.7253 146.007 62.936 146.391 62.264C146.775 61.5813 147.298 61.0587 147.959 60.696C148.62 60.3227 149.362 60.136 150.183 60.136C151.004 60.136 151.746 60.3227 152.407 60.696C153.079 61.0587 153.602 61.5813 153.975 62.264C154.359 62.936 154.551 63.7253 154.551 64.632C154.551 65.528 154.359 66.3173 153.975 67C153.591 67.6827 153.063 68.2107 152.391 68.584C151.719 68.9467 150.972 69.128 150.151 69.128ZM150.151 68.152C150.727 68.152 151.26 68.024 151.751 67.768C152.242 67.5013 152.636 67.1067 152.935 66.584C153.244 66.0507 153.399 65.4 153.399 64.632C153.399 63.864 153.25 63.2187 152.951 62.696C152.652 62.1627 152.258 61.768 151.767 61.512C151.276 61.2453 150.743 61.112 150.167 61.112C149.591 61.112 149.058 61.2453 148.567 61.512C148.076 61.768 147.682 62.1627 147.383 62.696C147.095 63.2187 146.951 63.864 146.951 64.632C146.951 65.4 147.095 66.0507 147.383 66.584C147.682 67.1067 148.071 67.5013 148.551 67.768C149.042 68.024 149.575 68.152 150.151 68.152ZM164.039 61.208V66.632C164.039 67.1653 164.14 67.5333 164.343 67.736C164.546 67.9387 164.903 68.04 165.415 68.04H166.439V69H165.239C164.45 69 163.863 68.8187 163.479 68.456C163.095 68.0827 162.903 67.4747 162.903 66.632V61.208H161.687V60.264H162.903V58.072H164.039V60.264H166.439V61.208H164.039ZM173.246 60.104C173.908 60.104 174.5 60.2427 175.022 60.52C175.556 60.7973 175.972 61.224 176.27 61.8C176.58 62.3653 176.734 63.0587 176.734 63.88V69H175.63V64.008C175.63 63.0587 175.39 62.3333 174.91 61.832C174.441 61.3307 173.796 61.08 172.974 61.08C172.132 61.08 171.46 61.3467 170.958 61.88C170.457 62.4133 170.206 63.1973 170.206 64.232V69H169.086V57.16H170.206V61.752C170.484 61.2293 170.889 60.824 171.422 60.536C171.966 60.248 172.574 60.104 173.246 60.104ZM187.915 64.184C187.915 64.568 187.905 64.8613 187.883 65.064H180.635C180.667 65.7253 180.827 66.2907 181.115 66.76C181.403 67.2293 181.782 67.5867 182.251 67.832C182.721 68.0667 183.233 68.184 183.787 68.184C184.513 68.184 185.121 68.008 185.611 67.656C186.113 67.304 186.443 66.8293 186.603 66.232H187.787C187.574 67.0853 187.115 67.784 186.411 68.328C185.718 68.8613 184.843 69.128 183.787 69.128C182.966 69.128 182.23 68.9467 181.579 68.584C180.929 68.2107 180.417 67.688 180.043 67.016C179.681 66.3333 179.499 65.5387 179.499 64.632C179.499 63.7253 179.681 62.9307 180.043 62.248C180.406 61.5653 180.913 61.0427 181.563 60.68C182.214 60.3173 182.955 60.136 183.787 60.136C184.619 60.136 185.345 60.3173 185.963 60.68C186.593 61.0427 187.073 61.5333 187.403 62.152C187.745 62.76 187.915 63.4373 187.915 64.184ZM186.779 64.152C186.79 63.5013 186.657 62.9467 186.379 62.488C186.113 62.0293 185.745 61.6827 185.275 61.448C184.806 61.2133 184.294 61.096 183.739 61.096C182.907 61.096 182.198 61.3627 181.611 61.896C181.025 62.4293 180.699 63.1813 180.635 64.152H186.779ZM199.395 61.208H197.363V69H196.243V61.208H195.027V60.264H196.243V59.656C196.243 58.7067 196.483 58.008 196.963 57.56C197.454 57.112 198.243 56.888 199.331 56.888V57.848C198.606 57.848 198.094 57.9867 197.795 58.264C197.507 58.5413 197.363 59.0053 197.363 59.656V60.264H199.395V61.208ZM209.526 60.264V69H208.406V67.464C208.15 68.008 207.755 68.424 207.222 68.712C206.689 69 206.091 69.144 205.43 69.144C204.385 69.144 203.531 68.824 202.87 68.184C202.209 67.5333 201.878 66.5947 201.878 65.368V60.264H202.982V65.24C202.982 66.1893 203.217 66.9147 203.686 67.416C204.166 67.9173 204.817 68.168 205.638 68.168C206.481 68.168 207.153 67.9013 207.654 67.368C208.155 66.8347 208.406 66.0507 208.406 65.016V60.264H209.526ZM214.339 61.208V66.632C214.339 67.1653 214.44 67.5333 214.643 67.736C214.846 67.9387 215.203 68.04 215.715 68.04H216.739V69H215.539C214.75 69 214.163 68.8187 213.779 68.456C213.395 68.0827 213.203 67.4747 213.203 66.632V61.208H211.987V60.264H213.203V58.072H214.339V60.264H216.739V61.208H214.339ZM226.954 60.264V69H225.834V67.464C225.578 68.008 225.184 68.424 224.65 68.712C224.117 69 223.52 69.144 222.858 69.144C221.813 69.144 220.96 68.824 220.298 68.184C219.637 67.5333 219.306 66.5947 219.306 65.368V60.264H220.41V65.24C220.41 66.1893 220.645 66.9147 221.114 67.416C221.594 67.9173 222.245 68.168 223.066 68.168C223.909 68.168 224.581 67.9013 225.082 67.368C225.584 66.8347 225.834 66.0507 225.834 65.016V60.264H226.954ZM231.431 61.816C231.677 61.272 232.05 60.8507 232.551 60.552C233.063 60.2533 233.687 60.104 234.423 60.104V61.272H234.119C233.309 61.272 232.658 61.4907 232.167 61.928C231.677 62.3653 231.431 63.096 231.431 64.12V69H230.311V60.264H231.431V61.816ZM244.812 64.184C244.812 64.568 244.801 64.8613 244.78 65.064H237.532C237.564 65.7253 237.724 66.2907 238.012 66.76C238.3 67.2293 238.679 67.5867 239.148 67.832C239.617 68.0667 240.129 68.184 240.684 68.184C241.409 68.184 242.017 68.008 242.508 67.656C243.009 67.304 243.34 66.8293 243.5 66.232H244.684C244.471 67.0853 244.012 67.784 243.308 68.328C242.615 68.8613 241.74 69.128 240.684 69.128C239.863 69.128 239.127 68.9467 238.476 68.584C237.825 68.2107 237.313 67.688 236.94 67.016C236.577 66.3333 236.396 65.5387 236.396 64.632C236.396 63.7253 236.577 62.9307 236.94 62.248C237.303 61.5653 237.809 61.0427 238.46 60.68C239.111 60.3173 239.852 60.136 240.684 60.136C241.516 60.136 242.241 60.3173 242.86 60.68C243.489 61.0427 243.969 61.5333 244.3 62.152C244.641 62.76 244.812 63.4373 244.812 64.184ZM243.676 64.152C243.687 63.5013 243.553 62.9467 243.276 62.488C243.009 62.0293 242.641 61.6827 242.172 61.448C241.703 61.2133 241.191 61.096 240.636 61.096C239.804 61.096 239.095 61.3627 238.508 61.896C237.921 62.4293 237.596 63.1813 237.532 64.152H243.676Z" fill="#928F8F"/>
</svg>
